SplineFontDB: 3.0
FontName: AnkaCoder-C75-SkelBI
FullName: Anna Shugol/Coder Narrow Bold Italic
FamilyName: Anka/Coder Narrow
Weight: Bold
Copyright: Copyright (c) 2010, Andrey Makarov (makarov@bmstu.ru, mka-at-mailru@mail.ru),\nwith Reserved Font Name Anka/Coder Narrow.\n---------------------------------\nThe Anka/* are members of Anna Shugol name font family; March 2010
Version: 001.000
StrokeWidth: 100
ItalicAngle: -12
UnderlinePosition: -292
UnderlineWidth: 50
Ascent: 1638
Descent: 410
LayerCount: 2
Layer: 0 0 "Back"  1
Layer: 1 0 "Fore"  0
StrokedFont: 1
NeedsXUIDChange: 1
XUID: [1021 77 1780377344 2390775]
UseXUID: 1
BaseHoriz: 0
FSType: 8
OS2Version: 1
OS2_WeightWidthSlopeOnly: 0
OS2_UseTypoMetrics: 1
CreationTime: 1260467214
ModificationTime: 1267184884
PfmFamily: 49
TTFWeight: 700
TTFWidth: 3
LineGap: 0
VLineGap: 0
Panose: 2 11 8 9 2 5 2 2 2 4
OS2TypoAscent: 0
OS2TypoAOffset: 1
OS2TypoDescent: 0
OS2TypoDOffset: 1
OS2TypoLinegap: 0
OS2WinAscent: 0
OS2WinAOffset: 1
OS2WinDescent: 0
OS2WinDOffset: 1
HheadAscent: 0
HheadAOffset: 1
HheadDescent: 0
HheadDOffset: 1
OS2SubXSize: 553
OS2SubYSize: 1229
OS2SubXOff: 0
OS2SubYOff: 283
OS2SupXSize: 553
OS2SupYSize: 1229
OS2SupXOff: 0
OS2SupYOff: 977
OS2StrikeYSize: 102
OS2StrikeYPos: 530
OS2FamilyClass: 1285
OS2Vendor: 'AVM1'
OS2CodePages: 40000097.cfd60000
OS2UnicodeRanges: 800002ef.000079eb.00000000.00000000
MacStyle: 3
DEI: 91125
ShortTable: maxp 16
  0
  0
  0
  0
  0
  0
  0
  2
  1
  0
  9
  0
  256
  0
  0
  0
EndShort
TtTable: prep
PUSHW_1
 511
SCANCTRL
SVTCA[y-axis]
MPPEM
PUSHB_1
 8
LT
IF
PUSHB_2
 1
 1
INSTCTRL
EIF
PUSHB_2
 70
 6
CALL
IF
POP
PUSHB_1
 16
EIF
MPPEM
PUSHB_1
 20
GT
IF
POP
PUSHB_1
 128
EIF
SCVTCI
PUSHB_1
 6
CALL
NOT
IF
EIF
EndTTInstrs
TtTable: fpgm
PUSHB_1
 0
FDEF
PUSHB_1
 0
SZP0
MPPEM
PUSHB_1
 42
LT
IF
PUSHB_1
 74
SROUND
EIF
PUSHB_1
 0
SWAP
MIAP[rnd]
RTG
PUSHB_1
 6
CALL
IF
RTDG
EIF
MPPEM
PUSHB_1
 42
LT
IF
RDTG
EIF
DUP
MDRP[rp0,rnd,grey]
PUSHB_1
 1
SZP0
MDAP[no-rnd]
RTG
ENDF
PUSHB_1
 1
FDEF
DUP
DUP

StartChar: exclam
Encoding: 33 33 1
Width: 922
VWidth: 1708
GlyphClass: 2
Flags: W
HStem: -23 236<363.831 557.094> 1398 20G<428.5 489>
VStem: 336 249<6.3129 184.037 1384.21 1392.37> 371 182<384 808.823>
LayerCount: 2
Fore
SplineSet
495 95 m 0xe0
 495 26 436 -23 370 -23 c 0
 306 -23 246 27 246 95 c 0
 246 157 300 213 370 213 c 0
 435 213 495 165 495 95 c 0xe0
646 1418 m 0
 710 1418 764.851 1365.76 742 1273 c 2
 523 384 l 1
 341 384 l 1xd0
 500 1274 l 2
 517.246 1370.53 589 1418 646 1418 c 0
EndSplineSet
EndChar

StartChar: quotedbl
Encoding: 34 34 2
Width: 922
VWidth: 1708
GlyphClass: 2
Flags: W
HStem: 1043 382<247 382 667 802>
LayerCount: 2
Fore
SplineSet
315 1077 m 2
 294 1053 270 1043 247 1043 c 3
 205 1043 168 1078 168 1123 c 3
 168 1137 172 1153 180 1169 c 2
 282 1360 l 2
 307 1407 345 1425 382 1425 c 3
 439 1425 494 1381 494 1322 c 3
 494 1296 483 1268 458 1239 c 2
 315 1077 l 2
735 1077 m 2
 714 1053 690 1043 667 1043 c 3
 625 1043 588 1078 588 1123 c 3
 588 1137 592 1153 600 1169 c 2
 702 1360 l 2
 727 1407 765 1425 802 1425 c 3
 859 1425 914 1381 914 1322 c 3
 914 1296 903 1268 878 1239 c 2
 735 1077 l 2
EndSplineSet
EndChar

StartChar: numbersign
Encoding: 35 35 3
Width: 922
VWidth: 1708
GlyphClass: 2
Flags: MW
LayerCount: 2
Fore
SplineSet
-82 0 m 1
 213 1333 l 1
 1005 1333 l 1
 710 0 l 1
 -82 0 l 1
26 956 m 25
 948 956 l 25
-22 416 m 25
 900 416 l 25
812 1425 m 25
 475 -99 l 25
442 1425 m 25
 105 -99 l 25
EndSplineSet
EndChar

StartChar: dollar
Encoding: 36 36 4
Width: 922
VWidth: 2334
GlyphClass: 2
Flags: MW
LayerCount: 2
Fore
SplineSet
-132 -93 m 1
 205 1491 l 1
 1127 1491 l 1
 790 -93 l 1
 -132 -93 l 1
705 1674 m 25
 300 -216 l 25
103 357 m 0
 99 340 98 324 98 308 c 0
 98 175 213 67 354 67 c 10
 372 67 l 18
 526 67 687 183 720 337 c 10
 726 367 l 18
 731 390 734 416 734 442 c 0
 734 532 701 631 616 684 c 2
 381 818 l 2
 318 854 291 920 291 984 c 0
 291 1000 292 1017 296 1033 c 2
 302 1063 l 2
 335 1218 474 1333 629 1333 c 10
 636 1333 l 18
 769 1333 864 1260 875 1145 c 1
 876 1137 876 1129 876 1121 c 0
 876 1103 874 1083 870 1063 c 0
EndSplineSet
EndChar

StartChar: percent
Encoding: 37 37 5
Width: 922
VWidth: 1708
GlyphClass: 2
Flags: MW
LayerCount: 2
Fore
SplineSet
-2 93 m 25
 998 1308 l 25
382.961 957 m 3
 280.54 957 223.466 1042.52 223 1145 c 3
 223.106 1248 280.039 1333 383.039 1333 c 3
 487.208 1333 543 1248.25 543 1145 c 3
 543 1048.25 488.961 957 382.961 957 c 3
611.854 64 m 3
 509.572 64 451.894 143.766 451.894 252 c 3
 451.894 355.004 508.146 439 611.146 439 c 3
 715.474 439 771.415 354.669 771.894 252 c 3
 771.725 154 717.854 64 611.854 64 c 3
EndSplineSet
EndChar

StartChar: ampersand
Encoding: 38 38 6
Width: 922
VWidth: 2334
GlyphClass: 2
Flags: MW
LayerCount: 2
Fore
SplineSet
710 10 m 5
 451 779 l 6
 422.542 848.925 386.812 953.888 386.812 1046.59 c 4
 386.812 1067.9 388.701 1088.56 393 1108 c 6
 397 1130 l 6
 422 1246 507 1333 623 1333 c 14
 642 1333 l 22
 744.178 1333 798.579 1265.97 798.579 1176.47 c 4
 798.579 1159.98 796.733 1142.73 793 1125 c 6
 787 1098 l 6
 770 1017 696 956 652 922 c 6
 288 639 l 5
 197 559 127 471 105 367 c 14
 99 337 l 22
 95.0532 318.582 93.1662 300.707 93.1662 283.509 c 4
 93.1662 156.912 195.418 67 331 67 c 14
 349 67 l 22
 475 67 581 153 653 272 c 6
 845 590 l 4
EndSplineSet
EndChar

StartChar: quotesingle
Encoding: 39 39 7
Width: 922
VWidth: 1708
GlyphClass: 2
Flags: W
HStem: 1043 383<377 512>
LayerCount: 2
Fore
SplineSet
445 1077 m 6
 424 1053 400 1043 377 1043 c 7
 335 1043 298 1078 298 1123 c 7
 298 1137 302 1153 310 1169 c 6
 412 1360 l 6
 437 1407 475 1425 512 1425 c 7
 569 1425 624 1381 624 1322 c 7
 624 1296 613 1268 588 1239 c 6
 445 1077 l 6
EndSplineSet
EndChar

StartChar: parenleft
Encoding: 40 40 8
Width: 922
VWidth: 1708
GlyphClass: 2
Flags: MW
LayerCount: 2
Fore
SplineSet
823 1480 m 21
 586 1320 339 1040 267 700 c 20
 253 633 246 569 246 507 c 4
 246 255 355 49 491 -80 c 13
EndSplineSet
EndChar

StartChar: parenright
Encoding: 41 41 9
Width: 922
VWidth: 1708
GlyphClass: 2
Flags: MW
LayerCount: 2
Fore
SplineSet
485 1480 m 21
 621 1351 730 1145 730 893 c 4
 730 831 723 767 709 700 c 12
 637 360 390 80 153 -80 c 13
EndSplineSet
EndChar

StartChar: asterisk
Encoding: 42 42 10
Width: 922
VWidth: 1708
GlyphClass: 2
Flags: MW
LayerCount: 2
Fore
SplineSet
199 305 m 25
 477 600 l 25
 554.757 968 l 25
477 600 m 25
 628 305 l 25
848 713 m 25
 477 600 l 25
 153 713 l 25
EndSplineSet
EndChar

StartChar: plus
Encoding: 43 43 11
Width: 922
VWidth: 1708
GlyphClass: 2
Flags: MW
LayerCount: 2
Fore
SplineSet
-22 189 m 1
 155 1011 l 1
 975 1011 l 1
 798 189 l 1
 -22 189 l 1
356 33 m 25
 588 1124 l 25
-14 600 m 25
 988 600 l 25
EndSplineSet
EndChar

StartChar: comma
Encoding: 44 44 12
Width: 922
VWidth: 1947
GlyphClass: 2
Flags: MW
LayerCount: 2
Fore
SplineSet
106.545 -218.925 m 21
 183.719 -208.078 305.297 -154.935 224.9 -48.8145 c 13
 455.744 2.30762 l 21
 428.355 -125.798 372.601 -322.504 110.458 -295.409 c 13
 106.545 -218.925 l 21
329.604 159 m 4
 500.071 159 500.337 -101 329.869 -101 c 4
 256.201 -101 200.112 -41.3503 200.237 29 c 4
 200.783 97 251.604 159 329.604 159 c 4
EndSplineSet
EndChar

StartChar: hyphen
Encoding: 45 45 13
Width: 922
VWidth: 1708
GlyphClass: 2
Flags: MW
LayerCount: 2
Fore
SplineSet
50 600 m 25
 872 600 l 25
EndSplineSet
EndChar

StartChar: period
Encoding: 46 46 14
Width: 922
VWidth: 1708
GlyphClass: 2
Flags: MW
LayerCount: 2
Fore
SplineSet
478 29 m 4
 478 -40 425 -101 348 -101 c 4
 274 -101 219 -41 219 29 c 4
 219 97 270 159 348 159 c 4
 424 159 478 99 478 29 c 4
EndSplineSet
EndChar

StartChar: slash
Encoding: 47 47 15
Width: 922
VWidth: 1708
GlyphClass: 2
Flags: MW
LayerCount: 2
Fore
SplineSet
65 -25 m 29
 931 1425 l 29
EndSplineSet
EndChar

StartChar: zero
Encoding: 48 48 16
Width: 922
VWidth: 1708
GlyphClass: 2
Flags: MW
LayerCount: 2
Fore
SplineSet
202 1476 m 1
 1033 1476 l 1
 1062 1186 l 1
 799 -51 l 1
 -29 -51 l 1
 -65 219 l 1
 202 1476 l 1
-138 -25 m 25
 1133 1425 l 25
632 1333 m 3
 783.553 1333 833.458 1216.67 833.458 1051.92 c 0
 833.458 948.164 813.663 825.202 787 700 c 0
 716 369 604 67 363 67 c 3
 211.773 67 162.802 184.873 162.802 348.514 c 0
 162.802 453.232 182.856 576.692 209 700 c 0
 278 1024 387 1333 632 1333 c 3
EndSplineSet
EndChar

StartChar: one
Encoding: 49 49 17
Width: 922
VWidth: 1708
GlyphClass: 2
Flags: MW
LayerCount: 2
Fore
SplineSet
-41 335 m 5
 360 735 l 5
 400 921 l 5
 343 1024 l 5
 719 1425 l 5
 1113 1425 l 5
 805 -25 l 5
 -117 -25 l 5
 -41 335 l 5
417 -138 m 29
 731 1333 l 29
 241 966 l 29
EndSplineSet
EndChar

StartChar: two
Encoding: 50 50 18
Width: 922
VWidth: 2334
GlyphClass: 2
Flags: MW
LayerCount: 2
Fore
SplineSet
-27 -25 m 1
 292 1479 l 1
 1124 1479 l 1
 868 273 l 1
 778 273 l 1
 715 -25 l 1
 -27 -25 l 1
325 1149 m 1
 394 1258 469 1333 623 1333 c 10
 641 1333 l 18
 790 1333 864 1271 864 1149 c 0
 864 1123 861 1095 854 1064 c 10
 846 1024 l 18
 833 966 784 897 711 822 c 2
 287 384 l 2
 204 299 141 196 90 92 c 1
 880 92 l 9
EndSplineSet
EndChar

StartChar: three
Encoding: 51 51 19
Width: 922
VWidth: 2334
GlyphClass: 2
Flags: MW
LayerCount: 2
Fore
SplineSet
334 1158 m 5
 397 1264 517 1333 623 1333 c 14
 641 1333 l 22
 752.901 1333 817.394 1253.99 817.394 1138.67 c 4
 817.394 1114.87 814.646 1089.52 809 1063 c 14
 800 1022 l 22
 777 912 658 777 524 777 c 5
 355 777 l 13
 523 777 l 22
 664.258 777 732.229 693.243 732.229 548.928 c 4
 732.229 509.348 727.116 465.212 717 417 c 14
 712 397 l 22
 666 177 552 67 372 67 c 14
 354 67 l 22
 247.139 67 134.908 135.282 134.908 273.863 c 4
 134.908 293.496 137.16 314.539 142 337 c 5
EndSplineSet
EndChar

StartChar: four
Encoding: 52 52 20
Width: 922
VWidth: 1708
GlyphClass: 2
Flags: MW
LayerCount: 2
Fore
SplineSet
281 1425 m 5
 1023 1425 l 5
 720 0 l 5
 -22 0 l 5
 281 1425 l 5
528 -150 m 29
 844 1335 l 29
 144 427 l 29
 959 427 l 29
EndSplineSet
EndChar

StartChar: five
Encoding: 53 53 21
Width: 922
VWidth: 2334
GlyphClass: 2
Flags: MW
LayerCount: 2
Fore
SplineSet
191 1425 m 5
 964 1425 l 5
 900 1122 l 5
 1048 1122 l 5
 799 -54 l 5
 -123 -54 l 5
 -75 173 l 5
 342 393 l 5
 376 556 l 5
 61 813 l 5
 191 1425 l 5
1060 1308 m 5
 438 1308 l 5
 235 675 l 5
175 495 m 5
 222 714 409 847 520 847 c 14
 538 847 l 22
 679 847 747 763 747 619 c 4
 747 579 742 535 732 487 c 14
 719 427 l 22
 671 201 552 67 372 67 c 14
 304 67 l 22
 204 67 85 136 85 277 c 4
 85 296 87 316 92 337 c 5
EndSplineSet
EndChar

StartChar: six
Encoding: 54 54 22
Width: 922
VWidth: 2334
GlyphClass: 2
Flags: MW
LayerCount: 2
Fore
SplineSet
162 432 m 25
 273 957 l 17
 316 1152 443 1333 623 1333 c 10
 641 1333 l 18
 767 1333 840 1288 859 1200 c 1
174 487 m 10
 161 427 l 18
 152.254 385.819 148.122 347.693 148.122 312.875 c 0
 148.122 156.615 231.333 67 354 67 c 10
 372 67 l 18
 552 67 671 201 719 427 c 10
 732 487 l 18
 742.116 535.212 747.229 579.348 747.229 618.928 c 0
 747.229 763.243 679.258 847 538 847 c 10
 520 847 l 18
 340 847 221 711 174 487 c 10
EndSplineSet
EndChar

StartChar: seven
Encoding: 55 55 23
Width: 922
VWidth: 1708
GlyphClass: 2
Flags: MW
LayerCount: 2
Fore
SplineSet
204 1485 m 5
 1036 1485 l 5
 720 0 l 5
 -112 0 l 5
 204 1485 l 5
256 1308 m 29
 906 1308 l 21
 600 876 302 379 117 -93 c 13
EndSplineSet
EndChar

StartChar: eight
Encoding: 56 56 24
Width: 922
VWidth: 2334
GlyphClass: 2
Flags: MW
LayerCount: 2
Fore
SplineSet
641 1333 m 10
 623 1333 l 18
 488 1333 375 1221 341 1064 c 2
 333 1024 l 2
 329.577 1008.03 327.883 991.587 327.883 975.137 c 0
 327.883 876.24 389.11 777 504 777 c 10
 524 777 l 18
 658 777 777 912 800 1022 c 10
 809 1063 l 18
 814.646 1089.52 817.394 1114.87 817.394 1138.67 c 0
 817.394 1253.99 752.901 1333 641 1333 c 10
159 417 m 10
 154 397 l 18
 146.132 359.885 142.419 325.813 142.419 294.827 c 0
 142.419 144.651 229.655 67 354 67 c 10
 372 67 l 18
 552 67 666 177 712 397 c 10
 717 417 l 18
 727.116 465.212 732.229 509.348 732.229 548.928 c 0
 732.229 693.243 664.258 777 523 777 c 10
 505 777 l 18
 325 777 206 641 159 417 c 10
EndSplineSet
EndChar

StartChar: nine
Encoding: 57 57 25
Width: 922
VWidth: 2334
GlyphClass: 2
Flags: MW
LayerCount: 2
Fore
SplineSet
834 968 m 25
 722 443 l 17
 681 248 552 67 372 67 c 10
 354 67 l 18
 228 67 155 112 137 200 c 1
822 913 m 18
 774 689 656 553 476 553 c 10
 458 553 l 18
 316.966 553 248.373 636.491 248.373 780.386 c 0
 248.373 820.142 253.609 864.509 264 913 c 10
 277 973 l 18
 325 1199 443 1333 623 1333 c 10
 641 1333 l 18
 763.846 1333 847.791 1243.12 847.791 1086.44 c 0
 847.791 1051.81 843.689 1013.91 835 973 c 10
 822 913 l 18
EndSplineSet
EndChar

StartChar: less
Encoding: 60 60 28
Width: 922
VWidth: 1708
GlyphClass: 2
Flags: MW
LayerCount: 2
Fore
SplineSet
261 1332 m 5
 1003 1332 l 5
 697 -110 l 5
 -45 -110 l 5
 261 1332 l 5
1037 1160 m 29
 198 600 l 29
 799 40 l 29
EndSplineSet
EndChar

StartChar: equal
Encoding: 61 61 29
Width: 922
VWidth: 1708
GlyphClass: 2
Flags: MW
LayerCount: 2
Fore
SplineSet
110 810 m 29
 932 810 l 29
23 400 m 29
 845 400 l 29
EndSplineSet
EndChar

StartChar: greater
Encoding: 62 62 30
Width: 922
VWidth: 1708
GlyphClass: 2
Flags: MW
LayerCount: 2
Fore
SplineSet
261 1332 m 5
 1003 1332 l 5
 697 -110 l 5
 -45 -110 l 5
 261 1332 l 5
-83 40 m 29
 756 600 l 29
 155 1160 l 29
EndSplineSet
EndChar

StartChar: question
Encoding: 63 63 31
Width: 922
VWidth: 1708
GlyphClass: 2
Flags: W
HStem: -101 260<251.547 445.7> 380 1189<24 1131>
VStem: 24 1107<380 1569> 219 259<-68.357 126.694>
LayerCount: 2
Fore
SplineSet
24 380 m 1xe0
 24 1569 l 1
 1131 1569 l 1
 1131 380 l 1
 24 380 l 1xe0
478 29 m 0xd0
 478 -40 425 -101 348 -101 c 0
 274 -101 219 -41 219 29 c 0
 219 97 270 159 348 159 c 0
 424 159 478 99 478 29 c 0xd0
404.681 264 m 25
 451 480 l 18
 468.756 562.803 521.771 632.837 586.091 696 c 2
 741.892 849 l 2
 794.397 900.562 832.293 959.291 846 1024 c 10
 854 1063 l 18
 860.624 1094.2 863.936 1122.73 863.936 1148.57 c 0
 863.936 1270.96 789.624 1333 641 1333 c 10
 623 1333 l 18
 443 1333 334 1242 296 1063 c 9
EndSplineSet
EndChar

StartChar: at
Encoding: 64 64 32
Width: 922
VWidth: 1708
GlyphClass: 2
Flags: MW
LayerCount: 2
Fore
SplineSet
1083 338 m 5
 -81 338 l 5
 -81 1557 l 5
 1083 1557 l 5
 1083 338 l 5
705 968 m 6
 705 968 808 969 874 969 c 29
 804 639 l 6
 783 543 691 435 591 435 c 7
 498.544 435 461.008 492.074 461.008 586.072 c 4
 461.008 620.175 465.949 659.139 475 702 c 4
 509 863 579 968 705 968 c 6
662 162 m 5
 572 87 451 67 363 67 c 7
 186.295 67 118.742 227.936 118.742 434.777 c 4
 118.742 518.23 129.739 609.156 149 700 c 4
 218 1024 387 1333 632 1333 c 7
 774.015 1333 893.971 1231.37 893.971 1088.95 c 4
 893.971 1070.91 892.089 1052.21 888 1033 c 6
 723 258 l 21
EndSplineSet
EndChar

StartChar: B
Encoding: 66 66 33
Width: 922
VWidth: 1947
GlyphClass: 2
Flags: MW
LayerCount: 2
Fore
SplineSet
700 337 m 10
 731 485 l 18
 737.624 516.202 740.936 544.73 740.936 570.568 c 0
 740.936 692.96 666.624 755 518 755 c 10
 230 755 l 25
 468 755 l 2
 648 755 757 844 796 1025 c 2
 804 1063 l 2
 810.778 1094.93 814.216 1123.26 814.216 1148.27 c 0
 814.216 1263.45 741.287 1308 586 1308 c 2
 348 1308 l 1
 90 92 l 1
 378 92 l 2
 558 92 661 156 700 337 c 10
EndSplineSet
EndChar

StartChar: C
Encoding: 67 67 34
Width: 922
VWidth: 1947
GlyphClass: 2
Flags: MW
LayerCount: 2
Fore
SplineSet
668 315 m 5
 598 167 502 67 363 67 c 7
 211.773 67 162.802 184.873 162.802 348.514 c 4
 162.802 453.232 182.856 576.692 209 700 c 4
 278 1024 387 1333 632 1333 c 7
 777 1333 829 1227 833 1074 c 5
EndSplineSet
EndChar

StartChar: D
Encoding: 68 68 35
Width: 922
VWidth: 1947
GlyphClass: 2
Flags: MW
LayerCount: 2
Fore
SplineSet
627 1308 m 6
 780.759 1308 831.827 1197.95 831.827 1036.7 c 4
 831.827 938.917 813.047 822.308 787 700 c 4
 716 369 610 92 369 92 c 6
 90 92 l 5
 348 1308 l 5
 627 1308 l 6
EndSplineSet
EndChar

StartChar: E
Encoding: 69 69 36
Width: 922
VWidth: 1708
GlyphClass: 2
Flags: MW
LayerCount: 2
Fore
SplineSet
-437 -66 m 5
 -61 1707 l 5
 1084 1707 l 5
 919.434 931 l 5
 823 921 l 5
 745.544 559 l 5
 838.847 551 l 5
 708 -66 l 5
 -437 -66 l 5
948 755 m 29
 230 755 l 29
1088 1308 m 29
 348 1308 l 29
 90 93 l 29
 830 93 l 29
EndSplineSet
EndChar

StartChar: F
Encoding: 70 70 37
Width: 922
VWidth: 1708
GlyphClass: 2
Flags: MW
LayerCount: 2
Fore
SplineSet
-421.006 0 m 1
 -61 1707 l 1
 1084 1707 l 1
 919.434 931 l 1
 823 921 l 1
 745.544 559 l 1
 838.847 551 l 1
 723.994 0 l 1
 -421.006 0 l 1
948 755 m 25
 230 755 l 25
1088 1308 m 25
 348 1308 l 25
 32.5859 -176 l 25
EndSplineSet
EndChar

StartChar: G
Encoding: 71 71 38
Width: 922
VWidth: 1947
GlyphClass: 2
Flags: MW
LayerCount: 2
Fore
SplineSet
833 1074 m 5
 829 1227 777 1333 632 1333 c 7
 387 1333 278 1024 209 700 c 4
 182.856 576.692 162.802 453.232 162.802 348.514 c 4
 162.802 184.873 211.773 67 363 67 c 7
 502 67 621 141 690 289 c 13
 760 617 l 5
 523 617 l 29
EndSplineSet
EndChar

StartChar: H
Encoding: 72 72 39
Width: 922
VWidth: 1947
GlyphClass: 2
Flags: MW
LayerCount: 2
Fore
SplineSet
-372 0 m 1
 -372 1396 l 1
 1492 1396 l 1
 1492 0 l 1
 -372 0 l 1
219 700 m 25
 777 700 l 25
959.589 1560 m 25
 600.787 -128 l 25
401.589 1560 m 25
 42.7871 -128 l 25
EndSplineSet
EndChar

StartChar: I
Encoding: 73 73 40
Width: 922
VWidth: 1947
GlyphClass: 2
Flags: MW
LayerCount: 2
Fore
SplineSet
-44.958 -108 m 5
 330.481 1663 l 5
 1082.48 1663 l 5
 707.042 -108 l 5
 -44.958 -108 l 5
-92 92 m 25
 900 92 l 25
369 92 m 17
126 1308 m 25
 1098 1308 l 1
627 1309 m 1
 369 92 l 9
EndSplineSet
EndChar

StartChar: J
Encoding: 74 74 41
Width: 922
VWidth: 1947
GlyphClass: 2
Flags: MW
LayerCount: 2
Fore
SplineSet
-194.958 -108 m 1
 61.9774 1104 l 1
 445.065 1128 l 1
 560.481 1663 l 1
 1082.48 1663 l 1
 707.042 -108 l 1
 -194.958 -108 l 1
86 240 m 1
 89 124 156 67 264 67 c 10
 282 67 l 18
 417 67 526 156 565 337 c 10
 771 1308 l 25
324 1308 m 25
 1168 1308 l 25
EndSplineSet
EndChar

StartChar: K
Encoding: 75 75 42
Width: 922
VWidth: 1947
GlyphClass: 2
Flags: MW
LayerCount: 2
Fore
SplineSet
186 1400 m 5
 1108 1400 l 5
 810 0 l 5
 -112 0 l 5
 186 1400 l 5
690 -141 m 25
 435 765 l 25
1031 1524 m 25
 173 485 l 25
394.788 1528 m 25
 41.0918 -136 l 25
EndSplineSet
EndChar

StartChar: L
Encoding: 76 76 43
Width: 922
VWidth: 1947
GlyphClass: 2
Flags: MW
LayerCount: 2
Fore
SplineSet
186 1400 m 5
 1017 1400 l 5
 678.181 -192 l 5
 -152.819 -192 l 5
 186 1400 l 5
409.24 1596 m 29
 90 93 l 29
 930 93 l 29
EndSplineSet
EndChar

StartChar: M
Encoding: 77 77 44
Width: 922
VWidth: 1947
GlyphClass: 2
Flags: MW
LayerCount: 2
Fore
SplineSet
-112 0 m 1
 186 1400 l 1
 1108 1400 l 1
 810 0 l 1
 499 0 l 1
 550 242 l 1
 257 242 l 1
 205 0 l 1
 -112 0 l 1
-32 -75 m 25
 388 1401 l 25
 424 351 l 25
 906 1401 l 25
 698 -75 l 25
EndSplineSet
EndChar

StartChar: N
Encoding: 78 78 45
Width: 922
VWidth: 1947
GlyphClass: 2
Flags: MW
LayerCount: 2
Fore
SplineSet
186 1400 m 5
 1108 1400 l 5
 810 0 l 5
 -112 0 l 5
 186 1400 l 5
34.2891 -168 m 25
 353 1333 l 25
 642 66 l 25
 958.736 1556 l 25
EndSplineSet
EndChar

StartChar: O
Encoding: 79 79 46
Width: 922
VWidth: 1947
GlyphClass: 2
Flags: MW
LayerCount: 2
Fore
SplineSet
632 1333 m 7
 783.553 1333 833.458 1216.67 833.458 1051.92 c 4
 833.458 961.603 818.459 856.733 796.987 748.5 c 6
 774.737 645 l 6
 703.121 336.29 590.575 67 363 67 c 7
 211.773 67 162.802 184.873 162.802 348.514 c 4
 162.802 439.351 177.892 544.29 198.957 651 c 6
 219.332 747 l 6
 288.892 1053.24 398.882 1333 632 1333 c 7
EndSplineSet
EndChar

StartChar: P
Encoding: 80 80 47
Width: 922
VWidth: 1947
GlyphClass: 2
Flags: MW
LayerCount: 2
Fore
SplineSet
186 1400 m 5
 1108 1400 l 5
 810 0 l 5
 -112 0 l 5
 186 1400 l 5
216 685 m 25
 504 685 l 2
 684 685 793 774 831 955 c 2
 854 1063 l 2
 860.778 1094.93 864.216 1123.26 864.216 1148.27 c 0
 864.216 1263.45 791.287 1308 636 1308 c 2
 348 1308 l 1
 33.6523 -171 l 1
EndSplineSet
EndChar

StartChar: Q
Encoding: 81 81 48
Width: 922
VWidth: 1947
GlyphClass: 2
Flags: MW
LayerCount: 2
Fore
SplineSet
632 1333 m 7
 783.553 1333 833.458 1216.67 833.458 1051.92 c 4
 833.458 961.603 818.459 856.733 796.987 748.5 c 6
 774.737 645 l 6
 703.121 336.29 590.575 67 363 67 c 7
 211.773 67 162.802 184.873 162.802 348.514 c 4
 162.802 439.351 177.892 544.29 198.957 651 c 6
 219.332 747 l 6
 288.892 1053.24 398.882 1333 632 1333 c 7
434 399 m 29
 597 -144 l 29
EndSplineSet
EndChar

StartChar: R
Encoding: 82 82 49
Width: 922
VWidth: 1947
GlyphClass: 2
Flags: MW
LayerCount: 2
Fore
SplineSet
198 1458 m 5
 1120 1458 l 5
 810 0 l 5
 -112 0 l 5
 198 1458 l 5
688 -102 m 25
 494 680 l 25
216 685 m 25
 504 685 l 2
 684 685 793 775 831 956 c 2
 854 1063 l 2
 860.778 1094.93 864.216 1123.26 864.216 1148.27 c 0
 864.216 1263.45 791.287 1308 636 1308 c 2
 348 1308 l 1
 31.7393 -180 l 1
EndSplineSet
EndChar

StartChar: S
Encoding: 83 83 50
Width: 922
VWidth: 2334
GlyphClass: 2
Flags: MW
LayerCount: 2
Fore
SplineSet
103 357 m 4
 99.4204 340.295 97.7116 323.802 97.7116 307.672 c 4
 97.7116 175.096 213.139 67 354 67 c 14
 372 67 l 22
 526 67 687 183 720 337 c 14
 726 367 l 22
 730.944 390.373 733.666 415.767 733.666 441.876 c 4
 733.666 531.938 701.278 630.507 616 684 c 6
 381 818 l 6
 317.597 854.457 290.625 919.806 290.625 983.684 c 4
 290.625 1000.4 292.473 1017.03 296 1033 c 6
 302 1063 l 6
 335 1218 474 1333 629 1333 c 14
 636 1333 l 22
 769 1333 864 1260 875 1145 c 5
 875.929 1137.26 876.378 1129.23 876.378 1120.98 c 4
 876.378 1102.57 874.143 1083.02 870 1063 c 4
EndSplineSet
EndChar

StartChar: T
Encoding: 84 84 51
Width: 922
VWidth: 1947
GlyphClass: 2
Flags: MW
LayerCount: 2
Fore
SplineSet
268 1458 m 1
 1050 1458 l 1
 740 0 l 1
 -42 0 l 1
 268 1458 l 1
305.001 -207 m 25
 627 1308 l 25
106 1308 m 25
 1138 1308 l 25
EndSplineSet
EndChar

StartChar: U
Encoding: 85 85 52
Width: 922
VWidth: 1947
GlyphClass: 2
Flags: MW
LayerCount: 2
Fore
SplineSet
114 1400 m 5
 1176 1400 l 5
 855 -99 l 5
 -207 -99 l 5
 114 1400 l 5
396.487 1536 m 25
 142 337 l 18
 135.18 304.868 131.624 275.671 131.624 249.334 c 0
 131.624 127.221 205.935 67 354 67 c 10
 372 67 l 18
 552 67 661.557 155.878 700 337 c 10
 957.674 1551 l 25
EndSplineSet
EndChar

StartChar: V
Encoding: 86 86 53
Width: 922
VWidth: 1708
GlyphClass: 2
Flags: MW
LayerCount: 2
Fore
SplineSet
-117 -25 m 5
 186 1400 l 5
 1108 1400 l 5
 805 -25 l 5
 -117 -25 l 5
342 1494 m 29
 357 37 l 29
 1041 1605 l 29
EndSplineSet
EndChar

StartChar: W
Encoding: 87 87 54
Width: 922
VWidth: 1947
GlyphClass: 2
Flags: MW
LayerCount: 2
Fore
SplineSet
186 1400 m 5
 503 1400 l 5
 451 1158 l 5
 744 1158 l 5
 796 1400 l 5
 1108 1400 l 5
 810 0 l 5
 -112 0 l 5
 186 1400 l 5
298 1475 m 29
 90 -1 l 29
 572 1049 l 29
 608 -1 l 29
 1028 1475 l 29
EndSplineSet
EndChar

StartChar: X
Encoding: 88 88 55
Width: 922
VWidth: 1947
GlyphClass: 2
Flags: MW
LayerCount: 2
Fore
SplineSet
186 1400 m 5
 1108 1400 l 5
 810 0 l 5
 -112 0 l 5
 186 1400 l 5
983 1480 m 29
 13 -80 l 29
345 1480 m 29
 651 -80 l 29
EndSplineSet
EndChar

StartChar: Y
Encoding: 89 89 56
Width: 922
VWidth: 1947
GlyphClass: 2
Flags: MW
LayerCount: 2
Fore
SplineSet
186 1400 m 5
 1108 1400 l 5
 801 -25 l 5
 -121 -25 l 5
 186 1400 l 5
983 1480 m 21
 458 513 l 5
 309.653 -171 l 13
345 1480 m 29
 458 513 l 29
EndSplineSet
EndChar

StartChar: Z
Encoding: 90 90 57
Width: 922
VWidth: 1947
GlyphClass: 2
Flags: MW
LayerCount: 2
Fore
SplineSet
281 1425 m 5
 1023 1425 l 5
 715 -25 l 5
 -27 -25 l 5
 281 1425 l 5
166 1308 m 25
 906 1308 l 25
 90 93 l 25
 860 93 l 25
EndSplineSet
EndChar

StartChar: bracketleft
Encoding: 91 91 58
Width: 922
VWidth: 1947
GlyphClass: 2
Flags: MW
LayerCount: 2
Fore
SplineSet
336.369 1686 m 5
 987.369 1686 l 5
 562.043 -315 l 5
 -88.957 -315 l 5
 336.369 1686 l 5
1083 1480 m 21
 553 1480 l 5
 221 -80 l 29
 751 -80 l 13
EndSplineSet
EndChar

StartChar: backslash
Encoding: 92 92 59
Width: 922
VWidth: 1708
GlyphClass: 2
Flags: MW
LayerCount: 2
Fore
SplineSet
623 -25 m 29
 373 1425 l 29
EndSplineSet
EndChar

StartChar: bracketright
Encoding: 93 93 60
Width: 922
VWidth: 1947
GlyphClass: 2
Flags: MW
LayerCount: 2
Fore
SplineSet
428.369 1686 m 5
 1079.37 1686 l 5
 654.043 -315 l 5
 3.04297 -315 l 5
 428.369 1686 l 5
275 1480 m 21
 775 1480 l 5
 443 -80 l 29
 -57 -80 l 13
EndSplineSet
EndChar

StartChar: asciicircum
Encoding: 94 94 61
Width: 922
VWidth: 1947
GlyphClass: 2
Flags: MW
LayerCount: 2
Fore
SplineSet
191 1425 m 5
 1113 1425 l 5
 810 0 l 5
 -112 0 l 5
 191 1425 l 5
273 957 m 29
 637 1353 l 29
 831 957 l 29
EndSplineSet
EndChar

StartChar: underscore
Encoding: 95 95 62
Width: 922
VWidth: 1947
GlyphClass: 2
Flags: MW
LayerCount: 2
Fore
SplineSet
-42 -92 m 29
 700 -92 l 29
EndSplineSet
EndChar

StartChar: grave
Encoding: 96 96 63
Width: 922
VWidth: 1708
GlyphClass: 2
Flags: WO
HStem: 1405 20G<557 588>
LayerCount: 2
Fore
SplineSet
793 1127 m 6
 798 1118 800 1107 800 1096 c 7
 800 1067 785 1037 764 1023 c 4
 754 1016 740 1013 725 1013 c 7
 701 1013 674 1022 658 1039 c 6
 489 1250 l 6
 474 1268 467 1292 467 1317 c 7
 467 1354 482 1391 512 1410 c 4
 529 1421 548 1425 566 1425 c 7
 610 1425 653 1398 669 1366 c 6
 793 1127 l 6
EndSplineSet
EndChar

StartChar: a
Encoding: 97 97 64
Width: 922
VWidth: 1947
GlyphClass: 2
Flags: MW
LayerCount: 2
Fore
SplineSet
197 597 m 10
 161 427 l 18
 152 386 148 348 148 313 c 0
 148 157 231 67 354 67 c 10
 372 67 l 18
 552 67 671 201 719 427 c 10
 755 597 l 18
 765 645 771 690 771 730 c 0
 771 874 702 957 561 957 c 10
 543 957 l 18
 363 957 245 821 197 597 c 10
0 -25 m 1
 0 1064 l 1
 765 1064 l 1
 755 1024 l 1
 1022 1024 l 1
 922 274 l 1
 897 274 l 1
 833 -25 l 1
 0 -25 l 1
869.464 1136 m 17
 699.632 337 l 2
 661.369 156.984 690 92 909 91 c 9
EndSplineSet
EndChar

StartChar: b
Encoding: 98 98 65
Width: 922
VWidth: 2334
GlyphClass: 2
Flags: MW
LayerCount: 2
Fore
SplineSet
-76 0 m 1
 222 1400 l 1
 1220 1400 l 1
 911 -47 l 1
 199 -47 l 1
 202 0 l 1
 -76 0 l 1
398 1542 m 25
 44 -124 l 25
197 597 m 14
 161 427 l 22
 152 386 148 348 148 313 c 4
 148 157 231 67 354 67 c 14
 372 67 l 22
 552 67 671 201 719 427 c 14
 755 597 l 22
 765 645 771 690 771 730 c 4
 771 874 702 957 561 957 c 14
 543 957 l 22
 363 957 245 821 197 597 c 14
EndSplineSet
EndChar

StartChar: c
Encoding: 99 99 66
Width: 922
VWidth: 2334
GlyphClass: 2
Flags: MW
LayerCount: 2
Fore
SplineSet
783 798 m 1
 773 904 699 956 561 956 c 10
 543 956 l 18
 363 956 245 821 197 597 c 10
 161 427 l 18
 152.254 385.819 148.122 347.693 148.122 312.875 c 0
 148.122 156.615 231.333 67 354 67 c 10
 372 67 l 18
 508 67 603 118 659 220 c 1
EndSplineSet
EndChar

StartChar: d
Encoding: 100 100 67
Width: 922
VWidth: 1947
GlyphClass: 2
Flags: MW
LayerCount: 2
Fore
SplineSet
186 1400 m 1
 1108 1400 l 1
 804 -25 l 1
 533.6 -25 l 1
 523.096 -72 l 1
 -127.305 -72 l 1
 186 1400 l 1
962.775 1575 m 25
 569.334 -276 l 25
197 597 m 14
 161 427 l 22
 152.254 385.819 148.122 347.693 148.122 312.875 c 4
 148.122 156.615 231.333 67 354 67 c 14
 372 67 l 22
 552 67 671 201 719 427 c 14
 755 597 l 22
 765.391 645.491 770.627 689.858 770.627 729.614 c 4
 770.627 873.509 702.034 957 561 957 c 14
 543 957 l 22
 363 957 245 821 197 597 c 14
EndSplineSet
EndChar

StartChar: e
Encoding: 101 101 68
Width: 922
VWidth: 1947
GlyphClass: 2
Flags: MW
LayerCount: 2
Fore
SplineSet
189 561 m 25
 747 561 l 25
 774 687 l 18
 780.624 718.202 783.936 746.73 783.936 772.568 c 0
 783.936 894.96 709.624 957 561 957 c 10
 543 957 l 18
 363 957 254 866 216 687 c 10
 142 337 l 18
 135.081 304.888 131.624 275.671 131.624 249.334 c 0
 131.624 127.221 205.935 67 354 67 c 10
 372 67 l 18
 514 67 612 122 666 234 c 1
EndSplineSet
EndChar

StartChar: f
Encoding: 102 102 69
Width: 922
VWidth: 1947
GlyphClass: 2
Flags: MW
LayerCount: 2
Fore
SplineSet
955 1251 m 5
 934 1303 883 1336 817 1336 c 15
 704 1336 616 1252 594 1152 c 14
 319 -128 l 22
 293 -250 198 -312 96 -312 c 7
 41 -312 -20 -280 -43 -221 c 5
237 795 m 29
 829 795 l 29
EndSplineSet
EndChar

StartChar: g
Encoding: 103 103 70
Width: 922
VWidth: 2334
GlyphClass: 2
Flags: MW
LayerCount: 2
Fore
SplineSet
113.098 1059 m 1
 759.434 1059 l 1
 756 1024 l 1
 1029 1024 l 1
 716.261 -441 l 1
 54.2607 -441 l 1
 137.796 -48 l 1
 -119.016 -33 l 1
 113.098 1059 l 1
-0.491211 -294 m 25
 283.509 -294 l 18
 464.999 -294 588.257 -176.549 626.086 0 c 10
 865.213 1116 l 25
197 597 m 10
 161 427 l 18
 152 386 148 348 148 313 c 0
 148 157 231 67 354 67 c 10
 372 67 l 18
 552 67 671 201 719 427 c 10
 755 597 l 18
 765 645 771 690 771 730 c 0
 771 874 702 957 561 957 c 10
 543 957 l 18
 363 957 245 821 197 597 c 10
EndSplineSet
EndChar

StartChar: h
Encoding: 104 104 71
Width: 922
VWidth: 1947
GlyphClass: 2
Flags: MW
LayerCount: 2
Fore
SplineSet
186 1400 m 5
 1108 1400 l 5
 810 0 l 5
 -111 0 l 5
 186 1400 l 5
589.102 -183 m 25
 774 687 l 18
 780.631 718.201 783.936 746.73 783.936 772.568 c 0
 783.936 894.96 709.624 957 561 957 c 10
 543 957 l 18
 385 957 225 731 197 597 c 10
 179 513 l 25
397.763 1542 m 25
 33.6523 -171 l 25
EndSplineSet
EndChar

StartChar: k
Encoding: 107 107 74
Width: 922
VWidth: 1947
GlyphClass: 2
Flags: MW
LayerCount: 2
Fore
SplineSet
191 1425 m 5
 1113 1425 l 5
 810 0 l 5
 -112 0 l 5
 191 1425 l 5
753 -132 m 17
 540 105 l 2
 427.062 221.378 360.863 394.15 348 561 c 9
840.98 1002 m 17
 742.548 939 l 2
 660.009 886.172 586.227 823.076 522 755.39 c 2
 425.791 654 l 2
 276.679 496.857 177.909 322.077 110.81 192 c 9
429.646 1692 m 25
 34.29 -168 l 25
EndSplineSet
EndChar

StartChar: l
Encoding: 108 108 75
Width: 922
VWidth: 1947
GlyphClass: 2
Flags: MW
LayerCount: 2
Fore
SplineSet
373 1425 m 5
 930 1425 l 5
 627 0 l 5
 70 0 l 5
 373 1425 l 5
-70 92 m 29
 788 92 l 29
369 92 m 21
188 1308 m 29
 627 1308 l 29
 369 92 l 29
EndSplineSet
EndChar

StartChar: m
Encoding: 109 109 76
Width: 922
VWidth: 1947
GlyphClass: 2
Flags: MW
LayerCount: 2
Fore
SplineSet
111.183 1050 m 1
 1033.18 1050 l 1
 810 0 l 1
 -112 0 l 1
 111.183 1050 l 1
646.956 -99 m 25
 833 777 l 18
 838.756 804.103 841.545 827.68 841.545 848.05 c 0
 841.545 926.173 801.041 957 736 957 c 10
 726 957 l 18
 628 957 524 821 495 687 c 10
 477 603 l 25
327.956 -99 m 25
 514 777 l 18
 519.756 804.103 522.545 827.68 522.545 848.05 c 0
 522.545 926.173 482.041 957 417 957 c 10
 407 957 l 18
 309 957 205 821 176 687 c 10
 158 603 l 25
279 1164 m 25
 8.95605 -99 l 25
EndSplineSet
EndChar

StartChar: n
Encoding: 110 110 77
Width: 922
VWidth: 1947
GlyphClass: 2
Flags: W
LayerCount: 2
Fore
SplineSet
102 1024 m 5
 404.817 1024 l 5
 411 1049 l 5
 1033.18 1050 l 5
 810 0 l 5
 -112 0 l 5
 102 1024 l 5
594.203 -159 m 29
 774 687 l 22
 780.631 718.2 783.936 746.73 783.936 772.568 c 4
 783.936 894.96 709.624 957 561 957 c 14
 543 957 l 22
 385 957 225 731 197 597 c 14
 179 513 l 29
326.343 1206 m 29
 36.2031 -159 l 29
EndSplineSet
EndChar

StartChar: o
Encoding: 111 111 78
Width: 922
VWidth: 1947
GlyphClass: 2
Flags: MW
LayerCount: 2
Fore
SplineSet
197 597 m 14
 161 427 l 22
 152.254 385.819 148.122 347.693 148.122 312.875 c 4
 148.122 156.615 231.333 67 354 67 c 14
 372 67 l 22
 552 67 671 201 719 427 c 14
 755 597 l 22
 765.391 645.491 770.627 689.858 770.627 729.614 c 4
 770.627 873.509 702.034 957 561 957 c 14
 543 957 l 22
 363 957 245 821 197 597 c 14
EndSplineSet
EndChar

StartChar: p
Encoding: 112 112 79
Width: 922
VWidth: 1947
GlyphClass: 2
Flags: MW
LayerCount: 2
Fore
SplineSet
101 1024 m 5
 375 1024 l 5
 384.284 1074 l 5
 1038.28 1074 l 5
 728 -384 l 5
 -194 -384 l 5
 101 1024 l 5
197 597 m 10
 161 427 l 18
 152 386 148 348 148 313 c 0
 148 157 231 67 354 67 c 10
 372 67 l 18
 552 67 671 201 719 427 c 10
 755 597 l 18
 765 645 771 690 771 730 c 0
 771 874 702 957 561 957 c 10
 543 957 l 18
 363 957 245 821 197 597 c 10
318 1167 m 25
 -58 -600 l 25
EndSplineSet
EndChar

StartChar: q
Encoding: 113 113 80
Width: 922
VWidth: 1947
GlyphClass: 2
Flags: MW
LayerCount: 2
Fore
SplineSet
118.199 1083 m 5
 744.199 1083 l 5
 732 1024 l 5
 1026 1024 l 5
 728 -384 l 5
 -194 -384 l 5
 118.199 1083 l 5
885.618 1212 m 29
 511.306 -549 l 29
197 597 m 14
 161 427 l 22
 152.254 385.819 148.122 347.693 148.122 312.875 c 4
 148.122 156.615 231.333 67 354 67 c 14
 372 67 l 22
 552 67 671 201 719 427 c 14
 755 597 l 22
 765.391 645.491 770.627 689.858 770.627 729.614 c 4
 770.627 873.509 702.034 957 561 957 c 14
 543 957 l 22
 363 957 245 821 197 597 c 14
EndSplineSet
EndChar

StartChar: r
Encoding: 114 114 81
Width: 922
VWidth: 1947
GlyphClass: 2
Flags: MW
LayerCount: 2
Fore
SplineSet
101 1024 m 5
 399 1024 l 5
 408.284 1074 l 5
 1038.28 1074 l 5
 807.001 0 l 5
 -114.999 0 l 5
 101 1024 l 5
805 597 m 16
 815.079 644.432 821.995 693.974 821.995 740.831 c 0
 821.995 773.004 818.735 803.911 811 832 c 1
 791 905 739 957 631 957 c 10
 613 957 l 18
 433 957 218 694 170 470 c 10
 134 300 l 17
326.343 1206 m 25
 29.8262 -189 l 25
EndSplineSet
EndChar

StartChar: s
Encoding: 115 115 82
Width: 922
VWidth: 1947
GlyphClass: 2
Flags: MW
LayerCount: 2
Fore
SplineSet
774 687 m 21
 777.366 701.906 778.882 716.813 778.882 731.497 c 4
 778.882 747.35 777.115 762.945 774 778 c 5
 752 876 665 957 561 957 c 14
 543 957 l 22
 408 957 266 920 231 757 c 6
 228 745 l 6
 213.649 687.594 284.679 614.603 331.259 594 c 5
 570 486 l 6
 607.496 468.046 713.634 401.96 692 301 c 6
 689 287 l 6
 660 151 507 67 372 67 c 14
 324 67 l 22
 203.385 67 107.154 173.97 107.154 291.646 c 4
 107.154 306.656 108.719 321.841 112 337 c 12
EndSplineSet
EndChar

StartChar: t
Encoding: 116 116 83
Width: 922
VWidth: 1947
GlyphClass: 2
Flags: MW
LayerCount: 2
Fore
SplineSet
282 1425 m 5
 931 1425 l 5
 777.839 705 l 5
 959.839 705 l 5
 792 -84 l 5
 -39 -84 l 5
 282 1425 l 5
13 916 m 29
 943 916 l 29
678 247 m 21
 673 225 663 203 649 182 c 5
 606 119 527 67 459 67 c 14
 441 67 l 22
 362.536 67 295.474 136.166 295.474 213.535 c 4
 295.474 224.911 297.495 236.327 300 248 c 6
 570 1506 l 13
EndSplineSet
EndChar

StartChar: u
Encoding: 117 117 84
Width: 922
VWidth: 1947
GlyphClass: 2
Flags: MW
LayerCount: 2
Fore
SplineSet
101 1024 m 5
 1029 1024 l 5
 807.001 0 l 5
 535 0 l 5
 526.984 -33 l 5
 -119.015 -33 l 5
 101 1024 l 5
318.053 1167 m 25
 142 337 l 18
 134.186 300.16 130.086 267.05 130.086 237.692 c 0
 130.086 124.398 191.044 67 334 67 c 10
 352 67 l 18
 510 67 695 313 723 447 c 10
 741 531 l 25
584.638 -204 m 25
 876.053 1167 l 25
EndSplineSet
EndChar

StartChar: v
Encoding: 118 118 85
Width: 922
VWidth: 1947
GlyphClass: 2
Flags: MW
LayerCount: 2
Fore
SplineSet
106 1024 m 1
 1028 1024 l 1
 805 -25 l 1
 -117 -25 l 1
 106 1024 l 1
309 1308 m 17
 264.833 1005 l 2
 255.16 938.642 249.376 860.121 249.376 778.875 c 3
 249.376 688.275 256.568 594.286 273.581 510 c 2
 363 67 l 1
 559.161 513 l 2
 624.951 662.582 722.156 839.68 810.548 972 c 2
 1035 1308 l 9
EndSplineSet
EndChar

StartChar: w
Encoding: 119 119 86
Width: 922
VWidth: 1947
GlyphClass: 2
Flags: MW
LayerCount: 2
Fore
SplineSet
106 1024 m 5
 423 1024 l 5
 403 932 l 5
 696 932 l 5
 716 1024 l 5
 1028 1024 l 5
 810 0 l 5
 -112 0 l 5
 106 1024 l 5
218 1099 m 21
 187.238 918 l 6
 159.439 754.441 135.671 591.406 127.322 429 c 6
 110 92 l 5
 266.946 429 l 6
 306.99 514.984 357.012 597.161 414.567 675 c 6
 524 823 l 5
 525.676 669 l 6
 526.565 587.243 534.453 505.232 552.39 426 c 6
 628 92 l 5
 718.856 429 l 6
 763.507 594.615 814.703 759.301 878.154 921 c 6
 948 1099 l 13
EndSplineSet
EndChar

StartChar: x
Encoding: 120 120 87
Width: 922
VWidth: 1947
GlyphClass: 2
Flags: MW
LayerCount: 2
Fore
SplineSet
106 1024 m 5
 1028 1024 l 5
 810 0 l 5
 -112 0 l 5
 106 1024 l 5
951 1194 m 21
 729.657 855 l 6
 563.544 600.589 389.194 365.063 202.576 159 c 6
 -99 -174 l 13
229.242 1182 m 21
 669 -120 l 13
EndSplineSet
EndChar

StartChar: y
Encoding: 121 121 88
Width: 922
VWidth: 1947
GlyphClass: 2
Flags: MW
LayerCount: 2
Fore
SplineSet
-199 -410 m 5
 106 1024 l 5
 1028 1024 l 5
 723 -410 l 5
 -199 -410 l 5
998 1308 m 1
 373 -110 l 2
 328 -203 248 -294 150 -294 c 1
 77 -294 17 -240 4 -170 c 1
 2.11146 -161.029 1.11456 -151.836 1.11456 -142.42 c 0
 1.11456 -131.892 2.36068 -121.085 5 -110 c 9
475 126 m 1
 330.25 453.837 271.813 807.9 288 1239 c 9
EndSplineSet
EndChar

StartChar: z
Encoding: 122 122 89
Width: 922
VWidth: 1947
GlyphClass: 2
Flags: MW
LayerCount: 2
Fore
SplineSet
248 1049 m 5
 948 1049 l 5
 720 -25 l 5
 -30 -25 l 5
 121.788 690 l 5
 177.52 717 l 5
 248 1049 l 5
66 932 m 29
 826 932 l 29
 90 92 l 29
 760 92 l 29
EndSplineSet
EndChar

StartChar: braceleft
Encoding: 123 123 90
Width: 922
VWidth: 1947
GlyphClass: 2
Flags: MW
LayerCount: 2
Fore
SplineSet
-108 -410 m 5
 327 1638 l 5
 978.002 1638 l 5
 543 -410 l 5
 -108 -410 l 5
1053 1480 m 21
 823 1480 l 6
 673 1480 527.432 1359.91 495 1210 c 6
 450 1002 l 6
 420 862 315 732 163 732 c 6
 -17 732 l 5
 163 732 l 6
 287.199 732 343.298 645.205 343.298 537.08 c 4
 343.298 512.878 340.487 487.606 335 462 c 6
 278 190 l 6
 273.961 170.728 272.095 151.927 272.095 133.826 c 4
 272.095 11.1285 360.284 -80 491 -80 c 14
 721 -80 l 13
EndSplineSet
EndChar

StartChar: bar
Encoding: 124 124 91
Width: 922
VWidth: 1947
GlyphClass: 2
Flags: MW
LayerCount: 2
Fore
SplineSet
-39.5801 -78 m 5
 290.729 1476 l 5
 941.731 1476 l 5
 611.42 -78 l 5
 -39.5801 -78 l 5
296.9 -231 m 25
 692.066 1614 l 25
EndSplineSet
EndChar

StartChar: braceright
Encoding: 125 125 92
Width: 922
VWidth: 1947
GlyphClass: 2
Flags: MW
LayerCount: 2
Fore
SplineSet
-108 -410 m 5
 327 1638 l 5
 978.002 1638 l 5
 543 -410 l 5
 -108 -410 l 5
153 1480 m 21
 413 1480 l 6
 543.229 1480 631.247 1389.55 631.247 1267.54 c 4
 631.247 1249.02 629.147 1229.79 625 1210 c 6
 567.562 936 l 6
 562.127 910.641 559.351 885.61 559.351 861.621 c 4
 559.351 753.17 616.094 666 740.562 666 c 6
 951.562 666 l 5
 740.562 666 l 6
 588.562 666 482.562 536 452.562 396 c 6
 408 190 l 6
 375.615 40.292 231 -80 81 -80 c 14
 -179 -80 l 13
EndSplineSet
EndChar

StartChar: asciitilde
Encoding: 126 126 93
Width: 922
VWidth: 1947
GlyphClass: 2
Flags: MW
LayerCount: 2
Fore
SplineSet
197 800 m 21
 251 908 340 977 413 977 c 14
 428 977 l 22
 457 977 482 960 503 933 c 6
 577 841 l 6
 596 816 621 801 648 801 c 14
 663 801 l 22
 744 801 830 886 880 977 c 13
EndSplineSet
EndChar

StartChar: cent
Encoding: 162 162 96
Width: 922
VWidth: 1947
GlyphClass: 2
Flags: MW
LayerCount: 2
Fore
SplineSet
-135.595 -111 m 5
 142.428 1197 l 5
 1064.43 1197 l 5
 786.405 -111 l 5
 -135.595 -111 l 5
192 -252 m 25
 813 1359 l 25
783 798 m 1
 773 904 699 956 561 956 c 10
 543 956 l 18
 363 956 245 821 197 597 c 10
 161 427 l 18
 152.254 385.819 148.122 347.693 148.122 312.875 c 0
 148.122 156.615 231.333 67 354 67 c 10
 372 67 l 18
 508 67 603 118 659 220 c 1
EndSplineSet
EndChar

StartChar: sterling
Encoding: 163 163 97
Width: 922
VWidth: 1947
GlyphClass: 2
Flags: MW
LayerCount: 2
Fore
SplineSet
-195.595 -111 m 5
 -52.7571 561 l 5
 84.0693 579 l 5
 152.3 900 l 5
 22.4877 915 l 5
 144.92 1491 l 5
 1176.92 1491 l 5
 1054.49 915 l 5
 800.662 897 l 5
 728.605 558 l 5
 974.779 540 l 5
 836.405 -111 l 5
 -195.595 -111 l 5
27 699 m 21
 887 699 l 13
854 1063 m 21
 856.36 1077.75 857.502 1092.24 857.502 1106.37 c 4
 857.502 1140.12 850.984 1171.8 839 1200 c 5
 806 1280 731 1333 641 1333 c 14
 623 1333 l 22
 488 1333 324 1197 296 1063 c 14
 288 1024 l 22
 284.119 1006.01 282.354 987.515 282.354 968.745 c 4
 282.354 934.314 288.292 898.948 298 864 c 6
 352 678 l 6
 361.624 646.122 366.544 613.159 366.544 580.416 c 4
 366.544 558.721 364.384 537.122 360 516 c 14
 350 470 l 22
 315 305 144 142 26 75 c 6
 -11 54 l 5
 26 75 l 6
 143 142 197 156 283 156 c 14
 312 156 l 22
 346 156 373 146 393 131 c 6
 455 84 l 6
 470 74 487 67 507 67 c 14
 552 67 l 22
 616 67 700 108 741 147 c 13
EndSplineSet
EndChar

StartChar: euro
Encoding: 8364 8364 98
Width: 922
VWidth: 1947
GlyphClass: 2
Flags: MW
LayerCount: 2
Fore
SplineSet
747.196 314 m 1
 677.22 166.558 581.373 67 443 67 c 3
 291.773 67 242.802 184.873 242.802 348.514 c 0
 242.802 439.351 257.892 544.29 278.957 651 c 2
 299.332 747 l 2
 368.892 1053.24 478.882 1333 712 1333 c 3
 830.536 1333 886.889 1261.84 905.818 1152 c 1
621 565 m 25
 68 565 l 25
817 875 m 25
 164 875 l 25
EndSplineSet
EndChar

StartChar: yen
Encoding: 165 165 99
Width: 922
VWidth: 1947
GlyphClass: 2
Flags: MW
LayerCount: 2
Fore
SplineSet
-99 155 m 21
 893 155 l 13
-23 512 m 21
 969 512 l 13
186 1400 m 5
 1108 1400 l 5
 894.267 828 l 5
 684 -160 l 5
 -54 -160 l 5
 154.989 822 l 5
 186 1400 l 5
1029 1569 m 21
 458 513 l 5
 279.493 -327 l 13
333 1563 m 29
 458 513 l 29
EndSplineSet
EndChar

StartChar: section
Encoding: 167 167 101
Width: 922
VWidth: 1947
GlyphClass: 2
Flags: MW
LayerCount: 2
Fore
SplineSet
574 970 m 5
 463 1002 360 1092 360 1209 c 14
 360 1232 l 22
 360 1350 479 1472 599 1472 c 14
 615 1472 l 22
 705 1472 795 1403 834 1319 c 5
440 415 m 5
 534 382 614 283 614 187 c 14
 614 164 l 22
 614 39 494 -76 374 -76 c 14
 358 -76 l 22
 261 -76 165 -1 131 93 c 5
502 983 m 22
 639 983 774 844 774 710 c 14
 774 684 l 22
 774 542 639 411 502 411 c 14
 484 411 l 22
 347 411 212 543 212 684 c 14
 212 710 l 22
 212 844 347 983 484 983 c 14
 502 983 l 22
EndSplineSet
EndChar

StartChar: copyright
Encoding: 169 169 103
Width: 922
VWidth: 1947
GlyphClass: 2
Flags: MW
LayerCount: 2
Fore
SplineSet
461 1004 m 3
 723 1004 857 821 857 608 c 3
 857 402 723 211 461 211 c 3
 202 211 65 395 65 608 c 3
 65 825 206 1004 461 1004 c 3
607 468 m 1
 574 432 525 409 461 409 c 3
 332 409 263 501 263 608 c 3
 263 716 333 806 461 806 c 3
 525 806 573 784 606 750 c 1
EndSplineSet
EndChar

StartChar: ordfeminine
Encoding: 170 170 104
Width: 922
VWidth: 1947
GlyphClass: 2
Flags: MW
LayerCount: 2
Fore
SplineSet
-45.5947 -111 m 5
 83.2148 495 l 5
 -3.59727 510 l 5
 217.674 1551 l 5
 1139.67 1551 l 5
 924.497 538.67 l 5
 604.499 538.668 l 5
 579.842 422.667 l 5
 809.84 422.667 l 5
 696.405 -111 l 5
 -45.5947 -111 l 5
-94 319 m 21
 878 319 l 13
801 1013 m 25
 557 1013 l 18
 404 1013 303 897 287 822 c 10
 278 783 l 18
 276.169 774.3 275.228 765.103 275.228 755.636 c 0
 275.228 682.395 331.514 593 467 593 c 10
 483 593 l 18
 597 593 744 745 761 822 c 9
394 1234 m 1
 442 1311 520 1349 628 1349 c 10
 643 1349 l 18
 769.416 1349 832.343 1296.43 832.343 1192.43 c 0
 832.343 1170.56 829.576 1146.39 824 1120 c 10
 686.661 469.991 l 25
EndSplineSet
EndChar

StartChar: guillemotleft
Encoding: 171 171 105
Width: 922
VWidth: 1947
GlyphClass: 2
Flags: MW
LayerCount: 2
Fore
SplineSet
693 156 m 29
 570 425 l 29
 589 512 l 29
 826 782 l 29
273 156 m 29
 150 425 l 29
 169 512 l 29
 406 782 l 29
EndSplineSet
EndChar

StartChar: logicalnot
Encoding: 172 172 106
Width: 922
VWidth: 1947
GlyphClass: 2
Flags: MW
LayerCount: 2
Fore
SplineSet
-9.71094 246 m 5
 192.428 1197 l 5
 1064.43 1197 l 5
 862.289 246 l 5
 -9.71094 246 l 5
-44 600 m 25
 756 600 l 25
 634.376 30 l 25
EndSplineSet
EndChar

StartChar: softhyphen
Encoding: 173 173 107
Width: 922
VWidth: 1947
GlyphClass: 2
Flags: MW
LayerCount: 2
Fore
SplineSet
222 600 m 29
 700 600 l 29
EndSplineSet
EndChar

StartChar: registered
Encoding: 174 174 108
Width: 922
VWidth: 1947
GlyphClass: 2
Flags: MW
LayerCount: 2
Fore
SplineSet
630 388 m 25
 472 613 l 25
334 614 m 25
 476 614 l 2
 565 614 610 644 610 704 c 2
 610 739 l 2
 610 798 570 820 476 820 c 2
 334 820 l 1
 334 388 l 1
461 1004 m 3
 723 1004 857 821 857 608 c 3
 857 402 723 211 461 211 c 3
 202 211 65 395 65 608 c 3
 65 825 206 1004 461 1004 c 3
EndSplineSet
EndChar

StartChar: degree
Encoding: 176 176 110
Width: 922
VWidth: 1947
GlyphClass: 2
Flags: MW
LayerCount: 2
Fore
SplineSet
601 1333 m 7
 750 1333 826 1229 826 1108 c 7
 826 991 750 882 601 882 c 7
 454 882 376 987 376 1108 c 7
 376 1231 456 1333 601 1333 c 7
EndSplineSet
EndChar

StartChar: plusminus
Encoding: 177 177 111
Width: 922
VWidth: 1947
GlyphClass: 2
Flags: MW
LayerCount: 2
Fore
SplineSet
-32 140 m 25
 790 140 l 25
438 419 m 25
 613 1241 l 25
114 830 m 25
 936 830 l 25
EndSplineSet
EndChar

StartChar: twosuperior
Encoding: 178 178 112
Width: 922
VWidth: 2334
GlyphClass: 2
Flags: MW
LayerCount: 2
Fore
SplineSet
484 1232 m 1
 523 1292 563 1333 648 1333 c 10
 658 1333 l 18
 739.675 1333 780.513 1298.97 780.513 1232.03 c 0
 780.513 1217.83 778.675 1202.15 775 1185 c 10
 770 1163 l 18
 763 1131 736 1093 697 1052 c 2
 463 811 l 2
 417 764 382 707 354 650 c 1
 822 650 l 9
113 -25 m 1
 432 1479 l 1
 1124 1479 l 1
 979.56 798 l 1
 742.332 787.5 l 1
 570 -25 l 1
 113 -25 l 1
EndSplineSet
EndChar

StartChar: threesuperior
Encoding: 179 179 113
Width: 922
VWidth: 2334
GlyphClass: 2
Flags: MW
LayerCount: 2
Fore
SplineSet
439 1232 m 1
 477 1290 535 1328 605 1328 c 10
 617 1328 l 18
 693.181 1328 757.857 1281.84 757.857 1215.24 c 3
 757.857 1204.03 756.593 1192.24 754 1180 c 10
 749 1157 l 18
 737 1097 661 1022 573 1022 c 1
 461 1022 l 9
 572 1022 l 18
 668.493 1022 715.673 973.345 715.673 888.829 c 3
 715.673 869.116 713.107 847.453 708 824 c 10
 706 813 l 18
 680 692 618 632 499 632 c 10
 487 632 l 18
 415.228 632 327.823 671.439 327.823 751.038 c 0
 327.823 760.164 328.84 769.817 331 780 c 1
EndSplineSet
EndChar

StartChar: micro
Encoding: 181 181 115
Width: 922
VWidth: 2334
GlyphClass: 2
Flags: MW
LayerCount: 2
Fore
SplineSet
-186 -349 m 5
 105 1024 l 5
 1026 1024 l 5
 801.072 -42 l 5
 531.101 -42 l 5
 464.988 -349 l 5
 -186 -349 l 5
-183 -564 m 17
 -30 -375 21.1972 -231.063 65 -25 c 10
 180 516 l 25
343.561 1287 m 25
 154 397 l 18
 146.647 362.478 142.913 328.991 142.913 297.432 c 3
 142.913 165.368 208.718 67 354 67 c 10
 372 67 l 18
 530 67 684 263 712 397 c 10
 741 531 l 25
671.536 -228 m 0
 652.628 -174.227 640.324 -95.4803 640.324 -15.5857 c 3
 640.324 29.3239 644.212 74.5963 653 116 c 2
 901.561 1287 l 9
EndSplineSet
EndChar

StartChar: paragraph
Encoding: 182 182 116
Width: 922
VWidth: 2334
GlyphClass: 2
Flags: MW
LayerCount: 2
Fore
SplineSet
-115 0 m 5
 229 1602 l 5
 1151 1602 l 5
 808 0 l 5
 -115 0 l 5
351 890 m 29
 426 1240 l 29
587 -195 m 29
 926 1400 l 29
 566 1400 l 29
423 727 m 29
 405 727 l 6
 332 727 249 771 249 926 c 4
 249 963 254 1006 265 1057 c 6
 273 1095 l 6
 312 1281 453 1400 548 1400 c 6
 566 1400 l 5
 227 -195 l 5
EndSplineSet
EndChar

StartChar: periodcentered
Encoding: 183 183 117
Width: 922
VWidth: 1947
GlyphClass: 2
Flags: MW
LayerCount: 2
Fore
SplineSet
642 747 m 4
 642 678 589 617 512 617 c 4
 438 617 383 677 383 747 c 4
 383 815 434 877 512 877 c 4
 588 877 642 817 642 747 c 4
EndSplineSet
EndChar

StartChar: onesuperior
Encoding: 185 185 119
Width: 922
VWidth: 1708
GlyphClass: 2
Flags: MW
LayerCount: 2
Fore
SplineSet
220 825 m 5
 475 1045 l 5
 497 1148 l 5
 457 1204 l 5
 696 1425 l 5
 956 1425 l 5
 791 641 l 5
 183 641 l 5
 220 825 l 5
510 470 m 29
 706 1374 l 29
 391 1172 l 29
EndSplineSet
EndChar

StartChar: ordmasculine
Encoding: 186 186 120
Width: 922
VWidth: 1947
GlyphClass: 2
Flags: MW
LayerCount: 2
Fore
SplineSet
-45.5947 -111 m 1
 83.2148 495 l 1
 -3.59727 510 l 1
 217.674 1551 l 1
 1139.67 1551 l 1
 924.497 538.67 l 1
 834.499 538.668 l 1
 696.405 -111 l 1
 -45.5947 -111 l 1
-94 319 m 17
 878 319 l 9
637 1353 m 3
 768.812 1353 822.539 1272.2 822.539 1138.96 c 3
 822.539 1091.26 815.654 1036.84 803 977 c 0
 754 748 655 598 476 598 c 3
 344.674 598 290.858 678.74 290.858 812.182 c 3
 290.858 860.623 297.95 916.01 311 977 c 0
 359 1204 458 1353 637 1353 c 3
EndSplineSet
EndChar

StartChar: guillemotright
Encoding: 187 187 121
Width: 922
VWidth: 1947
GlyphClass: 2
Flags: MW
LayerCount: 2
Fore
SplineSet
71 156 m 25
 308 425 l 25
 327 512 l 25
 204 782 l 25
491 156 m 25
 728 425 l 25
 747 512 l 25
 624 782 l 25
EndSplineSet
EndChar

StartChar: OE
Encoding: 338 338 122
Width: 922
VWidth: 1947
GlyphClass: 2
Flags: MW
LayerCount: 2
Fore
SplineSet
-188 -96 m 1
 129 1425 l 1
 1013 1425 l 1
 913.488 957 l 1
 856.661 939 l 1
 769.907 531 l 1
 819.08 513 l 1
 690 -96 l 1
 -188 -96 l 1
869 92 m 17
 429 92 l 1
 468 276 l 1
 648 1124 l 2
 687 1308 l 1
 1127 1308 l 1
954 732 m 1
 565 732 l 1
228 1124 m 2
 248 1216 348 1308 451 1308 c 2
 507 1308 l 2
 587.875 1308 651.748 1241.54 651.748 1158.9 c 0
 651.748 1147.53 650.539 1135.85 648 1124 c 2
 468 276 l 2
 448 182 341 92 249 92 c 2
 193 92 l 2
 102.969 92 44.2635 162.29 44.2635 241.431 c 0
 44.2635 252.832 45.4817 264.416 48 276 c 10
 228 1124 l 2
EndSplineSet
EndChar

StartChar: oe
Encoding: 339 339 123
Width: 922
VWidth: 1947
GlyphClass: 2
Flags: MW
LayerCount: 2
Fore
SplineSet
762 251 m 0
 740 147 640 67 543 67 c 3
 461.808 67 398.529 133.981 398.529 217.079 c 0
 398.529 228.14 399.65 239.487 402 251 c 2
 513 773 l 2
 533 867 640 957 732 957 c 3
 817.497 957 877.637 898.08 877.637 814.377 c 0
 877.637 801.158 876.137 787.321 873 773 c 10
 824 542 l 1
 464 542 l 1
153 773 m 2
 175 876 275 957 372 957 c 3
 452.875 957 516.748 890.542 516.748 807.896 c 0
 516.748 796.527 515.539 784.851 513 773 c 2
 402 251 l 2
 382 157 275 67 183 67 c 3
 97.1833 67 37.6658 126.361 37.6658 210.561 c 0
 37.6658 223.496 39.0704 237.018 42 251 c 10
 153 773 l 2
EndSplineSet
EndChar

StartChar: AE
Encoding: 198 198 132
Width: 922
VWidth: 1947
GlyphClass: 2
Flags: MW
LayerCount: 2
Fore
SplineSet
-112 0 m 5
 189 1425 l 5
 1013 1425 l 5
 913.488 957 l 5
 856.661 939 l 5
 769.907 531 l 5
 819.08 513 l 5
 690 -96 l 5
 175 -96 l 5
 174 0 l 5
 -112 0 l 5
-96 -201 m 17
 394 1136 l 2
 428.397 1229.86 520 1308 628 1308 c 10
 687 1308 l 25
969 92 m 17
 429 92 l 1
 687 1308 l 1
 1227 1308 l 1
1054 732 m 1
 245 732 l 1
EndSplineSet
EndChar

StartChar: Eth
Encoding: 208 208 142
Width: 922
VWidth: 1947
GlyphClass: 2
Flags: MW
LayerCount: 2
Fore
SplineSet
-80.1162 -57 m 1
 277 1638 l 1
 1269 1638 l 1
 911.884 -57 l 1
 -80.1162 -57 l 1
-79 756 m 25
 501 756 l 25
627 1308 m 2
 780.759 1308 831.827 1197.95 831.827 1036.7 c 0
 831.827 938.917 813.047 822.308 787 700 c 0
 716 369 610 92 369 92 c 2
 130 92 l 1
 388 1308 l 1
 627 1308 l 2
EndSplineSet
EndChar

StartChar: multiply
Encoding: 215 215 149
Width: 922
VWidth: 1708
GlyphClass: 2
Flags: MW
LayerCount: 2
Fore
SplineSet
706 309 m 29
 247 891 l 29
124 309 m 29
 829 891 l 29
EndSplineSet
EndChar

StartChar: Thorn
Encoding: 222 222 156
Width: 922
VWidth: 1947
GlyphClass: 2
Flags: MW
LayerCount: 2
Fore
SplineSet
-114 0 m 5
 213 1538 l 5
 1249 1538 l 5
 922 0 l 5
 -114 0 l 5
165 445 m 25
 453 445 l 2
 633 445 742 534 780 715 c 2
 831 953 l 2
 837.778 984.929 841.216 1013.26 841.216 1038.27 c 0
 841.216 1153.45 768.287 1198 613 1198 c 2
 325 1198 l 1
425.183 1671 m 1
 40.0293 -141 l 1
EndSplineSet
EndChar

StartChar: germandbls
Encoding: 223 223 157
Width: 922
VWidth: 1947
GlyphClass: 2
Flags: MW
LayerCount: 2
Fore
SplineSet
-194.261 -387 m 5
 213 1538 l 5
 1249 1538 l 5
 841.739 -387 l 5
 -194.261 -387 l 5
-52.4326 -576 m 5
 296 1064 l 6
 333.825 1242.04 443 1333 623 1333 c 6
 641 1333 l 6
 753.589 1333 815.085 1274.15 815.085 1158 c 7
 815.085 1129.72 811.44 1098.05 804 1063 c 6
 796 1025 l 6
 757 844 648 755 468 755 c 6
 450 755 l 29
 518 755 l 22
 666.624 755 740.936 692.96 740.936 570.568 c 4
 740.936 544.73 737.624 516.202 731 485 c 14
 700 337 l 22
 661 156 552 67 417 67 c 6
 409 67 l 6
 354 67 317 78 286 114 c 5
EndSplineSet
EndChar

StartChar: ae
Encoding: 230 230 164
Width: 922
VWidth: 1947
GlyphClass: 2
Flags: MW
LayerCount: 2
Fore
SplineSet
762 251 m 4
 740 147 640 67 543 67 c 7
 461.808 67 398.529 133.981 398.529 217.079 c 4
 398.529 228.14 399.65 239.487 402 251 c 6
 513 773 l 6
 533 867 640 957 732 957 c 7
 817.497 957 877.637 898.08 877.637 814.377 c 4
 877.637 801.158 876.137 787.321 873 773 c 14
 824 542 l 5
 288 542 l 6
 185 542 87 461 65 358 c 6
 42 251 l 22
 39.0704 237.018 37.6658 223.496 37.6658 210.561 c 4
 37.6658 126.361 97.1833 67 183 67 c 7
 275 67 382 157 402 251 c 6
 513 773 l 6
 515.539 784.851 516.748 796.527 516.748 807.896 c 4
 516.748 890.542 452.875 957 372 957 c 7
 276 957 175 876 153 773 c 4
EndSplineSet
EndChar

StartChar: eth
Encoding: 240 240 174
Width: 922
VWidth: 1947
GlyphClass: 2
Flags: W
VStem: 182 558<220.939 427 497 723.211>
LayerCount: 2
Fore
SplineSet
305 1099 m 25
 937 1322 l 25
719 430 m 25
 760 620 l 18
 768.354 659.58 772.226 700.172 772.226 741.22 c 0
 772.226 999.893 618.485 1276.65 464 1432 c 9
167 457 m 10
 161 427 l 18
 152.254 385.819 148.122 347.693 148.122 312.875 c 0
 148.122 156.615 231.333 67 354 67 c 10
 372 67 l 18
 552 67 671 201 719 427 c 10
 725 457 l 18
 735.464 505.833 740.748 550.483 740.748 590.454 c 0
 740.748 733.833 672.759 817 532 817 c 10
 514 817 l 18
 334 817 215 681 167 457 c 10
EndSplineSet
EndChar

StartChar: divide
Encoding: 247 247 181
Width: 922
VWidth: 1947
GlyphClass: 2
Flags: MW
LayerCount: 2
Fore
SplineSet
66 600 m 25
 884 600 l 25
698 960 m 0
 698 890 638 813 554 813 c 0
 462 813 406 897 406 960 c 0
 406 1023 462 1107 554 1107 c 0
 638 1107 698 1030 698 960 c 0
545 243 m 0
 545 170 486 96 401 96 c 0
 317 96 253 173 253 243 c 0
 253 308 314 387 401 387 c 0
 488 387 545 308 545 243 c 0
EndSplineSet
EndChar

StartChar: oslash
Encoding: 248 248 182
Width: 922
VWidth: 1947
GlyphClass: 2
Flags: MW
LayerCount: 2
Fore
SplineSet
197 597 m 14
 161 427 l 22
 152.254 385.819 148.122 347.693 148.122 312.875 c 4
 148.122 156.615 231.333 67 354 67 c 14
 372 67 l 22
 552 67 671 201 719 427 c 14
 755 597 l 22
 765.391 645.491 770.627 689.858 770.627 729.614 c 4
 770.627 873.509 702.034 957 561 957 c 14
 543 957 l 22
 363 957 245 821 197 597 c 14
22 -48 m 25
 897 1062 l 25
EndSplineSet
EndChar

StartChar: thorn
Encoding: 254 254 188
Width: 922
VWidth: 1947
GlyphClass: 2
Flags: MW
LayerCount: 2
Fore
SplineSet
197 597 m 10
 161 427 l 18
 152.254 385.819 148.122 347.693 148.122 312.875 c 0
 148.122 156.615 231.333 67 354 67 c 10
 372 67 l 18
 552 67 671 201 719 427 c 10
 755 597 l 18
 765.391 645.491 770.627 689.858 770.627 729.614 c 0
 770.627 873.509 702.034 957 561 957 c 10
 543 957 l 18
 363 957 245 821 197 597 c 10
-194 -383 m 5
 183 1400 l 5
 1201 1400 l 5
 824 -383 l 5
 -194 -383 l 5
-51.1572 -570 m 25
 414.979 1623 l 25
EndSplineSet
EndChar

StartChar: minus
Encoding: 8722 8722 190
Width: 922
VWidth: 1708
GlyphClass: 2
Flags: MW
LayerCount: 2
Fore
SplineSet
50 600 m 25
 872 600 l 25
EndSplineSet
EndChar

StartChar: quoteleft
Encoding: 8216 8216 192
Width: 922
VWidth: 1947
GlyphClass: 2
Flags: W
HStem: 1346.92 76.4844<705.276 804.119>
LayerCount: 2
Fore
SplineSet
808.031 1346.92 m 17
 730.857 1336.08 609.279 1282.94 689.676 1176.81 c 9
 458.832 1125.69 l 17
 486.221 1253.8 541.975 1450.5 804.119 1423.41 c 9
 808.031 1346.92 l 17
584.973 969 m 0
 414.506 969 414.24 1229 584.707 1229 c 0
 658.375 1229 714.465 1169.35 714.34 1099 c 0
 713.793 1031 662.973 969 584.973 969 c 0
EndSplineSet
EndChar

StartChar: gravemodifier
Encoding: 715 715 193
Width: 922
VWidth: 2334
GlyphClass: 2
Flags: MW
LayerCount: 2
Fore
SplineSet
630 1647 m 29
 784 1438 l 29
EndSplineSet
EndChar

StartChar: acute
Encoding: 180 180 194
Width: 922
VWidth: 1947
GlyphClass: 2
Flags: MW
LayerCount: 2
Fore
SplineSet
786 1587 m 29
 528 1308 l 29
EndSplineSet
EndChar

StartChar: circumflex
Encoding: 710 710 195
Width: 922
VWidth: 1947
GlyphClass: 2
Flags: MW
LayerCount: 2
Fore
SplineSet
459 1460 m 29
 689 1600 l 29
 859 1460 l 29
37 700 m 5
 236 1638 l 5
 1158 1638 l 5
 959 700 l 5
 37 700 l 5
EndSplineSet
EndChar

StartChar: tilde
Encoding: 732 732 196
Width: 922
VWidth: 1947
GlyphClass: 2
Flags: MW
LayerCount: 2
Fore
SplineSet
389 1502 m 17
 415 1528 l 2
 458 1571 506 1612 575 1612 c 10
 591 1612 l 18
 626 1612 656 1595 674 1576 c 2
 689 1559 l 2
 707 1539 737 1522 773 1522 c 10
 790 1522 l 18
 860 1522 908 1562 953 1609 c 2
 975 1632 l 9
EndSplineSet
EndChar

StartChar: macronmodifier
Encoding: 713 713 197
Width: 922
VWidth: 1947
GlyphClass: 2
Flags: MW
LayerCount: 2
Fore
SplineSet
907 1538 m 1
 454 1538 l 1
EndSplineSet
EndChar

StartChar: breve
Encoding: 728 728 198
Width: 922
VWidth: 1947
GlyphClass: 2
Flags: MW
LayerCount: 2
Fore
SplineSet
919 1593 m 4
 845 1523 753 1480 661 1480 c 7
 570 1480 498 1523 455 1592 c 4
EndSplineSet
EndChar

StartChar: dotaccent
Encoding: 729 729 199
Width: 922
VWidth: 1947
GlyphClass: 2
Flags: W
HStem: 1407 239<364.103 548.84>
VStem: 337 239<1434.63 1619.37>
LayerCount: 2
Fore
SplineSet
555 1527 m 31
 555 1593 607 1647 674 1647 c 31
 740 1647 795 1593 795 1527 c 31
 795 1461 740 1407 674 1407 c 31
 607 1407 555 1461 555 1527 c 31
EndSplineSet
EndChar

StartChar: dieresis
Encoding: 168 168 200
Width: 922
VWidth: 1947
GlyphClass: 2
Flags: MW
LayerCount: 2
Fore
SplineSet
526 1545 m 4
 526 1482 475 1426 413 1426 c 4
 352 1426 299 1479 299 1545 c 4
 299 1615 355 1660 412 1660 c 4
 477 1660 526 1606 526 1545 c 4
902 1545 m 4
 902 1476 847 1426 790 1426 c 4
 730 1426 677 1480 677 1545 c 4
 677 1611 730 1660 790 1660 c 4
 845 1660 902 1615 902 1545 c 4
EndSplineSet
EndChar

StartChar: ring
Encoding: 730 730 202
Width: 922
VWidth: 1947
GlyphClass: 2
Flags: MW
LayerCount: 2
Fore
SplineSet
448 1425 m 31
 448 1537 536 1627 648 1627 c 31
 760 1627 852 1537 852 1425 c 31
 852 1313 760 1223 648 1223 c 31
 536 1223 448 1313 448 1425 c 31
558 1425 m 31
 558 1374 598 1333 649 1333 c 31
 700 1333 742 1374 742 1425 c 31
 742 1476 700 1517 649 1517 c 31
 598 1517 558 1476 558 1425 c 31
EndSplineSet
EndChar

StartChar: cedilla
Encoding: 184 184 203
Width: 922
VWidth: 1947
GlyphClass: 2
Flags: MW
LayerCount: 2
Fore
SplineSet
386 88 m 21
 386 0 l 5
 349 -132 l 5
 471.915 -132 521.117 -176.836 521.117 -240.671 c 7
 521.117 -337.391 418.743 -411 302 -411 c 31
 223.85 -411 159 -379 117 -334 c 13
EndSplineSet
EndChar

StartChar: ogonek
Encoding: 731 731 204
Width: 922
VWidth: 1947
GlyphClass: 2
Flags: MW
LayerCount: 2
Fore
SplineSet
433 -290 m 5
 401 -314 l 6
 374.44 -333.92 342 -345 310 -345 c 7
 249.095 -345 207.115 -301.092 207.115 -242.917 c 4
 207.115 -189.339 240.583 -146.799 265 -126 c 14
 418 0 l 29
 433 72 l 29
EndSplineSet
EndChar

StartChar: caron
Encoding: 711 711 205
Width: 922
VWidth: 1947
GlyphClass: 2
Flags: MW
LayerCount: 2
Fore
SplineSet
489 1600 m 29
 659 1460 l 29
 889 1600 l 29
190 1422 m 5
 257 1736 l 5
 1179 1736 l 5
 1112 1422 l 5
 190 1422 l 5
EndSplineSet
EndChar

StartChar: dotlessi
Encoding: 305 305 206
Width: 922
VWidth: 1947
GlyphClass: 2
Flags: W
LayerCount: 2
Fore
SplineSet
64 -25 m 1
 367 1400 l 1
 925 1400 l 1
 622 -25 l 1
 64 -25 l 1
-30 92 m 25
 768 92 l 25
369 92 m 17
148 932 m 25
 547 932 l 25
 369 92 l 25
EndSplineSet
EndChar

StartChar: currency
Encoding: 164 164 210
Width: 922
VWidth: 1947
GlyphClass: 2
Flags: MW
LayerCount: 2
Fore
SplineSet
772 398 m 17
 619 586 l 1
303 978 m 1
 150 1166 l 9
77 471 m 17
 266 624 l 1
657 940 m 1
 845 1093 l 9
469 1039 m 22
 591 1039 712 916 712 796 c 14
 712 772 l 22
 712 645 591 529 469 529 c 14
 453 529 l 22
 331 529 210 646 210 772 c 14
 210 796 l 22
 210 916 331 1039 453 1039 c 14
 469 1039 l 22
EndSplineSet
EndChar

StartChar: brokenbar
Encoding: 166 166 211
Width: 922
VWidth: 1947
GlyphClass: 2
Flags: MW
LayerCount: 2
Fore
SplineSet
-38.9434 -75 m 5
 104.527 600 l 5
 755.529 600 l 5
 612.057 -75 l 5
 -38.9434 -75 l 5
147.258 801 m 5
 290.729 1476 l 5
 941.731 1476 l 5
 798.258 801 l 5
 147.258 801 l 5
296.263 -234 m 21
 690.153 1605 l 5
EndSplineSet
EndChar

StartChar: onequarter
Encoding: 188 188 212
Width: 922
VWidth: 1708
GlyphClass: 2
Flags: MW
LayerCount: 2
Fore
SplineSet
487 574 m 5
 895 574 l 5
 729 -209 l 5
 320 -209 l 5
 487 574 l 5
594 -339 m 29
 777 525 l 29
 392 25 l 29
 957 25 l 29
-62 955 m 1
 193 1175 l 1
 235.618 1212 l 1
 175 1334 l 1
 414 1555 l 1
 674 1555 l 1
 503.944 776 l 1
 -104.056 776 l 1
 -62 955 l 1
246 645 m 25
 424 1504 l 25
 109 1302 l 25
65 -25 m 25
 931 1425 l 25
EndSplineSet
EndChar

StartChar: onehalf
Encoding: 189 189 213
Width: 922
VWidth: 1708
GlyphClass: 2
Flags: MW
LayerCount: 2
Fore
SplineSet
-62 955 m 5
 193 1175 l 5
 235.618 1212 l 5
 175 1334 l 5
 414 1555 l 5
 674 1555 l 5
 503.944 776 l 5
 -104.056 776 l 5
 -62 955 l 5
246 645 m 29
 424 1504 l 29
 109 1302 l 29
498 372 m 5
 537 432 578 473 663 473 c 14
 673 473 l 22
 754.434 473 794.595 439.169 794.595 372.621 c 4
 794.595 358.266 792.726 342.388 789 325 c 14
 784 303 l 22
 778 271 751 233 711 192 c 6
 478 -49 l 6
 432 -96 396 -153 368 -210 c 5
 896 -210 l 13
272 -345 m 5
 477 619 l 5
 1053 619 l 5
 911.797 -45 l 5
 757.969 -63 l 5
 698 -345 l 5
 272 -345 l 5
65 -25 m 29
 931 1425 l 29
EndSplineSet
EndChar

StartChar: threequarters
Encoding: 190 190 214
Width: 922
VWidth: 1708
GlyphClass: 2
Flags: MW
LayerCount: 2
Fore
SplineSet
487 574 m 1
 895 574 l 1
 729 -209 l 1
 320 -209 l 1
 487 574 l 1
594 -339 m 25
 777 525 l 25
 392 25 l 25
 957 25 l 25
278 1432 m 1
 314 1490 376 1528 438 1528 c 10
 449 1528 l 18
 516.271 1528 565.259 1483.45 565.259 1418.73 c 0
 565.259 1406.49 563.864 1393.52 561 1380 c 10
 556 1357 l 18
 544 1297 474 1222 395 1222 c 1
 294 1222 l 9
 394 1222 l 18
 478.917 1222 520.376 1175.39 520.376 1094.17 c 0
 520.376 1073.05 517.572 1049.59 512 1024 c 10
 510 1013 l 18
 484 892 428 832 321 832 c 10
 310 832 l 18
 246.445 832 168.215 870.18 168.215 947.226 c 0
65 -25 m 25
 931 1425 l 25
EndSplineSet
EndChar

StartChar: Lslash
Encoding: 321 321 216
Width: 922
VWidth: 1947
GlyphClass: 2
Flags: MW
LayerCount: 2
Fore
SplineSet
-186 0 m 1
 115 1400 l 1
 1018 1400 l 1
 717 0 l 1
 -186 0 l 1
37 512 m 29
 678 698 l 29
402.863 1566 m 25
 90 93 l 25
 870 93 l 25
EndSplineSet
EndChar

StartChar: lslash
Encoding: 322 322 257
Width: 922
VWidth: 1947
GlyphClass: 2
Flags: MW
LayerCount: 2
Fore
SplineSet
157 512 m 25
 798 698 l 25
373 1425 m 1
 930 1425 l 1
 830.276 956 l 1
 997.725 944 l 1
 862.49 308 l 1
 689.088 292 l 1
 627 0 l 1
 70 0 l 1
 132.088 292 l 1
 -25.3604 304 l 1
 109.874 940 l 1
 273.276 956 l 1
 373 1425 l 1
-70 92 m 25
 788 92 l 25
369 92 m 17
188 1308 m 25
 627 1308 l 25
 369 92 l 25
EndSplineSet
EndChar

StartChar: dotlessj
Encoding: 567 567 260
Width: 922
VWidth: 1947
GlyphClass: 2
Flags: MW
LayerCount: 2
Fore
SplineSet
-208.926 -456 m 1
 -3.76431 508 l 1
 267.492 528 l 1
 453.074 1400 l 1
 1220 1400 l 1
 825 -456 l 1
 -208.926 -456 l 1
153.015 -146.905 m 0
 153.015 -228.617 213.062 -294 302 -294 c 11
 414.753 -294 499.275 -230.744 525 -110 c 2
 746 932 l 25
 203 932 l 25
EndSplineSet
EndChar

StartChar: eng
Encoding: 331 331 261
Width: 922
VWidth: 2334
GlyphClass: 2
Flags: MW
LayerCount: 2
Fore
SplineSet
-201 -410 m 5
 -141.918 -140.75 l 5
 180 -144 l 5
 238 0 l 5
 -112 0 l 5
 109.996 1022 l 5
 384.996 1022 l 5
 398 1072 l 5
 1156 1072 l 5
 837 -410 l 5
 -201 -410 l 5
170 -228 m 1
 195 -271 244 -294 301 -294 c 10
 352 -294 l 18
 486 -294 592 -170 622 -28 c 10
 774 687 l 18
 780.624 718.202 783.936 746.73 783.936 772.568 c 0
 783.936 894.96 709.624 957 561 957 c 10
 543 957 l 18
 385 957 225 731 197 597 c 10
 179 513 l 25
341.225 1276 m 25
 53.8457 -76 l 25
EndSplineSet
EndChar

StartChar: ellipsis
Encoding: 8230 8230 266
Width: 922
VWidth: 1947
GlyphClass: 2
Flags: MW
LayerCount: 2
Fore
SplineSet
864 113 m 0
 864 61 823 12 768 12 c 0
 715 12 673 59 673 113 c 0
 673 165 714 213 768 213 c 0
 824 213 864 162 864 113 c 0
248 113 m 0
 248 61 208 12 153 12 c 0
 99 12 58 59 58 113 c 0
 58 165 98 213 153 213 c 0
 208 213 248 162 248 113 c 0
556 113 m 0
 556 61 515 12 460 12 c 0
 407 12 366 59 366 113 c 0
 366 165 406 213 460 213 c 0
 516 213 556 162 556 113 c 0
EndSplineSet
EndChar

StartChar: uparrow
Encoding: 8593 8593 267
Width: 922
VWidth: 1708
GlyphClass: 2
Flags: W
LayerCount: 2
Fore
SplineSet
922 -99 m 5
 0 -99 l 5
 0 1044 l 5
 922 1044 l 5
 922 -99 l 5
821 620 m 29
 461 991 l 29
 101 620 l 29
461 991 m 29
 461 209 l 29
EndSplineSet
EndChar

StartChar: downarrow
Encoding: 8595 8595 268
Width: 922
VWidth: 1708
GlyphClass: 2
Flags: W
LayerCount: 2
Fore
SplineSet
922 156 m 1
 0 156 l 1
 0 1299 l 1
 922 1299 l 1
 922 156 l 1
821 580 m 25
 461 209 l 25
 101 580 l 25
461 209 m 25
 461 991 l 25
EndSplineSet
EndChar

StartChar: spaceopenbox
Encoding: 9251 9251 269
Width: 922
VWidth: 1947
GlyphClass: 2
Flags: MW
LayerCount: 2
Fore
SplineSet
-79.4795 156 m 1
 842.521 156 l 1
 679 -615 l 1
 -243 -615 l 1
 -79.4795 156 l 1
696.23 321 m 25
 608 -92 l 25
 50 -92 l 25
 138.23 321 l 25
EndSplineSet
EndChar

StartChar: foursuperior
Encoding: 8308 8308 271
Width: 922
VWidth: 1947
GlyphClass: 2
Flags: MW
LayerCount: 2
Fore
SplineSet
309 1425 m 5
 983 1425 l 5
 796 544 l 5
 122 544 l 5
 309 1425 l 5
562.505 327 m 25
 787 1402 l 25
 238 807 l 25
 929 807 l 25
EndSplineSet
EndChar

StartChar: Eng
Encoding: 330 330 273
Width: 922
VWidth: 2334
GlyphClass: 2
Flags: MW
LayerCount: 2
Fore
SplineSet
-201 -410 m 5
 -141.918 -140.75 l 5
 180 -144 l 5
 238 0 l 5
 -112 0 l 5
 183.996 1400 l 5
 458.996 1400 l 5
 472 1450 l 5
 1230 1450 l 5
 837 -410 l 5
 -201 -410 l 5
170 -228 m 1
 195 -271 244 -294 301 -294 c 10
 352 -294 l 18
 486 -294 592 -170 622 -28 c 10
 854 1063 l 18
 860.624 1094.2 863.936 1122.73 863.936 1148.57 c 0
 863.936 1270.96 789.624 1333 641 1333 c 10
 623 1333 l 18
 465 1333 305 1107 277 973 c 10
 259 889 l 25
406.689 1584 m 25
 49.5938 -96 l 25
EndSplineSet
EndChar

StartChar: dcroat
Encoding: 273 273 274
Width: 922
VWidth: 1947
GlyphClass: 2
Flags: W
LayerCount: 2
Fore
SplineSet
450 1270 m 25
 1132 1270 l 25
583 1425 m 1
 1065 1425 l 1
 754 -25 l 1
 533.6 -25 l 1
 523.096 -72 l 1
 -127.305 -72 l 1
 107.674 1032 l 1
 510 1086 l 1
 583 1425 l 1
962.775 1575 m 25
 569.334 -276 l 25
197 597 m 10
 161 427 l 18
 152.254 385.819 148.122 347.693 148.122 312.875 c 0
 148.122 156.615 231.333 67 354 67 c 10
 372 67 l 18
 552 67 671 201 719 427 c 10
 755 597 l 18
 765.391 645.491 770.627 689.858 770.627 729.614 c 0
 770.627 873.509 702.034 957 561 957 c 10
 543 957 l 18
 363 957 245 821 197 597 c 10
EndSplineSet
EndChar

StartChar: bullet
Encoding: 8226 8226 280
Width: 922
VWidth: 1947
GlyphClass: 2
Flags: MW
LayerCount: 2
Fore
SplineSet
654 669 m 0
 654 569 567 466 460 466 c 0
 352 466 267 572 267 669 c 0
 267 772 357 869 460 869 c 0
 563 869 654 772 654 669 c 0
EndSplineSet
EndChar

StartChar: florin
Encoding: 402 402 281
Width: 922
VWidth: 1947
GlyphClass: 2
Flags: MW
LayerCount: 2
Fore
SplineSet
984 1248 m 1
 963 1300 912 1333 846 1333 c 11
 745 1333 649 1248 623 1149 c 10
 292 -127 l 18
 262 -244 171 -311 69 -311 c 3
 14 -311 -47 -279 -70 -220 c 1
237 795 m 25
 829 795 l 25
EndSplineSet
EndChar

StartChar: dagger
Encoding: 8224 8224 282
Width: 922
VWidth: 1947
GlyphClass: 2
Flags: MW
LayerCount: 2
Fore
SplineSet
279.893 1425 m 5
 1021.89 1425 l 5
 637.739 -387 l 5
 -104.261 -387 l 5
 279.893 1425 l 5
686.966 1590 m 25
 231.03 -555 l 25
86 933 m 25
 1078 933 l 25
EndSplineSet
EndChar

StartChar: daggerdbl
Encoding: 8225 8225 283
Width: 922
VWidth: 1947
GlyphClass: 2
Flags: MW
LayerCount: 2
Fore
SplineSet
279.893 1425 m 5
 1021.89 1425 l 5
 637.739 -387 l 5
 -104.261 -387 l 5
 279.893 1425 l 5
-109 106 m 29
 893 106 l 29
682.501 1569 m 29
 237.407 -525 l 29
66 933 m 29
 1068 933 l 29
EndSplineSet
EndChar

StartChar: trademark
Encoding: 8482 8482 284
Width: 922
VWidth: 1947
GlyphClass: 2
Flags: MW
LayerCount: 2
Fore
SplineSet
23 466 m 5
 222 1400 l 5
 1108 1400 l 5
 909 466 l 5
 723 466 l 5
 734 519 l 5
 587 519 l 5
 576 466 l 5
 23 466 l 5
428.562 252 m 29
 674 1401 l 29
 680 615 l 29
 1020 1401 l 29
 773.562 252 l 29
189.562 310 m 29
 402 1308 l 29
-48 1308 m 29
 602 1308 l 29
EndSplineSet
EndChar

StartChar: Ecyrillic
Encoding: 1028 1028 290
Width: 922
VWidth: 1947
GlyphClass: 2
Flags: W
HStem: -24 187<376.578 609.035> 636 187<271.795 631.272> 1025.62 21<649.176 745.286> 1203 186<383.896 583.125>
VStem: 85.271 186.195<312.104 636 823 1053.6>
LayerCount: 2
Fore
SplineSet
667.196 314 m 5
 597.22 166.558 501.373 67 363 67 c 7
 211.773 67 162.802 184.873 162.802 348.514 c 4
 162.802 439.351 177.892 544.29 198.957 651 c 6
 219.332 747 l 6
 288.892 1053.24 398.882 1333 632 1333 c 7
 774.153 1333 826.876 1230.65 832.87 1082 c 5
229 756 m 25
 606 755 l 25
EndSplineSet
EndChar

StartChar: Becyrillic
Encoding: 1041 1041 298
Width: 922
VWidth: 2334
GlyphClass: 2
Flags: MW
LayerCount: 2
Fore
SplineSet
-193.622 -384 m 5
 186.378 1401 l 5
 926 1401 l 5
 852 1049 l 5
 1033.04 1049.33 l 5
 723 -384 l 5
 -193.622 -384 l 5
230 755 m 25
 518 755 l 2
 666.303 755 741.293 694.585 741.293 572.077 c 0
 741.293 545.893 737.868 516.873 731 485 c 2
 694 312 l 2
 656 133 561 67 372 67 c 2
 84 67 l 1
 348 1308 l 9
 1048 1308 l 25
EndSplineSet
EndChar

StartChar: Gecyrillic
Encoding: 1043 1043 299
Width: 922
VWidth: 2334
GlyphClass: 2
Flags: MW
LayerCount: 2
Fore
SplineSet
-110.535 0 m 5
 187.378 1425 l 5
 1020 1425 l 5
 945 1049 l 5
 1033.04 1049.33 l 5
 806.088 0 l 5
 -110.535 0 l 5
34.9277 -165 m 29
 348 1307 l 29
 1178 1307 l 29
EndSplineSet
EndChar

StartChar: Decyrillic
Encoding: 1044 1044 300
Width: 922
VWidth: 1947
GlyphClass: 2
Flags: MW
LayerCount: 2
Fore
SplineSet
-33 -300 m 17
 50 93 l 9
 688 93 l 17
 605 -300 l 9
191 1425 m 1
 1113 1425 l 1
 842 150 l 1
 696.565 -162 l 1
 -60.4346 -162 l 1
 -80 150 l 1
 191 1425 l 1
120 93 m 17
 452 981 l 1
 505 1123 636 1260 768 1308 c 9
 886 1308 l 17
 628 93 l 9
EndSplineSet
EndChar

StartChar: Zhecyrillic
Encoding: 1046 1046 302
Width: 922
VWidth: 1947
GlyphClass: 2
Flags: MW
LayerCount: 2
Fore
SplineSet
186 1400 m 1
 502 1400 l 1
 488.001 1333 l 1
 777.001 1333 l 1
 793.5 1400 l 1
 1108 1400 l 1
 810 0 l 1
 -112 0 l 1
 186 1400 l 1
702 -85 m 25
 624 685 l 25
-72 -147 m 25
 365 685 l 25
297 1500 m 25
 402 247 l 25
 1092 1602 l 25
668.473 1503 m 25
 329.233 -93 l 25
EndSplineSet
EndChar

StartChar: Zecyrillic
Encoding: 1047 1047 303
Width: 922
VWidth: 1947
GlyphClass: 2
Flags: MW
LayerCount: 2
Fore
SplineSet
314 1158 m 5
 377 1264 497 1333 603 1333 c 14
 641 1333 l 22
 752.901 1333 817.394 1253.99 817.394 1138.67 c 4
 817.394 1114.87 814.646 1089.52 809 1063 c 14
 800 1022 l 22
 777 912 658 777 524 777 c 5
 355 777 l 13
 523 777 l 22
 664.258 777 732.229 693.243 732.229 548.928 c 4
 732.229 509.348 727.116 465.212 717 417 c 14
 712 397 l 22
 666 177 552 67 372 67 c 14
 334 67 l 22
 227.139 67 114.908 135.282 114.908 273.863 c 4
 114.908 293.496 117.16 314.539 122 337 c 5
EndSplineSet
EndChar

StartChar: Iicyrillic
Encoding: 1048 1048 304
Width: 922
VWidth: 1947
GlyphClass: 2
Flags: MW
LayerCount: 2
Fore
SplineSet
186 1400 m 5
 1108 1400 l 5
 810 0 l 5
 -112 0 l 5
 186 1400 l 5
582.725 -213 m 29
 911 1333 l 29
 84 66 l 29
 408.603 1593 l 29
EndSplineSet
EndChar

StartChar: Elcyrillic
Encoding: 1051 1051 307
Width: 922
VWidth: 1947
GlyphClass: 2
Flags: MW
LayerCount: 2
Fore
SplineSet
191 1425 m 5
 1113 1425 l 5
 810 0 l 5
 -112 0 l 5
 191 1425 l 5
-60 -225 m 16
 442 981 l 2
 501.039 1122.83 636 1260 768 1308 c 9
 906 1308 l 25
 583.362 -210 l 25
EndSplineSet
EndChar

StartChar: Pecyrillic
Encoding: 1055 1055 311
Width: 922
VWidth: 1947
GlyphClass: 2
Flags: MW
LayerCount: 2
Fore
SplineSet
191 1425 m 5
 1113 1425 l 5
 810 0 l 5
 -112 0 l 5
 191 1425 l 5
22.8115 -222 m 29
 348 1308 l 29
 906 1308 l 29
 580.812 -222 l 29
EndSplineSet
EndChar

StartChar: Ucyrillic
Encoding: 1059 1059 315
Width: 922
VWidth: 1947
GlyphClass: 2
Flags: MW
LayerCount: 2
Fore
SplineSet
186 1400 m 5
 1108 1400 l 5
 801 -40 l 5
 -121 -40 l 5
 186 1400 l 5
983 1480 m 16
 419 246 l 2
 351 105 268 68 202 67 c 2
 174 67 l 2
 154 67 134 71 116 78 c 2
 89 90 l 9
345 1480 m 25
 517 459 l 25
EndSplineSet
EndChar

StartChar: Efcyrillic
Encoding: 1060 1060 316
Width: 922
VWidth: 1947
GlyphClass: 2
Flags: MW
LayerCount: 2
Fore
SplineSet
609 1223 m 7
 785.86 1223 870.607 1127.22 870.607 942.717 c 7
 870.607 886.228 862.664 821.421 846.987 748.5 c 6
 824.737 645 l 6
 756.842 329.174 621.034 187 389 187 c 7
 211.552 187 126.889 283.477 126.889 466.21 c 7
 126.889 520.329 134.316 582.014 148.957 651 c 6
 169.332 747 l 6
 234.229 1052.77 380.998 1223 609 1223 c 7
189 1425 m 5
 1111 1425 l 5
 804.898 -24 l 5
 -117.102 -24 l 5
 189 1425 l 5
677.4 1545 m 29
 279.493 -327 l 29
EndSplineSet
EndChar

StartChar: Tsecyrillic
Encoding: 1062 1062 318
Width: 922
VWidth: 1947
GlyphClass: 2
Flags: MW
LayerCount: 2
Fore
SplineSet
186 1400 m 5
 1056 1400 l 5
 694 -302 l 5
 -176 -302 l 5
 186 1400 l 5
468 92 m 25
 703 92 l 25
 508 -189 l 25
394 1527 m 25
 90 92 l 25
 578 92 l 17
 882 1527 l 9
EndSplineSet
EndChar

StartChar: Checyrillic
Encoding: 1063 1063 319
Width: 922
VWidth: 1947
GlyphClass: 2
Flags: MW
LayerCount: 2
Fore
SplineSet
186 1400 m 5
 1107 1400 l 5
 807 0 l 5
 -114 0 l 5
 186 1400 l 5
737 512 m 25
 449 512 l 2
 300.376 512 226.064 572.677 226.064 695.719 c 0
 226.064 721.694 229.288 750.468 236 782 c 2
 397.125 1539 l 17
955.125 1539 m 1
 580.174 -225 l 1
EndSplineSet
EndChar

StartChar: Shacyrillic
Encoding: 1064 1064 320
Width: 922
VWidth: 1947
GlyphClass: 2
Flags: MW
LayerCount: 2
Fore
SplineSet
76 1400 m 1
 493.5 1400 l 1
 439.502 1152 l 1
 738.002 1152 l 1
 789 1400 l 1
 1187 1400 l 1
 887 0 l 1
 -224 0 l 1
 76 1400 l 1
657.312 1450.5 m 17
 369 92 l 9
348 1548 m 25
 40 92 l 25
 698 92 l 25
 1006 1548 l 25
EndSplineSet
EndChar

StartChar: Shchacyrillic
Encoding: 1065 1065 321
Width: 922
VWidth: 1947
GlyphClass: 2
Flags: MW
LayerCount: 2
Fore
SplineSet
186 1400 m 1
 475.5 1400 l 1
 421.502 1152 l 1
 725.002 1152 l 1
 776 1400 l 1
 1088 1400 l 1
 725.998 -302 l 1
 -176.002 -302 l 1
 186 1400 l 1
605 1342 m 17
 344 92 l 9
488 92 m 25
 733 92 l 25
 538 -189 l 25
354 1590 m 25
 40 92 l 25
 648 92 l 17
 962 1590 l 9
EndSplineSet
EndChar

StartChar: Hardsigncyrillic
Encoding: 1066 1066 322
Width: 922
VWidth: 1947
GlyphClass: 2
Flags: W
HStem: 1405 20G<60 922>
VStem: 0 922<-60 680>
LayerCount: 2
Fore
SplineSet
251 1425 m 5
 1113 1425 l 5
 797 -60 l 5
 -125 -60 l 5
 33 680 l 5
 173 682 l 5
 235 974 l 5
 155 974 l 5
 251 1425 l 5
372 715 m 29
 570 715 l 6
 667.969 715 733.279 655.679 733.279 535.405 c 4
 733.279 508.358 729.976 478.23 723 445 c 6
 700 337 l 6
 662 158 558 92 438 92 c 6
 240 92 l 5
 498 1308 l 13
 296 1308 l 29
 76 864 l 29
EndSplineSet
EndChar

StartChar: Yericyrillic
Encoding: 1067 1067 323
Width: 922
VWidth: 1947
GlyphClass: 2
Flags: MW
LayerCount: 2
Fore
SplineSet
186 1400 m 5
 1107 1400 l 5
 807 0 l 5
 -114 0 l 5
 186 1400 l 5
984 1518 m 17
 627 -174 l 9
203 765 m 25
 271 765 l 2
 419.065 765 493.376 704.779 493.376 582.666 c 0
 493.376 556.329 489.919 527.112 483 495 c 2
 450 337 l 2
 412 158 317 92 128 92 c 2
 60 92 l 1
 366 1518 l 1
EndSplineSet
EndChar

StartChar: Softsigncyrillic
Encoding: 1068 1068 324
Width: 922
VWidth: 1947
GlyphClass: 2
Flags: MW
LayerCount: 2
Fore
SplineSet
186 1400 m 5
 1107 1400 l 5
 807 0 l 5
 -114 0 l 5
 186 1400 l 5
222 715 m 25
 510 715 l 2
 658.624 715 732.936 654.323 732.936 531.281 c 0
 732.936 505.306 729.624 476.55 723 445 c 2
 700 337 l 2
 662 158 567 92 378 92 c 2
 90 92 l 1
 403.501 1569 l 1
EndSplineSet
EndChar

StartChar: Ereversedcyrillic
Encoding: 1069 1069 325
Width: 922
VWidth: 1947
GlyphClass: 2
Flags: MW
LayerCount: 2
Fore
SplineSet
411 756 m 25
 788 755 l 25
164 315 m 1
 171 167 224 67 363 67 c 3
 611 67 719 384 787 700 c 0
 813.494 824.404 832.911 946.597 832.911 1049.94 c 0
 832.911 1215.73 782.929 1333 632 1333 c 3
 487 1333 391 1227 321 1074 c 1
EndSplineSet
EndChar

StartChar: IUcyrillic
Encoding: 1070 1070 326
Width: 922
VWidth: 1947
GlyphClass: 2
Flags: MW
LayerCount: 2
Fore
SplineSet
186 1400 m 5
 459 1400 l 5
 492 1503 l 5
 1185 1503 l 5
 843 -129 l 5
 162 -129 l 5
 165 0 l 5
 -114 0 l 5
 186 1400 l 5
179 700 m 29
 457 700 l 29
360 1596 m 21
 -12 -150 l 13
782 1333 m 7
 865.113 1333 887.109 1216.01 887.109 1097.05 c 7
 887.109 1000.52 872.627 902.686 864.562 865 c 6
 792.448 528 l 6
 736.934 268.57 631.438 67 513 67 c 7
 430.385 67 409.037 186.615 409.037 305.721 c 7
 409.037 401.89 422.954 497.726 429.776 530 c 6
 500.588 865 l 6
 555.377 1124.2 662.868 1333 782 1333 c 7
EndSplineSet
EndChar

StartChar: IAcyrillic
Encoding: 1071 1071 327
Width: 922
VWidth: 1947
GlyphClass: 2
Flags: MW
LayerCount: 2
Fore
SplineSet
198 1458 m 1
 1120 1458 l 1
 810 0 l 1
 -112 0 l 1
 198 1458 l 1
-34 -102 m 25
 494 680 l 25
774 685 m 25
 486 685 l 2
 337.376 685 263.064 746.358 263.064 869.638 c 0
 263.064 895.664 266.376 924.45 273 956 c 2
 296 1063 l 2
 334 1242 429 1308 618 1308 c 2
 906 1308 l 1
 582.725 -213 l 1
EndSplineSet
EndChar

StartChar: becyrillic
Encoding: 1073 1073 329
Width: 922
VWidth: 1947
GlyphClass: 2
Flags: MW
LayerCount: 2
Fore
SplineSet
197 597 m 14
 161 427 l 22
 152.254 385.819 148.122 347.693 148.122 312.875 c 4
 148.122 156.615 231.333 67 354 67 c 14
 372 67 l 22
 552 67 671 201 719 427 c 14
 755 597 l 22
 765.391 645.491 770.627 689.858 770.627 729.614 c 4
 770.627 873.509 702.034 957 561 957 c 14
 543 957 l 22
 363 957 245 821 197 597 c 14
319 1506 m 1
 948 1506 l 1
 864 1104 l 1
 1108 1083 l 1
 855 -99 l 1
 -138 -99 l 1
 104 1029 l 1
 222 1047 l 1
 319 1506 l 1
1005 1308 m 25
 349 1308 l 25
 716.663 899.342 l 25
EndSplineSet
EndChar

StartChar: vecyrillic
Encoding: 1074 1074 330
Width: 922
VWidth: 2334
GlyphClass: 2
Flags: MW
LayerCount: 2
Fore
SplineSet
358 92 m 1
 397 92 l 2
 577 92 685 181 714 316 c 10
 716 325 l 18
 720 344 722 361 722 378 c 0
 722 481 648 549 494 549 c 2
 187 549 l 1
 271 549 l 2
 423.064 549 680.896 888.717 718.966 1063.5 c 2
 734.999 1140 l 2
 737.897 1153.52 739.279 1166.57 739.279 1179.07 c 0
 739.279 1270.36 665.485 1332 569.999 1332 c 2
 537.999 1332 l 2
 373.999 1332 335.999 1244 315.999 1152 c 2
 137 312 l 2
 134.841 301.869 133.805 291.759 133.805 281.751 c 0
 133.805 181.826 237.109 92 358 92 c 1
EndSplineSet
EndChar

StartChar: gecyrillic
Encoding: 1075 1075 331
Width: 922
VWidth: 1947
GlyphClass: 2
Flags: MW
LayerCount: 2
Fore
SplineSet
225 778 m 5
 288 876 409 957 513 957 c 14
 531 957 l 22
 650.673 957 764.846 927.924 764.846 807.774 c 7
 764.846 792.387 762.974 775.505 759 757 c 6
 756 745 l 6
 745 691 703 648 641 625 c 6
 228 450 l 6
 162 423 118 368 104 301 c 6
 101 287 l 6
 97.9822 272.848 96.5454 259.258 96.5454 246.268 c 7
 96.5454 134.427 203.048 67 324 67 c 14
 372 67 l 22
 508 67 671 203 700 337 c 12
EndSplineSet
EndChar

StartChar: decyrillic
Encoding: 1076 1076 332
Width: 922
VWidth: 1947
GlyphClass: 2
Flags: MW
LayerCount: 2
Fore
SplineSet
332.004 1242 m 21
 437.599 1306 469.024 1308 618.024 1308 c 6
 636 1308 l 6
 795.425 1296.16 834.086 1128.06 834.086 1013.91 c 7
 834.086 983.422 831.329 956.786 827.378 938 c 6
 724.96 451 l 13
197 597 m 14
 161 427 l 22
 152.254 385.819 148.122 347.693 148.122 312.875 c 4
 148.122 156.615 231.333 67 354 67 c 14
 372 67 l 22
 552 67 671 201 719 427 c 14
 755 597 l 22
 765.391 645.491 770.627 689.858 770.627 729.614 c 4
 770.627 873.509 702.034 957 561 957 c 14
 543 957 l 22
 363 957 245 821 197 597 c 14
EndSplineSet
EndChar

StartChar: zhecyrillic
Encoding: 1078 1078 334
Width: 922
VWidth: 1947
GlyphClass: 2
Flags: MW
LayerCount: 2
Fore
SplineSet
132.864 1152 m 1
 427.999 1152 l 1
 402 1024 l 1
 730 1024 l 1
 781.999 1152 l 1
 1054.87 1152 l 1
 810 0 l 1
 -112 0 l 1
 132.864 1152 l 1
690 -142 m 25
 587 494 l 25
-52 -142 m 25
 319 494 l 25
194 1049 m 25
 387 181 l 25
 946 1049 l 25
606.197 1210 m 25
 346 -15 l 25
EndSplineSet
EndChar

StartChar: zecyrillic
Encoding: 1079 1079 335
Width: 922
VWidth: 1947
GlyphClass: 2
Flags: MW
LayerCount: 2
Fore
SplineSet
234 781 m 5
 297 887 417 956 523 956 c 14
 561 956 l 22
 681.526 956 751.04 884.264 751.04 804.837 c 4
 751.04 795.299 750.037 785.649 748 776 c 14
 746 765 l 22
 722 654 612 560 478 560 c 5
 369 560 l 13
 477 560 l 22
 632.911 560 704.044 477.472 704.044 380 c 4
 704.044 364.94 702.346 349.524 699 334 c 14
 695 314 l 22
 671 201 552 67 372 67 c 14
 354 67 l 22
 244.14 67 128.604 139.169 128.604 256.489 c 4
EndSplineSet
EndChar

StartChar: iicyrillic
Encoding: 1080 1080 336
Width: 922
VWidth: 1947
GlyphClass: 2
Flags: MW
LayerCount: 2
Fore
SplineSet
308.062 1120 m 25
 142 337 l 18
 134.146 299.969 130 267 130 238 c 0
 130 124 191 67 334 67 c 10
 352 67 l 18
 510 67 695 313 723 447 c 10
 741 531 l 25
582.087 -216 m 25
 866.062 1120 l 25
105 1023 m 1
 1027 1023 l 1
 810 0 l 1
 524 0 l 1
 497.114 -70 l 1
 -126.886 -70 l 1
 105 1023 l 1
EndSplineSet
EndChar

StartChar: kacyrillic
Encoding: 1082 1082 338
Width: 922
VWidth: 1947
GlyphClass: 2
Flags: MW
LayerCount: 2
Fore
SplineSet
104.001 1024 m 5
 566 1024 l 5
 608.137 1158 l 5
 1056.14 1158 l 5
 810 0 l 5
 -112 0 l 5
 104.001 1024 l 5
730 -118 m 21
 553 53 432.188 316.077 444 612 c 13
870 996 m 21
 581.007 783.726 320.829 514.038 104 158 c 13
320.243 1182 m 29
 33.8623 -170 l 29
EndSplineSet
EndChar

StartChar: elcyrillic
Encoding: 1083 1083 339
Width: 922
VWidth: 1947
GlyphClass: 2
Flags: MW
LayerCount: 2
Fore
SplineSet
111 1048 m 5
 1033 1048 l 5
 810 0 l 5
 -112 0 l 5
 111 1048 l 5
-10 -99 m 16
 321 604 l 2
 383 745 556 883 688 931 c 9
 826 931 l 25
 602.064 -122 l 25
EndSplineSet
EndChar

StartChar: emcyrillic
Encoding: 1084 1084 340
Width: 922
VWidth: 1947
GlyphClass: 2
Flags: MW
LayerCount: 2
Fore
SplineSet
-112 0 m 5
 106 1024 l 5
 1028 1024 l 5
 810 0 l 5
 499 0 l 5
 518 92 l 5
 225 92 l 5
 205 0 l 5
 -112 0 l 5
-32 -75 m 29
 290 1025 l 29
 381 151 l 29
 846 1025 l 29
 698 -75 l 29
EndSplineSet
EndChar

StartChar: encyrillic
Encoding: 1085 1085 341
Width: 922
VWidth: 1947
GlyphClass: 2
Flags: MW
LayerCount: 2
Fore
SplineSet
104 1024 m 5
 1026 1024 l 5
 810 0 l 5
 -112 0 l 5
 104 1024 l 5
170 470 m 29
 728 470 l 29
864.786 1114 m 29
 598.671 -138 l 29
306.786 1114 m 29
 40.6709 -138 l 29
EndSplineSet
EndChar

StartChar: tecyrillic
Encoding: 1090 1090 346
Width: 922
VWidth: 1947
GlyphClass: 2
Flags: MW
LayerCount: 2
Fore
SplineSet
111.183 1050 m 5
 1033.18 1050 l 5
 810 0 l 5
 -112 0 l 5
 111.183 1050 l 5
646.956 -99 m 25
 833 777 l 18
 838.756 804.103 841.545 827.68 841.545 848.05 c 0
 841.545 926.173 801.041 957 736 957 c 10
 726 957 l 18
 628 957 524 821 495 687 c 10
 477 603 l 25
327.956 -99 m 25
 514 777 l 18
 519.756 804.103 522.545 827.68 522.545 848.05 c 0
 522.545 926.173 482.041 957 417 957 c 10
 407 957 l 18
 309 957 205 821 176 687 c 10
 158 603 l 25
279 1164 m 25
 8.95605 -99 l 25
EndSplineSet
EndChar

StartChar: efcyrillic
Encoding: 1092 1092 348
Width: 922
VWidth: 1947
GlyphClass: 2
Flags: MW
LayerCount: 2
Fore
SplineSet
110 1049 m 5
 1032 1049 l 5
 728.374 -384 l 5
 -193.626 -384 l 5
 110 1049 l 5
590.889 1138 m 25
 247.398 -478 l 25
535 876 m 3
 704.265 876 794.919 785.046 794.919 612.039 c 3
 794.919 570.404 789.669 524.016 779 473 c 0
 722 206 573 67 363 67 c 3
 194.702 67 104.119 156.276 104.119 329.165 c 3
 104.119 372.005 109.681 419.979 121 473 c 0
 176 736 325 876 535 876 c 3
EndSplineSet
EndChar

StartChar: tsecyrillic
Encoding: 1094 1094 350
Width: 922
VWidth: 1947
GlyphClass: 2
Flags: MW
LayerCount: 2
Fore
SplineSet
104.001 1024 m 5
 1026 1024 l 5
 728.374 -384 l 5
 -193.626 -384 l 5
 104.001 1024 l 5
318.692 1170 m 25
 142 337 l 18
 134.186 300.16 130.086 267.05 130.086 237.692 c 0
 130.086 124.398 191.044 67 334 67 c 10
 352 67 l 18
 510 67 695 313 723 447 c 10
 741 531 l 25
876.692 1170 m 25
 648 96 l 17
 664.023 76.8761 669.894 53.745 669.894 27.159 c 0
 669.894 2.30768 664.764 -25.5623 658 -56 c 0
 646 -114 572 -188 500 -228 c 9
EndSplineSet
EndChar

StartChar: checyrillic
Encoding: 1095 1095 351
Width: 922
VWidth: 1947
GlyphClass: 2
Flags: MW
LayerCount: 2
Fore
SplineSet
104.001 1024 m 5
 1026 1024 l 5
 810.002 0 l 5
 -111.998 0 l 5
 104.001 1024 l 5
308.911 1124 m 25
 218 697 l 18
 210.222 660.467 206.195 627.591 206.195 598.413 c 0
 206.195 484.642 267.742 427 411 427 c 10
 429 427 l 18
 587 427 771 673 800 807 c 10
 817 891 l 25
866.911 1124 m 25
 589.313 -182 l 17
EndSplineSet
EndChar

StartChar: shacyrillic
Encoding: 1096 1096 352
Width: 922
VWidth: 1947
GlyphClass: 2
Flags: MW
LayerCount: 2
Fore
SplineSet
104.001 1024 m 5
 1026 1024 l 5
 810.002 0 l 5
 614 0 l 5
 584.992 -80 l 5
 -129.007 -80 l 5
 104.001 1024 l 5
272.314 1140 m 25
 83 247 l 18
 77.1826 219.558 74.3431 195.734 74.3431 175.191 c 0
 74.3431 97.6277 114.17 67 179 67 c 10
 189 67 l 18
 287 67 392 203 421 337 c 10
 438 421 l 25
591.314 1140 m 25
 402 247 l 18
 396.183 219.558 393.343 195.734 393.343 175.191 c 0
 393.343 97.6277 433.17 67 498 67 c 10
 508 67 l 18
 606 67 711 203 740 337 c 10
 757 421 l 25
626 -196 m 25
 910.314 1140 l 25
EndSplineSet
EndChar

StartChar: shchacyrillic
Encoding: 1097 1097 353
Width: 922
VWidth: 1947
GlyphClass: 2
Flags: MW
LayerCount: 2
Fore
SplineSet
104.001 1024 m 1
 1026 1024 l 1
 719.999 -410 l 1
 353.997 -410 l 1
 414.992 -80 l 1
 -129.007 -80 l 1
 104.001 1024 l 1
272.314 1141 m 25
 83 247 l 18
 77.1875 219.554 74.3431 195.734 74.3431 175.191 c 3
 74.3431 97.6277 114.17 67 179 67 c 10
 189 67 l 18
 287 67 392 203 421 337 c 10
 438 421 l 25
591.314 1141 m 25
 402 247 l 18
 396.188 219.554 393.343 195.734 393.343 175.191 c 3
 393.343 97.6277 433.17 67 498 67 c 10
 508 67 l 18
 606 67 711 203 740 337 c 10
 757 421 l 25
540 -228 m 16
 660.932 -160.816 709.894 -74.9046 709.894 27.159 c 3
 709.894 53.745 704.023 76.8761 688 96 c 1
 910.314 1141 l 9
EndSplineSet
EndChar

StartChar: hardsigncyrillic
Encoding: 1098 1098 354
Width: 922
VWidth: 1947
GlyphClass: 2
Flags: MW
LayerCount: 2
Fore
SplineSet
165 1023 m 1
 1027 1023 l 1
 797 -60 l 1
 -125 -60 l 1
 -53 278 l 1
 88 280 l 1
 150 572 l 1
 70 572 l 1
 165 1023 l 1
339 561 m 25
 477 561 l 18
 597.458 561 704.178 487.463 704.178 375.985 c 0
 704.178 363.453 702.83 350.441 700 337 c 2
 690 291 l 2
 661 156 513 92 377 91 c 10
 239 91 l 25
 413 906 l 25
 211 906 l 25
 -10 462 l 25
EndSplineSet
EndChar

StartChar: yericyrillic
Encoding: 1099 1099 355
Width: 922
VWidth: 1947
GlyphClass: 2
Flags: W
VStem: -111.998 922<0 922> 104.001 921.996<102.004 1024>
LayerCount: 2
Fore
SplineSet
104.001 1024 m 5x40
 1026 1024 l 5x40
 810.002 0 l 5
 -111.998 0 l 5x80
 104.001 1024 l 5x40
648 -132 m 25
 916 1137 l 25
262 1137 m 25
 40 92 l 25
 148 92 l 18
 283 92 411 156 440 291 c 2
 450 337 l 2
 453.27 352.535 454.836 367.496 454.836 381.807 c 0
 454.836 490.017 365.348 561 247 561 c 10
 139 561 l 25
EndSplineSet
EndChar

StartChar: softsigncyrillic
Encoding: 1100 1100 356
Width: 922
VWidth: 1947
GlyphClass: 2
Flags: MW
LayerCount: 2
Fore
SplineSet
111 1049 m 5x40
 1033 1049 l 5x40
 810.002 0 l 5
 -111.998 0 l 5x80
 111 1049 l 5x40
339.097 1266 m 25
 90 92 l 25
 378 92 l 18
 513 92 661 156 690 291 c 2
 700 337 l 2
 702.83 350.441 704.178 363.453 704.178 375.985 c 0
 704.178 487.463 597.458 561 477 561 c 10
 189 561 l 25
EndSplineSet
EndChar

StartChar: ereversedcyrillic
Encoding: 1101 1101 357
Width: 922
VWidth: 1947
GlyphClass: 2
Flags: MW
LayerCount: 2
Fore
SplineSet
314 512 m 29
 721 512 l 29
240 798 m 1
 294 904 390 956 528 956 c 10
 546 956 l 18
 687.034 956 755.627 873.123 755.627 729.494 c 0
 755.627 689.811 750.391 645.491 740 597 c 10
 704 427 l 18
 656 201 507 67 357 67 c 10
 339 67 l 18
 203 67 130 118 118 220 c 1
EndSplineSet
EndChar

StartChar: iucyrillic
Encoding: 1102 1102 358
Width: 922
VWidth: 1947
GlyphClass: 2
Flags: MW
LayerCount: 2
Fore
SplineSet
105 1024 m 5x40
 393 1024 l 5
 414 1049 l 5
 1033 1049 l 5x40
 798.521 -54 l 5
 189.52 -54 l 5
 186 0 l 5
 -111.998 0 l 5x80
 105 1024 l 5x40
416 597 m 14
 380 427 l 22
 366.358 362.768 359.754 306.259 359.754 258.191 c 7
 359.754 134.775 403.287 67 483 67 c 14
 501 67 l 22
 618 67 710 201 758 427 c 14
 794 597 l 22
 811.102 676.81 820.911 743.855 820.911 797.627 c 7
 820.911 902.612 783.518 957 690 957 c 14
 672 957 l 22
 561.417 957 464 821 416 597 c 14
139 512 m 29
 399 512 l 29
280 1167 m 29
 0 -141 l 29
EndSplineSet
EndChar

StartChar: iacyrillic
Encoding: 1103 1103 359
Width: 922
VWidth: 1947
GlyphClass: 2
Flags: MW
LayerCount: 2
Fore
SplineSet
111 1049 m 5x40
 1033 1049 l 5x40
 810.002 0 l 5
 358 0 l 5
 327.722 -86 l 5
 -130.276 -86 l 5x80
 111 1049 l 5x40
54 18 m 29
 459 470 l 29
595.479 -153 m 29
 826.315 933 l 29
 538.315 933 l 22
 403.315 933 255.315 869 226.315 734 c 6
 221 711 l 6
 217.907 697.617 216.822 684.547 216.822 672.015 c 4
 216.822 560.537 323.542 487 444 487 c 14
 732 487 l 29
EndSplineSet
EndChar

StartChar: ecyrillic
Encoding: 1108 1108 362
Width: 922
VWidth: 1708
GlyphClass: 2
Flags: W
LayerCount: 2
Fore
SplineSet
194 512 m 25
 601 512 l 25
764.594 798 m 0
 745.058 899.615 677.924 957 561 957 c 10
 543 957 l 18
 363 957 245 821 197 597 c 10
 161 427 l 18
 152.254 385.819 148.122 347.693 148.122 312.875 c 0
 148.122 156.615 231.333 67 354 67 c 10
 372 67 l 18
 486.947 67 577.019 121.646 639.609 220 c 0
EndSplineSet
EndChar

StartChar: numero
Encoding: 8470 8470 372
Width: 922
VWidth: 1947
Flags: MW
LayerCount: 2
Fore
SplineSet
856 1225 m 7
 910.949 1225 934.213 1175.05 934.213 1089.72 c 4
 934.213 1035.28 924.747 966.449 908 887 c 4
 864 681 802 546 712 546 c 7
 658.034 546 634.952 595.636 634.952 680.639 c 4
 634.952 735.822 644.68 805.91 662 887 c 4
 705 1091 767 1225 856 1225 c 7
186 1400 m 5
 1108 1400 l 5
 810 0 l 5
 -112 0 l 5
 186 1400 l 5
-33 -144 m 29
 299 1405 l 29
 357 -5 l 29
 681 1521 l 29
EndSplineSet
EndChar

StartChar: caroncomb
Encoding: 780 780 377
Width: 922
VWidth: 1947
Flags: MW
LayerCount: 2
Fore
SplineSet
489 1600 m 25
 659 1460 l 25
 889 1600 l 25
190 1422 m 1
 257 1736 l 1
 1179 1736 l 1
 1112 1422 l 1
 190 1422 l 1
EndSplineSet
EndChar

StartChar: gravecomb
Encoding: 768 768 379
Width: 922
VWidth: 2334
Flags: MW
LayerCount: 2
Fore
SplineSet
630 1647 m 25
 784 1438 l 25
EndSplineSet
EndChar

StartChar: acutecomb
Encoding: 769 769 380
Width: 922
VWidth: 2334
Flags: MW
LayerCount: 2
Fore
SplineSet
768 1647 m 25
 526 1438 l 25
EndSplineSet
EndChar

StartChar: tildecomb
Encoding: 771 771 381
Width: 922
VWidth: 1947
Flags: MW
LayerCount: 2
Fore
SplineSet
389 1502 m 17
 415 1528 l 2
 458 1571 506 1612 575 1612 c 10
 591 1612 l 18
 626 1612 656 1595 674 1576 c 2
 689 1559 l 2
 707 1539 737 1522 773 1522 c 10
 790 1522 l 18
 860 1522 908 1562 953 1609 c 2
 975 1632 l 9
EndSplineSet
EndChar

StartChar: hookabovecomb
Encoding: 777 777 382
Width: 922
VWidth: 1947
Flags: MW
LayerCount: 2
Fore
SplineSet
623 1255 m 5
 651 1387 l 5
 776.838 1387 874.197 1412.54 874.197 1514.69 c 7
 874.197 1583.28 786.971 1606 709 1606 c 15
 628 1606 567 1590 496 1549 c 13
EndSplineSet
EndChar

StartChar: dotbelowcomb
Encoding: 803 803 383
Width: 922
VWidth: 2334
Flags: MW
LayerCount: 2
Fore
SplineSet
172 -253 m 31
 172 -187 224 -133 291 -133 c 31
 357 -133 412 -187 412 -253 c 31
 412 -319 357 -373 291 -373 c 31
 224 -373 172 -319 172 -253 c 31
EndSplineSet
EndChar

StartChar: commaturnedabovecmb
Encoding: 786 786 396
Width: 922
VWidth: 1947
Flags: MW
LayerCount: 2
Fore
SplineSet
386 28 m 21
 386 0 l 5
 349 -132 l 5
 471.915 -132 521.117 -176.836 521.117 -240.671 c 7
 521.117 -337.391 418.743 -411 302 -411 c 31
 223.85 -411 159 -379 117 -334 c 13
EndSplineSet
EndChar

StartChar: Hbar
Encoding: 294 294 400
Width: 922
VWidth: 1947
Flags: W
LayerCount: 2
Fore
SplineSet
60 1170 m 25
 1112 1170 l 25
-63 0 m 1
 235 1400 l 1
 1060 1400 l 1
 762 0 l 1
 -63 0 l 1
219 700 m 25
 777 700 l 25
959.589 1560 m 25
 600.787 -128 l 25
401.589 1560 m 25
 42.7871 -128 l 25
EndSplineSet
EndChar

StartChar: hbar
Encoding: 295 295 401
Width: 922
VWidth: 1947
Flags: W
LayerCount: 2
Fore
SplineSet
110 1280 m 25
 792 1280 l 25
233 1400 m 1
 718 1400 l 1
 651.802 1089 l 1
 1037.97 1071 l 1
 810 0 l 1
 -64 0 l 1
 233 1400 l 1
589.102 -183 m 25
 774 687 l 18
 780.631 718.201 783.936 746.73 783.936 772.568 c 0
 783.936 894.96 709.624 957 561 957 c 10
 543 957 l 18
 385 957 225 731 197 597 c 10
 179 513 l 25
397.763 1542 m 25
 33.6523 -171 l 25
EndSplineSet
EndChar

StartChar: IJ
Encoding: 306 306 410
Width: 922
VWidth: 1947
Flags: W
LayerCount: 2
Fore
SplineSet
-70 0 m 1
 230 1425 l 1
 1073 1425 l 1
 813.373 208 l 1
 491.24 198 l 1
 449 0 l 1
 -70 0 l 1
387 337 m 9
 475 337 l 18
 565 337 628 425 665 597 c 10
 816 1308 l 25
-162 92 m 25
 620 92 l 25
179 92 m 17
96 1308 m 25
 1148 1308 l 1
437 1309 m 1
 179 92 l 9
EndSplineSet
EndChar

StartChar: Tbar
Encoding: 358 358 430
Width: 922
VWidth: 1947
Flags: W
HStem: 0 21<351 574> 491 129<70.7293 852.336> 1197 203<56 351 574 866>
VStem: 70.7293 781.606<491 620> 351 223<0 1197>
LayerCount: 2
Fore
SplineSet
305.001 -207 m 25
 627 1308 l 25
-10 560 m 25
 939 560 l 25
268 1458 m 1
 1050 1458 l 1
 740 0 l 1
 -42 0 l 1
 268 1458 l 1
627 1308 m 25
106 1308 m 25
 1138 1308 l 25
EndSplineSet
EndChar

StartChar: tbar
Encoding: 359 359 431
Width: 922
VWidth: 1947
Flags: W
HStem: -19 209<493.818 713.488> 522 130<73.8504 844.924> 839 182<76 251 473 761>
VStem: 73.8504 771.074<522 652> 228 216<235.871 833.119> 251 215<420.546 839> 285 214<1094 1308>
DStem2: 265 1021 473 1021 0.0695178 0.997581<14.4597 287.696>
LayerCount: 2
Fore
SplineSet
282 1425 m 1
 931 1425 l 1
 777.839 705 l 1
 889.839 705 l 1
 822.192 387 l 1
 887.087 363 l 1
 792 -84 l 1
 -39 -84 l 1
 282 1425 l 1
13 916 m 25
 943 916 l 25
678 247 m 17
 673 225 663 203 649 182 c 1
 606 119 527 67 459 67 c 10
 441 67 l 18
 362.536 67 295.474 136.166 295.474 213.535 c 0
 295.474 224.911 297.495 236.327 300 248 c 2
 570 1506 l 9
-10 560 m 25
 939 560 l 25
EndSplineSet
EndChar

StartChar: A
Encoding: 65 65 461
Width: 922
VWidth: 1708
Flags: MW
LayerCount: 2
Fore
SplineSet
-112 0 m 5
 191 1425 l 5
 1113 1425 l 5
 810 0 l 5
 -112 0 l 5
191 324 m 29
 645 324 l 29
14 -88 m 29
 640 1370 l 29
 652 -102 l 29
EndSplineSet
EndChar

StartChar: Lambda
Encoding: 923 923 462
Width: 922
VWidth: 1708
Flags: MW
LayerCount: 2
Fore
SplineSet
-112 0 m 5
 191 1425 l 5
 1113 1425 l 5
 810 0 l 5
 -112 0 l 5
-15 -150 m 29
 640 1370 l 29
 654 -189 l 29
EndSplineSet
EndChar

StartChar: Delta
Encoding: 916 916 463
Width: 922
VWidth: 1708
Flags: MW
LayerCount: 2
Fore
SplineSet
-112 0 m 5
 191 1425 l 5
 1113 1425 l 5
 810 0 l 5
 -112 0 l 5
648 92 m 13
 640 1370 l 21
 89 92 l 5
 648 92 l 13
EndSplineSet
EndChar

StartChar: Theta
Encoding: 920 920 464
Width: 922
VWidth: 1947
Flags: MW
LayerCount: 2
Fore
SplineSet
632 1333 m 7
 783.553 1333 833.458 1216.67 833.458 1051.92 c 7
 833.458 961.603 818.459 856.733 796.987 748.5 c 6
 774.737 645 l 6
 703.121 336.29 590.575 67 363 67 c 7
 211.773 67 162.802 184.873 162.802 348.514 c 7
 162.802 439.351 177.892 544.29 198.957 651 c 6
 219.332 747 l 6
 288.892 1053.24 398.882 1333 632 1333 c 7
377 699 m 21
 471 699 524 699 619 699 c 13
EndSplineSet
EndChar

StartChar: Xi
Encoding: 926 926 465
Width: 922
VWidth: 1708
Flags: W
LayerCount: 2
Fore
SplineSet
74 1050 m 5
 140 1497 l 5
 1182 1497 l 5
 1116 1050 l 5
 74 1050 l 5
-156 -135 m 5
 -120 336 l 5
 922 336 l 5
 886 -135 l 5
 -156 -135 l 5
165.013 447 m 29
 90 92 l 29
 648 92 l 29
 723.013 447 l 29
309 700 m 29
 687 700 l 29
267.04 927 m 29
 348 1308 l 29
 906 1308 l 29
 825.04 927 l 29
EndSplineSet
EndChar

StartChar: Sigma
Encoding: 931 931 468
Width: 922
VWidth: 1947
Flags: MW
LayerCount: 2
Fore
SplineSet
281 1425 m 5
 1025 1425 l 5
 717 -25 l 5
 -27 -25 l 5
 281 1425 l 5
944 67 m 5
 54 67 l 5
 499 702 l 5
 318 1308 l 5
 1208 1308 l 5
EndSplineSet
EndChar

StartChar: Psi
Encoding: 936 936 473
Width: 922
VWidth: 1947
Flags: MW
LayerCount: 2
Fore
SplineSet
-117.102 -24 m 1
 171.443 1333.5 l 1
 485.545 1333.5 l 1
 514.5 1425 l 1
 790.5 1425 l 1
 784.045 1333.5 l 1
 1205.54 1333.5 l 1
 917 -24 l 1
 -117.102 -24 l 1
949 1400 m 25
 796 696 l 18
 773.84 594.034 682 512 573 512 c 10
 343 512 l 18
 255.957 512 194.423 580.027 194.423 661.708 c 0
 194.423 672.928 195.485 684.429 198 696 c 10
 351 1400 l 25
679.313 1554 m 25
 310.929 -165 l 25
EndSplineSet
EndChar

StartChar: Omega
Encoding: 937 937 474
Width: 922
VWidth: 1947
Flags: MW
LayerCount: 2
Fore
SplineSet
-30.9277 -42 m 5
 38.7695 285 l 5
 -49.3927 303 l 5
 202 1482 l 5
 1125 1482 l 5
 868.49 279 l 5
 775.012 258 l 5
 711.072 -42 l 5
 -30.9277 -42 l 5
-122 92 m 5
 199 92 l 4
 258 375 l 5
 219.484 425.172 205.367 498.716 205.367 580.664 c 7
 205.367 660.416 218.738 748.127 236 830 c 4
 295 1107 387 1333 632 1333 c 7
 795.159 1333 847.05 1229.15 847.05 1082.27 c 7
 847.05 1006.79 833.348 919.951 814 830 c 4
 779 663 716 474 599 375 c 5
 539 92 l 5
 860 92 l 29
EndSplineSet
EndChar

StartChar: alpha
Encoding: 945 945 483
Width: 922
VWidth: 1947
Flags: MW
LayerCount: 2
Fore
SplineSet
886 1024 m 5
 539 223 l 6
 499 130 421 67 313 67 c 7
 198.165 67 144.629 158.177 144.629 309.105 c 4
 144.629 368.465 152.91 437.067 169 513 c 4
 226 780 342 956 502 956 c 7
 610 956 662 891 662 800 c 6
 671 0 l 21
EndSplineSet
EndChar

StartChar: beta
Encoding: 946 946 484
Width: 922
VWidth: 2334
Flags: MW
LayerCount: 2
Fore
SplineSet
-179.594 -318 m 5
 134.856 1173 l 5
 1059.33 1173 l 5
 744.88 -318 l 5
 -179.594 -318 l 5
-30.7529 -474 m 29
 216 687 l 22
 254.042 865.993 363 957 543 957 c 14
 547 957 l 22
 704.471 957 778.52 888.119 778.52 793.878 c 4
 778.52 780.396 777.004 766.394 774 752 c 4
 749 637 641 549 461 549 c 6
 406 549 l 5
 494 549 l 6
 647.848 549 721.914 481.777 721.914 378.442 c 4
 721.914 361.548 719.934 343.689 716 325 c 14
 709 291 l 22
 680 156 571 67 392 67 c 14
 354 67 l 22
 199.932 67 125.72 132.203 125.72 235.646 c 4
 125.72 253.057 127.822 271.551 132 291 c 14
EndSplineSet
EndChar

StartChar: gamma
Encoding: 947 947 485
Width: 922
VWidth: 2334
Flags: MW
LayerCount: 2
Fore
SplineSet
106 1024 m 5
 1028 1024 l 5
 728 -386 l 5
 -194 -386 l 5
 106 1024 l 5
236.77 -528 m 29
 370 93 l 29
273 1194 m 29
 363 66 l 29
 933 1194 l 29
EndSplineSet
EndChar

StartChar: delta
Encoding: 948 948 486
Width: 922
VWidth: 1947
Flags: MW
LayerCount: 2
Fore
SplineSet
197 597 m 10
 161 427 l 18
 152.254 385.819 148.122 347.693 148.122 312.875 c 0
 148.122 156.615 231.333 67 354 67 c 10
 372 67 l 18
 552 67 671 201 719 427 c 10
 755 597 l 18
 765.391 645.491 770.627 689.858 770.627 729.614 c 0
 770.627 873.509 702.034 957 561 957 c 10
 543 957 l 18
 363 957 245 821 197 597 c 10
319 1506 m 1
 948 1506 l 1
 864 1104 l 1
 1108 1083 l 1
 855 -99 l 1
 -138 -99 l 1
 104 1029 l 1
 222 1047 l 1
 319 1506 l 1
1005 1308 m 25
 349 1308 l 25
 716.663 899.342 l 25
EndSplineSet
EndChar

StartChar: epsilon
Encoding: 949 949 487
Width: 922
VWidth: 2334
Flags: W
LayerCount: 2
Fore
SplineSet
-114 0 m 1
 122 1107 l 1
 1046 1107 l 1
 948.786 651 l 1
 633.287 660 l 1
 574.307 372 l 1
 885.748 360 l 1
 810 0 l 1
 -114 0 l 1
784 868 m 1
 759 918 689 957 581 957 c 10
 543 957 l 18
 367.026 957 258.911 870.025 228 740.925 c 2
 226 732 l 2
 222.875 717.806 221.275 703.933 221.275 690.54 c 0
 221.275 601.086 292.612 533 457 533 c 10
 749 533 l 25
 457 533 l 18
 268 533 155 402 137 317 c 10
 134 300 l 18
 129.314 278.231 126.958 257.718 126.958 238.58 c 0
 126.958 131.125 201.212 67 354 67 c 10
 392 67 l 18
 507 67 573 98 631 156 c 1
EndSplineSet
EndChar

StartChar: zeta
Encoding: 950 950 488
Width: 922
VWidth: 2334
Flags: MW
LayerCount: 2
Fore
SplineSet
183 1389 m 5
 1015 1389 l 5
 829 512 l 5
 919 512 l 5
 723 -411 l 5
 261 -411 l 5
 327.85 -96 l 5
 -128.967 -81 l 5
 183 1389 l 5
483 1049 m 21
 561 957 691 932 826 932 c 5
 766 872 697 820 623 774 c 6
 386 627 l 6
 264 552 169 467 146 357 c 14
 142 337 l 22
 135.081 304.888 131.624 275.671 131.624 249.334 c 4
 131.624 127.221 205.935 67 354 67 c 14
 372 67 l 22
 531.865 67 609.696 14.1511 609.696 -70.53 c 4
 609.696 -78.9947 609.245 -87.9896 607.367 -96.8571 c 6
 603.714 -114.106 l 6
 575.539 -247.158 481.926 -294 297 -294 c 13
 27 -294 l 29
EndSplineSet
EndChar

StartChar: eta
Encoding: 951 951 489
Width: 922
VWidth: 2334
Flags: MW
LayerCount: 2
Fore
SplineSet
-113.998 0 m 5
 106 1024 l 5
 417 1024 l 5
 460.648 1191 l 5
 1063.15 1191 l 5
 727.74 -387 l 5
 267 -387 l 5
 345.262 0 l 5
 -113.998 0 l 5
511.305 -549 m 25
 774 687 l 18
 780.631 718.2 783.936 746.73 783.936 772.568 c 0
 783.936 894.96 709.624 957 561 957 c 10
 543 957 l 18
 385 957 225 731 197 597 c 10
 179 513 l 25
323.474 1192.5 m 25
 30.4639 -186 l 25
EndSplineSet
EndChar

StartChar: theta
Encoding: 952 952 490
Width: 922
VWidth: 1947
Flags: MW
LayerCount: 2
Fore
SplineSet
197 597 m 14
 161 427 l 22
 152.254 385.819 148.122 347.693 148.122 312.875 c 4
 148.122 156.615 231.333 67 354 67 c 14
 372 67 l 22
 552 67 671 201 719 427 c 14
 755 597 l 22
 765.391 645.491 770.627 689.858 770.627 729.614 c 4
 770.627 873.509 702.034 957 561 957 c 14
 543 957 l 22
 363 957 245 821 197 597 c 14
167 512 m 21
 261 512 654 512 749 512 c 13
EndSplineSet
EndChar

StartChar: lambda
Encoding: 955 955 491
Width: 922
VWidth: 2334
Flags: MW
LayerCount: 2
Fore
SplineSet
-112 0 m 5
 188 1410 l 5
 1110 1410 l 5
 810 0 l 5
 -112 0 l 5
504 1581 m 29
 616 138 l 29
-12 -156 m 29
 553 958 l 29
 642 -162 l 29
EndSplineSet
EndChar

StartChar: xi
Encoding: 958 958 494
Width: 922
VWidth: 2334
Flags: MW
LayerCount: 2
Fore
SplineSet
191 1425 m 5
 931 1425 l 5
 788.738 756 l 5
 690.548 741 l 5
 589.752 267 l 5
 866.752 267 l 5
 723 -410 l 5
 261 -410 l 5
 325.823 -105 l 5
 -130.989 -90 l 5
 191 1425 l 5
424 1212 m 21
 492 1119 579 1083 717 1077 c 5
 531.786 955.823 288.337 992.85 228.571 743.45 c 6
 226 732 l 6
 222.875 717.806 221.275 703.933 221.275 690.54 c 7
 221.275 601.086 292.612 533 457 533 c 14
 859 533 l 29
 457 533 l 22
 268 533 155 402 137 317 c 14
 134 300 l 22
 129.314 278.231 126.958 257.718 126.958 238.58 c 4
 126.958 131.125 201.212 67 354 67 c 14
 392 67 l 22
 458.586 67 610.228 -0.863169 610.228 -76.3395 c 4
 610.228 -80.209 609.829 -84.0986 609 -88 c 14
 602 -120 l 22
 581 -220 424 -294 314 -294 c 13
 42 -294 l 29
EndSplineSet
EndChar

StartChar: pi
Encoding: 960 960 496
Width: 922
VWidth: 2334
Flags: MW
LayerCount: 2
Fore
SplineSet
261 1333 m 5
 1003 1333 l 5
 720 0 l 5
 -22 0 l 5
 261 1333 l 5
71 812 m 21
 145 878 232 932 378 932 c 6
 716 932 l 6
 866 932 962 988 1026 1062 c 13
736 932 m 29
 581 200 l 22
 574.389 168.959 570.918 132.632 570.918 95.1483 c 4
 570.918 2.2162 592.257 -97.8197 640 -142 c 13
-2 -142 m 21
 85 -80 180 96 203 200 c 14
 358 932 l 29
EndSplineSet
EndChar

StartChar: rho
Encoding: 961 961 497
Width: 922
VWidth: 2334
Flags: MW
LayerCount: 2
Fore
SplineSet
-193.622 -384 m 5
 171.378 1338 l 5
 1097.4 1338 l 5
 732.401 -384 l 5
 -193.622 -384 l 5
-49.2441 -561 m 29
 179 514 l 29
719 427 m 14
 755 597 l 22
 763.689 637.912 767.791 675.809 767.791 710.442 c 7
 767.791 867.124 683.846 957 561 957 c 14
 543 957 l 22
 363 957 245 823 197 597 c 14
 161 427 l 22
 150.536 378.167 145.252 333.517 145.252 293.546 c 7
 145.252 150.167 213.241 67 354 67 c 14
 372 67 l 22
 552 67 671 203 719 427 c 14
EndSplineSet
EndChar

StartChar: sigmafinal
Encoding: 962 962 498
Width: 922
VWidth: 2334
Flags: MW
LayerCount: 2
Fore
SplineSet
-124.116 -57 m 1
 149.649 1191 l 1
 1063.15 1191 l 1
 727.74 -387 l 1
 267 -387 l 1
 335.144 -57 l 1
 -124.116 -57 l 1
862 902 m 9
 825 917 l 18
 757.234 944.285 691.218 956.815 628.922 956.815 c 0
 412.677 956.815 241.252 805.838 197 597 c 10
 161 427 l 18
 152.254 385.819 148.122 347.693 148.122 312.875 c 0
 148.122 156.615 231.333 67 354 67 c 10
 372 67 l 18
 497.098 67 610.175 9.46776 610.175 -72.9726 c 0
 610.175 -79.4978 609.467 -86.1789 608 -93 c 2
 604 -111 l 2
 580 -227 474 -294 304 -294 c 9
 33 -294 l 25
EndSplineSet
EndChar

StartChar: sigma
Encoding: 963 963 499
Width: 922
VWidth: 1947
Flags: MW
LayerCount: 2
Fore
SplineSet
-129.855 -84 m 5
 133.145 1152 l 5
 995 1152 l 5
 924.144 819 l 5
 979.036 795 l 5
 792 -84 l 5
 -129.855 -84 l 5
197 597 m 14
 161 427 l 22
 152.254 385.819 148.122 347.693 148.122 312.875 c 4
 148.122 156.615 231.333 67 354 67 c 14
 372 67 l 22
 552 67 671 201 719 427 c 14
 755 597 l 22
 765.391 645.491 770.627 689.858 770.627 729.614 c 4
 770.627 873.509 702.034 957 561 957 c 14
 543 957 l 22
 363 957 245 821 197 597 c 14
1088 933 m 29
 666 932 l 29
EndSplineSet
EndChar

StartChar: tau
Encoding: 964 964 500
Width: 922
VWidth: 2334
Flags: MW
LayerCount: 2
Fore
SplineSet
261 1333 m 5
 1003 1333 l 5
 720 0 l 5
 -22 0 l 5
 261 1333 l 5
71 812 m 21
 145 878 232 932 378 932 c 6
 716 932 l 6
 866 932 962 988 1026 1062 c 13
147 -142 m 21
 245 -88 362 62 392 200 c 5
 547 932 l 13
EndSplineSet
EndChar

StartChar: upsilon
Encoding: 965 965 501
Width: 922
VWidth: 1947
Flags: MW
LayerCount: 2
Fore
SplineSet
-135.594 -111 m 1
 105 1024 l 1
 421.594 1024 l 1
 380 830 l 1
 596 830 l 1
 644.5 1063 l 1
 1034 1063 l 1
 783 -111 l 1
 -135.594 -111 l 1
320.604 1179 m 1
 179 513 l 0
 162.893 436.987 153.813 368.319 153.813 308.916 c 0
 153.813 158.101 212.341 67 363 67 c 3
 573 67 690 244 747 513 c 0
 767.36 608.371 780.32 692.131 780.32 760.407 c 0
 780.32 883.277 738.348 956 622 956 c 11
 504 957 l 25
EndSplineSet
EndChar

StartChar: phi
Encoding: 966 966 502
Width: 922
VWidth: 1947
Flags: MW
LayerCount: 2
Fore
SplineSet
-194.26 -387 m 5
 91.416 957 l 5
 408 957 l 5
 427.547 1047 l 5
 1046.96 1047 l 5
 744.74 -387 l 5
 -194.26 -387 l 5
228.479 -567 m 1
 498 702 l 2
 532.839 866.035 616 956 696 956 c 3
 778.879 956 816.761 879.851 816.761 751.744 c 0
 816.761 705.543 815.216 651.933 802.314 594 c 2
 766.903 435 l 2
 715.813 205.604 551.959 67 363 67 c 3
 196.666 67 111.262 178.045 111.262 357.896 c 0
 111.262 405.11 117.053 457.087 129 513 c 2
 254 1098 l 1
EndSplineSet
EndChar

StartChar: chi
Encoding: 967 967 503
Width: 922
VWidth: 2062
Flags: MW
LayerCount: 2
Fore
SplineSet
105 1023 m 5
 1027 1023 l 5
 728 -387 l 5
 -194 -387 l 5
 105 1023 l 5
999 1311 m 29
 -169 -690 l 21
64 1197 m 5
 692 1014 115 -243 727 -543 c 13
EndSplineSet
EndChar

StartChar: psi
Encoding: 968 968 504
Width: 922
VWidth: 1947
Flags: MW
LayerCount: 2
Fore
SplineSet
-194 -387 m 5
 91 957 l 5
 408 957 l 5
 428 1047 l 5
 760 1047 l 5
 741 957 l 5
 1028 957 l 5
 745 -387 l 5
 -194 -387 l 5
240.595 -510 m 5
 608.532 1221 l 21
922 1149 m 4
 787 513 l 4
 730 244 573 67 363 67 c 7
 197 67 111 178 111 358 c 4
 111 405 117.162 456.966 129 513 c 6
 264 1152 l 5
EndSplineSet
EndChar

StartChar: omega
Encoding: 969 969 505
Width: 922
VWidth: 2334
Flags: MW
LayerCount: 2
Fore
SplineSet
-136 -114 m 1
 106 1024 l 1
 1028 1024 l 1
 786 -114 l 1
 -136 -114 l 1
446 1134 m 17
 346 1094 214 868 179 702 c 10
 101 336 l 18
 94.8766 306.29 91.8907 276.22 91.8907 247.482 c 0
 91.8907 149.503 126.597 67 190 67 c 10
 200 67 l 18
 298 67 374 116 402 247 c 10
 498 700 l 25
 402 247 l 18
 397.534 226.107 395.46 207.299 395.46 190.444 c 0
 395.46 101.616 453.078 67 522 67 c 10
 532 67 l 18
 630 67 711 203 740 337 c 10
 817 702 l 18
 826.211 745.684 830.643 793.524 830.643 840.998 c 0
 830.643 973.928 795.895 1104 734 1132 c 9
EndSplineSet
EndChar

StartChar: dieresiscmb
Encoding: 776 776 508
Width: 922
VWidth: 1947
Flags: MW
LayerCount: 2
Fore
SplineSet
566 1386 m 4
 566 1323 515 1267 453 1267 c 4
 392 1267 339 1320 339 1386 c 4
 339 1456 395 1501 452 1501 c 4
 517 1501 566 1447 566 1386 c 4
942 1386 m 4
 942 1317 887 1267 830 1267 c 4
 770 1267 717 1321 717 1386 c 4
 717 1452 770 1501 830 1501 c 4
 885 1501 942 1456 942 1386 c 4
EndSplineSet
EndChar

StartChar: Djecyrillic
Encoding: 1026 1026 512
Width: 922
VWidth: 2334
Flags: MW
LayerCount: 2
Fore
SplineSet
-42 0 m 1
 268 1446 l 1
 938 1446 l 1
 876 1152 l 1
 1053.68 1146 l 1
 784.492 -120 l 1
 426.492 -120 l 1
 450 0 l 1
 -42 0 l 1
306 263 m 25
 339 417 l 18
 410 755 583 887 659 887 c 10
 677 887 l 18
 758.518 887 811.56 844.963 811.56 753.072 c 0
 811.56 733.367 809.121 711.368 804 687 c 2
 729 336 l 2
 699 194 648 92 533 92 c 10
 515 92 l 25
528 1308 m 25
 216 -153 l 25
54 1308 m 25
 1058 1308 l 25
EndSplineSet
EndChar

StartChar: Ljecyrillic
Encoding: 1033 1033 513
Width: 922
VWidth: 1947
Flags: MW
LayerCount: 2
Fore
SplineSet
191 1425 m 5
 1113 1425 l 5
 789 -100 l 5
 163 -100 l 5
 184 0 l 5
 -112 0 l 5
 191 1425 l 5
-22 -126 m 25
 338 1075 l 18
 370 1183 457 1308 499 1308 c 10
 638 1308 l 1
 380 92 l 1
 448 92 l 2
 637 92 732 158 770 337 c 2
 803 495 l 2
 809.919 527.112 813.376 556.329 813.376 582.666 c 0
 813.376 704.779 739.065 765 591 765 c 2
 523 765 l 25
EndSplineSet
EndChar

StartChar: Njecyrillic
Encoding: 1034 1034 514
Width: 922
VWidth: 1947
Flags: MW
LayerCount: 2
Fore
SplineSet
186 1400 m 5
 1108 1400 l 5
 789 -100 l 5
 163 -100 l 5
 184 0 l 5
 -112 0 l 5
 186 1400 l 5
348 1542 m 25
 -24 -186 l 25
183 765 m 25
 591 765 l 2
 739.065 765 813.376 704.779 813.376 582.666 c 0
 813.376 556.329 809.919 527.112 803 495 c 2
 770 337 l 2
 732 158 637 92 448 92 c 2
 380 92 l 1
 687 1542 l 1
EndSplineSet
EndChar

StartChar: Tshecyrillic
Encoding: 1035 1035 515
Width: 922
VWidth: 1947
Flags: MW
LayerCount: 2
Fore
SplineSet
269.355 1446 m 1
 941.355 1446 l 1
 878 1152 l 1
 1054.87 1152 l 1
 808.086 0 l 1
 -40 0 l 1
 269.355 1446 l 1
621 -177 m 25
 804 687 l 18
 809.159 711.359 811.56 733.367 811.56 753.072 c 3
 811.56 844.963 758.518 887 677 887 c 10
 659 887 l 18
 583 887 410 755 339 417 c 10
 306 263 l 25
528 1308 m 25
 213 -177 l 25
86 1308 m 17
 1028 1308 l 9
EndSplineSet
EndChar

StartChar: Dzhecyrillic
Encoding: 1039 1039 516
Width: 922
VWidth: 2334
Flags: MW
LayerCount: 2
Fore
SplineSet
-193.622 -384 m 5
 186.378 1401 l 5
 1106 1401 l 5
 723 -384 l 5
 -193.622 -384 l 5
369 92 m 25
 238.682 -519 l 25
395.85 1533 m 25
 90 92 l 25
 648 92 l 17
 953.85 1533 l 9
EndSplineSet
EndChar

StartChar: djecyrillic
Encoding: 1106 1106 517
Width: 922
VWidth: 2334
Flags: MW
LayerCount: 2
Fore
SplineSet
-201 -410 m 1
 -141.918 -140.75 l 1
 180 -144 l 1
 238 0 l 1
 -81 0 l 1
 220.996 1426 l 1
 794 1426 l 1
 697.604 969 l 1
 1127.36 969 l 1
 837 -410 l 1
 -201 -410 l 1
-67 1153 m 25
 838 1153 l 25
170 -228 m 1
 195 -271 244 -294 301 -294 c 10
 352 -294 l 18
 486 -294 592 -170 622 -28 c 10
 746 553 l 18
 756.005 600.129 761.92 641.157 761.92 676.03 c 0
 761.92 773.61 715.608 823 583 823 c 10
 565 823 l 18
 407 823 247 597 218 463 c 10
 201 379 l 25
465 1620 m 25
 102 -84 l 25
EndSplineSet
EndChar

StartChar: dzhecyrillic
Encoding: 1119 1119 519
Width: 922
VWidth: 1947
Flags: MW
LayerCount: 2
Fore
SplineSet
105 1024 m 5
 1027 1024 l 5
 727.739 -387 l 5
 -194.261 -387 l 5
 105 1024 l 5
246.973 -480 m 25
 369 93 l 25
319.328 1173 m 25
 90 93 l 25
 648 93 l 25
 876.328 1173 l 25
EndSplineSet
EndChar

StartChar: ljecyrillic
Encoding: 1113 1113 520
Width: 922
VWidth: 1947
Flags: MW
LayerCount: 2
Fore
SplineSet
111 1048 m 5
 1033 1048 l 5
 810 0 l 5
 -112 0 l 5
 111 1048 l 5
-10 -99 m 16
 184 615 l 2
 224 763 279 883 411 931 c 9
 549 931 l 25
 370 92 l 25
 508 92 l 18
 603 92 701 156 730 291 c 2
 740 337 l 2
 744.41 357.949 746.489 377.857 746.489 396.531 c 0
 746.489 496.41 687.036 561 607 561 c 10
 469 561 l 25
EndSplineSet
EndChar

StartChar: njecyrillic
Encoding: 1114 1114 521
Width: 922
VWidth: 1947
Flags: MW
LayerCount: 2
Fore
SplineSet
105 1024 m 5
 1027 1024 l 5
 810 0 l 5
 -112 0 l 5
 105 1024 l 5
268.764 1128 m 25
 0 -153 l 25
588.764 1128 m 25
 370 92 l 25
 508 92 l 18
 603 92 701 156 730 291 c 2
 740 337 l 2
 744.41 357.949 746.489 377.857 746.489 396.531 c 3
 746.489 496.41 687.036 561 607 561 c 10
 469 561 l 25
 149 561 l 25
EndSplineSet
EndChar

StartChar: apostrophereverse
Encoding: 8219 8219 523
Width: 922
VWidth: 1708
Flags: W
HStem: 1346.92 76.4844<705.276 804.119>
LayerCount: 2
Fore
SplineSet
742 1305 m 0
 742 1236 689 1175 612 1175 c 0
 538 1175 483 1235 483 1305 c 0
 483 1373 534 1435 612 1435 c 0
 688 1435 742 1375 742 1305 c 0
486 1332 m 9
 692 1201 l 17
 649.919 1170.3 634.131 1141.03 634.131 1114.83 c 0
 634.131 1065.07 691.075 1026.38 733 1010 c 9
 697 936 l 17
 461.454 961.763 454 1181 486 1332 c 9
EndSplineSet
EndChar

StartChar: arrowleft
Encoding: 8592 8592 526
Width: 922
VWidth: 1708
Flags: W
LayerCount: 2
Fore
SplineSet
922 -99 m 5
 50 -99 l 5
 50 1224 l 5
 922 1224 l 5
 922 -99 l 5
461 960 m 29
 90 600 l 29
 461 240 l 29
90 600 m 29
 872 600 l 29
EndSplineSet
EndChar

StartChar: arrowright
Encoding: 8594 8594 527
Width: 922
VWidth: 1708
Flags: MW
LayerCount: 2
Fore
SplineSet
0 -99 m 1
 0 1224 l 1
 872 1224 l 1
 872 -99 l 1
 0 -99 l 1
461 960 m 25
 832 600 l 25
 461 240 l 25
832 600 m 25
 50 600 l 25
EndSplineSet
EndChar

StartChar: lthorizform
Encoding: 9472 9472 528
Width: 922
Flags: W
LayerCount: 2
Fore
SplineSet
922 523 m 1
 -0 523 l 1
EndSplineSet
EndChar

StartChar: ltvertform
Encoding: 9474 9474 529
Width: 922
Flags: W
LayerCount: 2
Fore
SplineSet
461 1775 m 1
 461 -615 l 1
EndSplineSet
EndChar

StartChar: rightanglenw
Encoding: 9484 9484 530
Width: 922
Flags: W
LayerCount: 2
Fore
SplineSet
461 -615 m 1
 461 523 l 1
 922 523 l 1
EndSplineSet
EndChar

StartChar: rightanglene
Encoding: 9488 9488 531
Width: 922
Flags: W
LayerCount: 2
Fore
SplineSet
461 -615 m 1
 461 523 l 1
 -0 523 l 1
EndSplineSet
EndChar

StartChar: rightanglesw
Encoding: 9492 9492 532
Width: 922
Flags: W
LayerCount: 2
Fore
SplineSet
461 1775 m 5
 461 523 l 1
 922 523 l 1
EndSplineSet
EndChar

StartChar: rightanglese
Encoding: 9496 9496 533
Width: 922
Flags: W
LayerCount: 2
Fore
SplineSet
461 1775 m 5
 461 523 l 1
 -0 523 l 1
EndSplineSet
EndChar

StartChar: ltvertrightform
Encoding: 9500 9500 534
Width: 922
Flags: W
LayerCount: 2
Fore
SplineSet
461 1775 m 5
 461 -615 l 1
922 523 m 1
 461 523 l 1
EndSplineSet
EndChar

StartChar: ltvertleftform
Encoding: 9508 9508 535
Width: 922
Flags: W
LayerCount: 2
Fore
SplineSet
461 1775 m 5
 461 -615 l 1
461 523 m 1
 -0 523 l 1
EndSplineSet
EndChar

StartChar: ltdnhorizform
Encoding: 9516 9516 536
Width: 922
Flags: W
LayerCount: 2
Fore
SplineSet
461 523 m 1
 461 -615 l 1
922 523 m 1
 -0 523 l 1
EndSplineSet
EndChar

StartChar: ltuphorizform
Encoding: 9524 9524 537
Width: 922
Flags: W
LayerCount: 2
Fore
SplineSet
461 1775 m 5
 461 523 l 1
922 523 m 1
 -0 523 l 1
EndSplineSet
EndChar

StartChar: ltverthorizform
Encoding: 9532 9532 538
Width: 922
Flags: W
LayerCount: 2
Fore
SplineSet
461 1775 m 5
 461 -615 l 1
922 523 m 1
 -0 523 l 1
EndSplineSet
EndChar

StartChar: horizdblbar
Encoding: 9552 9552 539
Width: 922
Flags: W
LayerCount: 2
Fore
SplineSet
922 363 m 1
 0 363 l 1
922 683 m 1
 0 683 l 1
EndSplineSet
EndChar

StartChar: vertdblbar
Encoding: 9553 9553 540
Width: 922
Flags: W
LayerCount: 2
Fore
SplineSet
301 1775 m 5
 301 -615 l 1
621 1775 m 5
 621 -615 l 1
EndSplineSet
EndChar

StartChar: dnrtdblform
Encoding: 9554 9554 541
Width: 922
Flags: W
LayerCount: 2
Fore
SplineSet
922 363 m 1
 461 363 l 1
922 683 m 1
 461 683 l 1
 461 -615 l 1
EndSplineSet
EndChar

StartChar: dndblrtform
Encoding: 9555 9555 542
Width: 922
Flags: W
LayerCount: 2
Fore
SplineSet
301 -615 m 1
 301 523 l 1
 922 523 l 1
621 523 m 1
 621 -615 l 1
EndSplineSet
EndChar

StartChar: dbldnrtform
Encoding: 9556 9556 543
Width: 922
Flags: W
LayerCount: 2
Fore
SplineSet
922 363 m 1
 621 363 l 1
 621 -615 l 1
922 683 m 1
 301 683 l 1
 301 -615 l 1
EndSplineSet
EndChar

StartChar: dnleftdblform
Encoding: 9557 9557 544
Width: 922
Flags: W
LayerCount: 2
Fore
SplineSet
461 363 m 1
 0 363 l 1
0 683 m 1
 461 683 l 1
 461 -615 l 1
EndSplineSet
EndChar

StartChar: dndblleftform
Encoding: 9558 9558 545
Width: 922
Flags: W
LayerCount: 2
Fore
SplineSet
301 523 m 1
 301 -615 l 1
621 -615 m 1
 621 523 l 1
 -0 523 l 1
EndSplineSet
EndChar

StartChar: dbldnleftform
Encoding: 9559 9559 546
Width: 922
Flags: W
LayerCount: 2
Fore
SplineSet
0 363 m 1
 301 363 l 1
 301 -615 l 1
0 683 m 1
 621 683 l 1
 621 -615 l 1
EndSplineSet
EndChar

StartChar: uprtdblform
Encoding: 9560 9560 547
Width: 922
Flags: W
LayerCount: 2
Fore
SplineSet
922 363 m 1
 461 363 l 1
 461 1775 l 5
922 683 m 1
 461 683 l 1
EndSplineSet
EndChar

StartChar: updblrtform
Encoding: 9561 9561 548
Width: 922
Flags: W
LayerCount: 2
Fore
SplineSet
301 1775 m 5
 301 523 l 1
 922 523 l 1
621 1775 m 5
 621 523 l 1
EndSplineSet
EndChar

StartChar: dbluprtform
Encoding: 9562 9562 549
Width: 922
Flags: W
LayerCount: 2
Fore
SplineSet
922 363 m 1
 301 363 l 1
 301 1775 l 5
922 683 m 1
 621 683 l 1
 621 1775 l 5
EndSplineSet
EndChar

StartChar: upleftdblform
Encoding: 9563 9563 550
Width: 922
Flags: W
LayerCount: 2
Fore
SplineSet
0 363 m 1
 461 363 l 1
 461 1775 l 5
461 683 m 1
 0 683 l 1
EndSplineSet
EndChar

StartChar: updblleftform
Encoding: 9564 9564 551
Width: 922
Flags: W
LayerCount: 2
Fore
SplineSet
301 1775 m 5
 301 523 l 1
621 1775 m 5
 621 523 l 1
 -0 523 l 1
EndSplineSet
EndChar

StartChar: dblupleftform
Encoding: 9565 9565 552
Width: 922
Flags: W
LayerCount: 2
Fore
SplineSet
0 363 m 1
 621 363 l 1
 621 1775 l 5
0 683 m 1
 301 683 l 1
 301 1775 l 5
EndSplineSet
EndChar

StartChar: vertrtdblform
Encoding: 9566 9566 553
Width: 922
Flags: W
LayerCount: 2
Fore
SplineSet
922 363 m 1
 461 363 l 1
922 683 m 1
 461 683 l 1
461 1775 m 5
 461 -615 l 1
EndSplineSet
EndChar

StartChar: vertdblrtform
Encoding: 9567 9567 554
Width: 922
Flags: W
LayerCount: 2
Fore
SplineSet
301 1775 m 1
 301 -615 l 1
621 1775 m 1
 621 -615 l 1
922 523 m 1
 621 523 l 1
EndSplineSet
EndChar

StartChar: dblvertrtform
Encoding: 9568 9568 555
Width: 922
Flags: W
LayerCount: 2
Fore
SplineSet
922 363 m 1
 621 363 l 1
 621 -615 l 1
922 683 m 1
 621 683 l 1
 621 1775 l 5
301 1775 m 5
 301 -615 l 1
EndSplineSet
EndChar

StartChar: vertleftdblform
Encoding: 9569 9569 556
Width: 922
Flags: W
LayerCount: 2
Fore
SplineSet
461 363 m 1
 0 363 l 1
461 683 m 1
 0 683 l 1
461 1775 m 5
 461 -615 l 1
EndSplineSet
EndChar

StartChar: vertdblleftform
Encoding: 9570 9570 557
Width: 922
Flags: W
LayerCount: 2
Fore
SplineSet
301 1775 m 5
 301 -615 l 1
621 1775 m 5
 621 -615 l 1
301 523 m 1
 -0 523 l 1
EndSplineSet
EndChar

StartChar: dblvertleftform
Encoding: 9571 9571 558
Width: 922
Flags: W
LayerCount: 2
Fore
SplineSet
0 363 m 1
 301 363 l 1
 301 -615 l 1
0 683 m 1
 301 683 l 1
 301 1775 l 5
621 1775 m 5
 621 -615 l 1
EndSplineSet
EndChar

StartChar: dnhorizdblform
Encoding: 9572 9572 559
Width: 922
Flags: W
LayerCount: 2
Fore
SplineSet
922 363 m 1
 0 363 l 1
922 683 m 1
 0 683 l 1
461 363 m 1
 461 -615 l 1
EndSplineSet
EndChar

StartChar: dndblhorizform
Encoding: 9573 9573 560
Width: 922
Flags: W
LayerCount: 2
Fore
SplineSet
301 523 m 1
 301 -615 l 1
621 523 m 1
 621 -615 l 1
922 523 m 1
 0 523 l 1
EndSplineSet
EndChar

StartChar: dbldnhorizform
Encoding: 9574 9574 561
Width: 922
Flags: W
LayerCount: 2
Fore
SplineSet
922 363 m 1
 621 363 l 1
 621 -615 l 1
0 363 m 1
 301 363 l 1
 301 -615 l 1
922 683 m 1
 0 683 l 1
EndSplineSet
EndChar

StartChar: uphorizdblform
Encoding: 9575 9575 562
Width: 922
Flags: W
LayerCount: 2
Fore
SplineSet
922 363 m 1
 0 363 l 1
922 683 m 1
 0 683 l 1
461 1775 m 5
 461 683 l 1
EndSplineSet
EndChar

StartChar: updblhorizform
Encoding: 9576 9576 563
Width: 922
Flags: W
LayerCount: 2
Fore
SplineSet
301 1775 m 5
 301 523 l 1
621 1775 m 5
 621 523 l 1
922 523 m 1
 -0 523 l 1
EndSplineSet
EndChar

StartChar: dbluphorizform
Encoding: 9577 9577 564
Width: 922
Flags: W
LayerCount: 2
Fore
SplineSet
922 363 m 1
 0 363 l 1
922 683 m 1
 621 683 l 1
 621 1775 l 5
0 683 m 1
 301 683 l 1
 301 1775 l 5
EndSplineSet
EndChar

StartChar: verthorizdblform
Encoding: 9578 9578 565
Width: 922
Flags: W
LayerCount: 2
Fore
SplineSet
922 363 m 1
 0 363 l 1
922 715 m 1
 0 715 l 1
461 1775 m 1
 461 715 l 1
461 363 m 1
 461 -615 l 1
EndSplineSet
EndChar

StartChar: vertdblhorizform
Encoding: 9579 9579 566
Width: 922
Flags: W
LayerCount: 2
Fore
SplineSet
301 1775 m 1
 301 -615 l 1
621 1775 m 1
 621 -615 l 1
922 523 m 1
 621 523 l 1
301 523 m 1
 -0 523 l 1
EndSplineSet
EndChar

StartChar: dblverthorizform
Encoding: 9580 9580 567
Width: 922
Flags: W
LayerCount: 2
Fore
SplineSet
922 363 m 1
 621 363 l 1
 621 -615 l 1
0 363 m 1
 301 363 l 1
 301 -615 l 1
922 683 m 1
 621 683 l 1
 621 1775 l 5
0 683 m 1
 301 683 l 1
 301 1775 l 5
EndSplineSet
EndChar

StartChar: upblock
Encoding: 9600 9600 568
Width: 922
Flags: W
VStem: -0 922<523 1775>
LayerCount: 2
Fore
SplineSet
922 523 m 1
 -0 523 l 1
 0 1775 l 5
 922 1775 l 5
 922 523 l 1
EndSplineSet
EndChar

StartChar: dnblock
Encoding: 9604 9604 569
Width: 922
Flags: W
HStem: -615 1138<0 922>
VStem: -0 922<-615 523>
LayerCount: 2
Fore
SplineSet
922 -615 m 1
 -0 -615 l 1
 -0 523 l 1
 922 523 l 1
 922 -615 l 1
EndSplineSet
Validated: 3073
EndChar

StartChar: block
Encoding: 9608 9608 570
Width: 922
Flags: W
VStem: -0 922<-615 1775>
LayerCount: 2
Fore
SplineSet
-0 -615 m 1
 0 1775 l 5
 922 1775 l 5
 922 -615 l 1
 -0 -615 l 1
EndSplineSet
EndChar

StartChar: lfblock
Encoding: 9612 9612 571
Width: 922
Flags: W
VStem: -0 461<-615 1775>
LayerCount: 2
Fore
SplineSet
-0 -615 m 1
 0 1775 l 5
 461 1775 l 5
 461 -615 l 1
 -0 -615 l 1
EndSplineSet
EndChar

StartChar: rtblock
Encoding: 9616 9616 572
Width: 922
Flags: W
VStem: 461 461<-615 1775>
LayerCount: 2
Fore
SplineSet
461 -615 m 1
 461 1775 l 5
 922 1775 l 5
 922 -615 l 1
 461 -615 l 1
EndSplineSet
EndChar

StartChar: shadelight
Encoding: 9617 9617 573
Width: 922
Flags: W
HStem: -514 100<153 230 461 540 769 846> -315 100<0 77 307 385 616 693> -115 99<153 230 461 540 769 846> 83 100<0 77 307 385 616 693> 283 99<153 230 461 540 769 846> 482 99<0 77 307 385 616 693> 681 100<153 230 461 540 769 846> 881 99<0 77 307 385 616 693> 1080 99<153 230 461 540 769 846> 1278 100<0 77 307 385 616 693> 1477 100<153 230 461 540 769 846> 1677 98<0 77 307 385 616 693>
VStem: 0 77<-315 -215 83 183 482 581 881 980 1278 1378 1677 1775> 153 77<-514 -414 -115 -16 283 382 681 781 1080 1179 1477 1577> 307 78<-315 -215 83 183 482 581 881 980 1278 1378 1677 1775> 461 79<-514 -414 -115 -16 283 382 681 781 1080 1179 1477 1577> 616 77<-315 -215 83 183 482 581 881 980 1278 1378 1677 1775> 769 77<-514 -414 -115 -16 283 382 681 781 1080 1179 1477 1577>
LayerCount: 2
Fore
SplineSet
0 1378 m 1
 77 1378 l 1
 77 1278 l 1
 0 1278 l 1
 0 1378 l 1
307 1378 m 1
 385 1378 l 1
 385 1278 l 1
 307 1278 l 1
 307 1378 l 1
616 1378 m 1
 693 1378 l 1
 693 1278 l 1
 616 1278 l 1
 616 1378 l 1
153 1179 m 1
 230 1179 l 1
 230 1080 l 1
 153 1080 l 1
 153 1179 l 1
461 1179 m 1
 540 1179 l 1
 540 1080 l 1
 461 1080 l 1
 461 1179 l 1
769 1179 m 1
 846 1179 l 1
 846 1080 l 1
 769 1080 l 1
 769 1179 l 1
616 980 m 1
 693 980 l 1
 693 881 l 1
 616 881 l 1
 616 980 l 1
307 980 m 1
 385 980 l 1
 385 881 l 1
 307 881 l 1
 307 980 l 1
0 980 m 1
 77 980 l 1
 77 881 l 1
 0 881 l 1
 0 980 l 1
769 781 m 1
 846 781 l 1
 846 681 l 1
 769 681 l 1
 769 781 l 1
461 781 m 1
 540 781 l 1
 540 681 l 1
 461 681 l 1
 461 781 l 1
153 781 m 1
 230 781 l 1
 230 681 l 1
 153 681 l 1
 153 781 l 1
0 581 m 1
 77 581 l 1
 77 482 l 1
 0 482 l 1
 0 581 l 1
307 581 m 1
 385 581 l 1
 385 482 l 1
 307 482 l 1
 307 581 l 1
616 581 m 1
 693 581 l 1
 693 482 l 1
 616 482 l 1
 616 581 l 1
769 382 m 1
 846 382 l 1
 846 283 l 1
 769 283 l 1
 769 382 l 1
461 382 m 1
 540 382 l 1
 540 283 l 1
 461 283 l 1
 461 382 l 1
153 382 m 1
 230 382 l 1
 230 283 l 1
 153 283 l 1
 153 382 l 1
0 183 m 1
 77 183 l 1
 77 83 l 1
 0 83 l 1
 0 183 l 1
307 183 m 1
 385 183 l 1
 385 83 l 1
 307 83 l 1
 307 183 l 1
616 183 m 1
 693 183 l 1
 693 83 l 1
 616 83 l 1
 616 183 l 1
153 -16 m 1
 230 -16 l 1
 230 -115 l 1
 153 -115 l 1
 153 -16 l 1
461 -16 m 1
 540 -16 l 1
 540 -115 l 1
 461 -115 l 1
 461 -16 l 1
769 -16 m 1
 846 -16 l 1
 846 -115 l 1
 769 -115 l 1
 769 -16 l 1
616 -215 m 1
 693 -215 l 1
 693 -315 l 1
 616 -315 l 1
 616 -215 l 1
307 -215 m 1
 385 -215 l 1
 385 -315 l 1
 307 -315 l 1
 307 -215 l 1
0 -215 m 1
 77 -215 l 1
 77 -315 l 1
 0 -315 l 1
 0 -215 l 1
153 -414 m 1
 230 -414 l 1
 230 -514 l 1
 153 -514 l 1
 153 -414 l 1
461 -414 m 1
 540 -414 l 1
 540 -514 l 1
 461 -514 l 1
 461 -414 l 1
769 -414 m 1
 846 -414 l 1
 846 -514 l 1
 769 -514 l 1
 769 -414 l 1
153 1577 m 1
 230 1577 l 1
 230 1477 l 1
 153 1477 l 1
 153 1577 l 1
461 1577 m 1
 540 1577 l 1
 540 1477 l 1
 461 1477 l 1
 461 1577 l 1
769 1577 m 1
 846 1577 l 1
 846 1477 l 1
 769 1477 l 1
 769 1577 l 1
0 1775 m 1
 77 1775 l 1
 77 1677 l 1
 0 1677 l 1
 0 1775 l 1
307 1775 m 1
 385 1775 l 1
 385 1677 l 1
 307 1677 l 1
 307 1775 l 1
616 1775 m 1
 693 1775 l 1
 693 1677 l 1
 616 1677 l 1
 616 1775 l 1
EndSplineSet
EndChar

StartChar: shademedium
Encoding: 9618 9618 574
Width: 922
Flags: W
HStem: -514 100<0 77 153 230 307 384 461 539 616 692 769 846> -315 100<77 153 230 307 384 461 539 616 692 769 846 922> -115 99<0 77 153 230 307 384 461 539 616 692 769 846> 83 100<77 153 230 307 384 461 539 616 692 769 846 922> 283 99<0 77 153 230 307 384 461 539 616 692 769 846> 482 99<77 153 230 307 384 461 539 616 692 769 846 922> 681 100<0 77 153 230 307 384 461 539 616 692 769 846> 881 99<77 153 230 307 384 461 539 616 692 769 846 922> 1080 99<0 77 153 230 307 384 461 539 616 692 769 846> 1278 100<77 153 230 307 384 461 539 616 692 769 846 922> 1477 100<0 77 153 230 307 384 461 539 616 692 769 846> 1677 98<77 153 230 307 384 461 539 616 692 769 846 922>
VStem: 0 77<-514 -414 -115 -16 283 382 681 781 1080 1179 1477 1577> 77 76<-315 -215 83 183 482 581 881 980 1278 1378 1677 1775> 153 77<-514 -414 -115 -16 283 382 681 781 1080 1179 1477 1577> 230 77<-315 -215 83 183 482 581 881 980 1278 1378 1677 1775> 307 77<-514 -414 -115 -16 283 382 681 781 1080 1179 1477 1577> 384 77<-315 -215 83 183 482 581 881 980 1278 1378 1677 1775> 461 78<-514 -414 -115 -16 283 382 681 781 1080 1179 1477 1577> 539 77<-315 -215 83 183 482 581 881 980 1278 1378 1677 1775> 616 76<-514 -414 -115 -16 283 382 681 781 1080 1179 1477 1577> 692 77<-315 -215 83 183 482 581 881 980 1278 1378 1677 1775> 769 77<-514 -414 -115 -16 283 382 681 781 1080 1179 1477 1577> 846 76<-315 -215 83 183 482 581 881 980 1278 1378 1677 1775>
LayerCount: 2
Fore
SplineSet
77 1378 m 1
 153 1378 l 1
 153 1278 l 1
 77 1278 l 1
 77 1378 l 1
230 1378 m 1
 307 1378 l 1
 307 1278 l 1
 230 1278 l 1
 230 1378 l 1
384 1378 m 1
 461 1378 l 1
 461 1278 l 1
 384 1278 l 1
 384 1378 l 1
539 1378 m 1
 616 1378 l 1
 616 1278 l 1
 539 1278 l 1
 539 1378 l 1
692 1378 m 1
 769 1378 l 1
 769 1278 l 1
 692 1278 l 1
 692 1378 l 1
846 1378 m 1
 922 1378 l 1
 922 1278 l 1
 846 1278 l 1
 846 1378 l 1
0 1179 m 1
 77 1179 l 1
 77 1080 l 1
 0 1080 l 1
 0 1179 l 1
153 1179 m 1
 230 1179 l 1
 230 1080 l 1
 153 1080 l 1
 153 1179 l 1
307 1179 m 1
 384 1179 l 1
 384 1080 l 1
 307 1080 l 1
 307 1179 l 1
461 1179 m 1
 539 1179 l 1
 539 1080 l 1
 461 1080 l 1
 461 1179 l 1
616 1179 m 1
 692 1179 l 1
 692 1080 l 1
 616 1080 l 1
 616 1179 l 1
769 1179 m 1
 846 1179 l 1
 846 1080 l 1
 769 1080 l 1
 769 1179 l 1
77 980 m 1
 153 980 l 1
 153 881 l 1
 77 881 l 1
 77 980 l 1
230 980 m 1
 307 980 l 1
 307 881 l 1
 230 881 l 1
 230 980 l 1
384 980 m 1
 461 980 l 1
 461 881 l 1
 384 881 l 1
 384 980 l 1
539 980 m 1
 616 980 l 1
 616 881 l 1
 539 881 l 1
 539 980 l 1
692 980 m 1
 769 980 l 1
 769 881 l 1
 692 881 l 1
 692 980 l 1
846 980 m 1
 922 980 l 1
 922 881 l 1
 846 881 l 1
 846 980 l 1
0 781 m 1
 77 781 l 1
 77 681 l 1
 0 681 l 1
 0 781 l 1
153 781 m 1
 230 781 l 1
 230 681 l 1
 153 681 l 1
 153 781 l 1
307 781 m 1
 384 781 l 1
 384 681 l 1
 307 681 l 1
 307 781 l 1
461 781 m 1
 539 781 l 1
 539 681 l 1
 461 681 l 1
 461 781 l 1
616 781 m 1
 692 781 l 1
 692 681 l 1
 616 681 l 1
 616 781 l 1
769 781 m 1
 846 781 l 1
 846 681 l 1
 769 681 l 1
 769 781 l 1
77 581 m 1
 153 581 l 1
 153 482 l 1
 77 482 l 1
 77 581 l 1
230 581 m 1
 307 581 l 1
 307 482 l 1
 230 482 l 1
 230 581 l 1
384 581 m 1
 461 581 l 1
 461 482 l 1
 384 482 l 1
 384 581 l 1
539 581 m 1
 616 581 l 1
 616 482 l 1
 539 482 l 1
 539 581 l 1
692 581 m 1
 769 581 l 1
 769 482 l 1
 692 482 l 1
 692 581 l 1
846 581 m 1
 922 581 l 1
 922 482 l 1
 846 482 l 1
 846 581 l 1
0 382 m 1
 77 382 l 1
 77 283 l 1
 0 283 l 1
 0 382 l 1
307 382 m 1
 384 382 l 1
 384 283 l 1
 307 283 l 1
 307 382 l 1
461 382 m 1
 539 382 l 1
 539 283 l 1
 461 283 l 1
 461 382 l 1
616 382 m 1
 692 382 l 1
 692 283 l 1
 616 283 l 1
 616 382 l 1
769 382 m 1
 846 382 l 1
 846 283 l 1
 769 283 l 1
 769 382 l 1
153 382 m 1
 230 382 l 1
 230 283 l 1
 153 283 l 1
 153 382 l 1
846 183 m 1
 922 183 l 1
 922 83 l 1
 846 83 l 1
 846 183 l 1
692 183 m 1
 769 183 l 1
 769 83 l 1
 692 83 l 1
 692 183 l 1
539 183 m 1
 616 183 l 1
 616 83 l 1
 539 83 l 1
 539 183 l 1
384 183 m 1
 461 183 l 1
 461 83 l 1
 384 83 l 1
 384 183 l 1
230 183 m 1
 307 183 l 1
 307 83 l 1
 230 83 l 1
 230 183 l 1
77 183 m 1
 153 183 l 1
 153 83 l 1
 77 83 l 1
 77 183 l 1
0 -16 m 1
 77 -16 l 1
 77 -115 l 1
 0 -115 l 1
 0 -16 l 1
153 -16 m 1
 230 -16 l 1
 230 -115 l 1
 153 -115 l 1
 153 -16 l 1
307 -16 m 1
 384 -16 l 1
 384 -115 l 1
 307 -115 l 1
 307 -16 l 1
461 -16 m 1
 539 -16 l 1
 539 -115 l 1
 461 -115 l 1
 461 -16 l 1
616 -16 m 1
 692 -16 l 1
 692 -115 l 1
 616 -115 l 1
 616 -16 l 1
769 -16 m 1
 846 -16 l 1
 846 -115 l 1
 769 -115 l 1
 769 -16 l 1
846 -215 m 1
 922 -215 l 1
 922 -315 l 1
 846 -315 l 1
 846 -215 l 1
692 -215 m 1
 769 -215 l 1
 769 -315 l 1
 692 -315 l 1
 692 -215 l 1
539 -215 m 1
 616 -215 l 1
 616 -315 l 1
 539 -315 l 1
 539 -215 l 1
384 -215 m 1
 461 -215 l 1
 461 -315 l 1
 384 -315 l 1
 384 -215 l 1
230 -215 m 1
 307 -215 l 1
 307 -315 l 1
 230 -315 l 1
 230 -215 l 1
77 -215 m 1
 153 -215 l 1
 153 -315 l 1
 77 -315 l 1
 77 -215 l 1
0 -414 m 1
 77 -414 l 1
 77 -514 l 1
 0 -514 l 1
 0 -414 l 1
153 -414 m 1
 230 -414 l 1
 230 -514 l 1
 153 -514 l 1
 153 -414 l 1
307 -414 m 1
 384 -414 l 1
 384 -514 l 1
 307 -514 l 1
 307 -414 l 1
461 -414 m 1
 539 -414 l 1
 539 -514 l 1
 461 -514 l 1
 461 -414 l 1
616 -414 m 1
 692 -414 l 1
 692 -514 l 1
 616 -514 l 1
 616 -414 l 1
769 -414 m 1
 846 -414 l 1
 846 -514 l 1
 769 -514 l 1
 769 -414 l 1
0 1577 m 1
 77 1577 l 1
 77 1477 l 1
 0 1477 l 1
 0 1577 l 1
153 1577 m 1
 230 1577 l 1
 230 1477 l 1
 153 1477 l 1
 153 1577 l 1
307 1577 m 1
 384 1577 l 1
 384 1477 l 1
 307 1477 l 1
 307 1577 l 1
461 1577 m 1
 539 1577 l 1
 539 1477 l 1
 461 1477 l 1
 461 1577 l 1
616 1577 m 1
 692 1577 l 1
 692 1477 l 1
 616 1477 l 1
 616 1577 l 1
769 1577 m 1
 846 1577 l 1
 846 1477 l 1
 769 1477 l 1
 769 1577 l 1
77 1775 m 1
 153 1775 l 1
 153 1677 l 1
 77 1677 l 1
 77 1775 l 1
230 1775 m 1
 307 1775 l 1
 307 1677 l 1
 230 1677 l 1
 230 1775 l 1
384 1775 m 1
 461 1775 l 1
 461 1677 l 1
 384 1677 l 1
 384 1775 l 1
539 1775 m 1
 616 1775 l 1
 616 1677 l 1
 539 1677 l 1
 539 1775 l 1
692 1775 m 1
 769 1775 l 1
 769 1677 l 1
 692 1677 l 1
 692 1775 l 1
846 1775 m 1
 922 1775 l 1
 922 1677 l 1
 846 1677 l 1
 846 1775 l 1
EndSplineSet
EndChar

StartChar: shadedark
Encoding: 9619 9619 575
Width: 922
Flags: W
HStem: -615 300<0 77 153 230 307 384 461 539 616 692 769 846> -615 101<77 153 230 307 384 461 539 616 692 769 846 922> -414 299<77 153 230 307 384 461 539 616 692 769 846 922> -215 299<0 77 153 230 307 384 461 539 616 692 769 846> -16 299<77 153 230 307 384 461 539 616 692 769 846 922> 183 299<0 77 153 230 307 384 461 539 616 692 769 846> 382 299<77 153 230 307 384 461 539 616 692 769 846 922> 581 299<0 77 153 230 307 384 461 539 616 692 769 846> 781 299<77 153 230 307 384 461 539 616 692 769 846 922> 980 299<0 77 153 230 307 384 461 539 616 692 769 846> 1179 299<77 153 230 307 384 461 539 616 692 769 846 922> 1378 299<0 77 153 230 307 384 461 539 616 692 769 846> 1577 198<77 153 230 307 384 461 539 616 692 769 846 922>
VStem: 0 77<-514 -414 -115 -16 283 382 681 781 1080 1179 1478 1577> 77 76<-315 -215 84 183 482 581 881 980 1279 1378 1677 1775> 153 77<-514 -414 -115 -16 283 382 681 781 1080 1179 1478 1577> 230 77<-315 -215 84 183 482 581 880 980 1279 1378 1677 1775> 307 77<-514 -414 -115 -16 283 382 681 781 1080 1179 1478 1577> 384 77<-315 -215 84 183 482 581 880 980 1279 1378 1677 1775> 461 78<-514 -414 -115 -16 283 382 681 781 1080 1179 1478 1577> 539 77<-315 -215 84 183 482 581 880 980 1279 1378 1677 1775> 616 76<-514 -414 -115 -16 283 382 681 781 1080 1179 1478 1577> 692 77<-315 -215 84 183 482 581 880 980 1279 1378 1677 1775> 769 77<-514 -414 -115 -16 283 382 681 781 1080 1179 1478 1577> 846 76<-315 -215 84 183 482 581 880 980 1279 1378 1677 1775>
LayerCount: 2
Fore
SplineSet
922 1577 m 1x000fff80
 846 1577 l 1
 846 1478 l 1
 922 1478 l 1
 922 1179 l 1
 846 1179 l 1
 846 1080 l 1
 922 1080 l 1
 922 781 l 1
 846 781 l 1
 846 681 l 1
 922 681 l 1
 922 382 l 1
 846 382 l 1
 846 283 l 1
 922 283 l 1
 922 -16 l 1
 846 -16 l 1
 846 -115 l 1
 922 -115 l 1
 922 -414 l 1
 846 -414 l 1
 846 -514 l 1
 922 -514 l 1
 922 -615 l 1x6aafff80
 0 -615 l 1
 0 -315 l 1
 77 -315 l 1
 77 -215 l 1
 0 -215 l 1
 0 83 l 1
 77 83 l 1
 77 183 l 1
 0 183 l 1
 0 482 l 1
 77 482 l 1
 77 581 l 1
 0 581 l 1
 0 881 l 1
 77 881 l 1
 77 980 l 1
 0 980 l 1
 0 1279 l 1
 77 1279 l 1
 77 1378 l 1
 0 1378 l 1
 0 1677 l 1
 77 1677 l 1x9557ff80
 77 1775 l 1
 153 1775 l 1x000fff80
 153 1677 l 1
 230 1677 l 1x0017ff80
 230 1775 l 1
 307 1775 l 1x000fff80
 307 1677 l 1
 384 1677 l 1x0017ff80
 384 1775 l 1
 461 1775 l 1x000fff80
 461 1677 l 1
 539 1677 l 1x0017ff80
 539 1775 l 1
 616 1775 l 1x000fff80
 616 1677 l 1
 692 1677 l 1x0017ff80
 692 1775 l 1
 769 1775 l 1x000fff80
 769 1677 l 1
 846 1677 l 1x0017ff80
 846 1775 l 1
 922 1775 l 1
 922 1577 l 1x000fff80
77 1179 m 1
 77 1080 l 1
 153 1080 l 1
 153 1179 l 1
 77 1179 l 1
230 1179 m 1
 230 1080 l 1
 307 1080 l 1
 307 1179 l 1
 230 1179 l 1
384 1179 m 1
 384 1080 l 1
 461 1080 l 1
 461 1179 l 1
 384 1179 l 1
539 1179 m 1
 539 1080 l 1
 616 1080 l 1
 616 1179 l 1
 539 1179 l 1
692 1179 m 1
 692 1080 l 1
 769 1080 l 1
 769 1179 l 1
 692 1179 l 1
846 980 m 1x0147ff80
 769 980 l 1
 769 880 l 1
 846 880 l 1
 846 980 l 1x0147ff80
692 980 m 1
 616 980 l 1
 616 880 l 1
 692 880 l 1
 692 980 l 1
539 980 m 1
 461 980 l 1
 461 880 l 1
 539 880 l 1
 539 980 l 1
384 980 m 1
 307 980 l 1
 307 880 l 1
 384 880 l 1
 384 980 l 1
230 980 m 1
 153 980 l 1
 153 880 l 1
 230 880 l 1
 230 980 l 1
77 781 m 1x0287ff80
 77 681 l 1
 153 681 l 1
 153 781 l 1
 77 781 l 1x0287ff80
230 781 m 1
 230 681 l 1
 307 681 l 1
 307 781 l 1
 230 781 l 1
384 781 m 1
 384 681 l 1
 461 681 l 1
 461 781 l 1
 384 781 l 1
539 781 m 1
 539 681 l 1
 616 681 l 1
 616 781 l 1
 539 781 l 1
692 781 m 1
 692 681 l 1
 769 681 l 1
 769 781 l 1
 692 781 l 1
230 581 m 1x0507ff80
 153 581 l 1
 153 482 l 1
 230 482 l 1
 230 581 l 1x0507ff80
307 581 m 1
 307 482 l 1
 384 482 l 1
 384 581 l 1
 307 581 l 1
461 581 m 1
 461 482 l 1
 539 482 l 1
 539 581 l 1
 461 581 l 1
616 581 m 1
 616 482 l 1
 692 482 l 1
 692 581 l 1
 616 581 l 1
769 581 m 1
 769 482 l 1
 846 482 l 1
 846 581 l 1
 769 581 l 1
77 382 m 1x0a07ff80
 77 283 l 1
 153 283 l 1
 153 382 l 1
 77 382 l 1x0a07ff80
384 382 m 1
 384 283 l 1
 461 283 l 1
 461 382 l 1
 384 382 l 1
307 283 m 1
 307 382 l 1
 230 382 l 1
 230 283 l 1
 307 283 l 1
539 382 m 1
 539 283 l 1
 616 283 l 1
 616 382 l 1
 539 382 l 1
692 382 m 1
 692 283 l 1
 769 283 l 1
 769 382 l 1
 692 382 l 1
846 84 m 1x1407ff80
 846 183 l 1
 769 183 l 1
 769 84 l 1
 846 84 l 1x1407ff80
692 84 m 1
 692 183 l 1
 616 183 l 1
 616 84 l 1
 692 84 l 1
539 84 m 1
 539 183 l 1
 461 183 l 1
 461 84 l 1
 539 84 l 1
384 84 m 1
 384 183 l 1
 307 183 l 1
 307 84 l 1
 384 84 l 1
230 84 m 1
 230 183 l 1
 153 183 l 1
 153 84 l 1
 230 84 l 1
77 -16 m 1x2807ff80
 77 -115 l 1
 153 -115 l 1
 153 -16 l 1
 77 -16 l 1x2807ff80
230 -16 m 1
 230 -115 l 1
 307 -115 l 1
 307 -16 l 1
 230 -16 l 1
384 -16 m 1
 384 -115 l 1
 461 -115 l 1
 461 -16 l 1
 384 -16 l 1
539 -16 m 1
 539 -115 l 1
 616 -115 l 1
 616 -16 l 1
 539 -16 l 1
692 -16 m 1
 692 -115 l 1
 769 -115 l 1
 769 -16 l 1
 692 -16 l 1
846 -315 m 1x9007ff80
 846 -215 l 1
 769 -215 l 1
 769 -315 l 1
 846 -315 l 1x9007ff80
692 -315 m 1
 692 -215 l 1
 616 -215 l 1
 616 -315 l 1
 692 -315 l 1
539 -315 m 1
 539 -215 l 1
 461 -215 l 1
 461 -315 l 1
 539 -315 l 1
384 -315 m 1
 384 -215 l 1
 307 -215 l 1
 307 -315 l 1
 384 -315 l 1
230 -315 m 1
 230 -215 l 1
 153 -215 l 1
 153 -315 l 1
 230 -315 l 1
77 -414 m 1x6007ff80
 77 -514 l 1
 153 -514 l 1
 153 -414 l 1
 77 -414 l 1x6007ff80
230 -414 m 1
 230 -514 l 1
 307 -514 l 1
 307 -414 l 1
 230 -414 l 1
384 -414 m 1
 384 -514 l 1
 461 -514 l 1
 461 -414 l 1
 384 -414 l 1
539 -414 m 1
 539 -514 l 1
 616 -514 l 1
 616 -414 l 1
 539 -414 l 1
692 -414 m 1
 692 -514 l 1
 769 -514 l 1
 769 -414 l 1
 692 -414 l 1
846 1378 m 1x0057ff80
 769 1378 l 1
 769 1279 l 1
 846 1279 l 1
 846 1378 l 1x0057ff80
692 1378 m 1
 616 1378 l 1
 616 1279 l 1
 692 1279 l 1
 692 1378 l 1
539 1378 m 1
 461 1378 l 1
 461 1279 l 1
 539 1279 l 1
 539 1378 l 1
384 1378 m 1
 307 1378 l 1
 307 1279 l 1
 384 1279 l 1
 384 1378 l 1
230 1378 m 1
 153 1378 l 1
 153 1279 l 1
 230 1279 l 1
 230 1378 l 1
769 1577 m 1x002fff80
 692 1577 l 1
 692 1478 l 1
 769 1478 l 1
 769 1577 l 1x002fff80
616 1577 m 1
 539 1577 l 1
 539 1478 l 1
 616 1478 l 1
 616 1577 l 1
461 1577 m 1
 384 1577 l 1
 384 1478 l 1
 461 1478 l 1
 461 1577 l 1
307 1577 m 1
 230 1577 l 1
 230 1478 l 1
 307 1478 l 1
 307 1577 l 1
153 1577 m 1
 77 1577 l 1
 77 1478 l 1
 153 1478 l 1
 153 1577 l 1
EndSplineSet
EndChar

StartChar: blacksquare
Encoding: 9632 9632 576
Width: 922
Flags: W
HStem: 116.375 992.245<0 922>
VStem: 0 922<116.375 1108.62>
LayerCount: 2
Fore
SplineSet
0 1109 m 5
 922 1109 l 5
 922 116 l 5
 0 116 l 5
 0 1109 l 5
EndSplineSet
EndChar

StartChar: whitesquare
Encoding: 9633 9633 577
Width: 922
Flags: W
HStem: 116 192.35<187.15 733.85> 916.65 192.35<187.15 733.85>
VStem: 0 187.15<308.35 916.65> 733.85 188.15<308.35 916.65>
LayerCount: 2
Fore
SplineSet
0 1109 m 1
 922 1109 l 1
 922 116 l 1
 0 116 l 1
 0 1109 l 1
187 917 m 1
 187 308 l 1
 734 308 l 1
 734 917 l 1
 187 917 l 1
EndSplineSet
EndChar

StartChar: blacksmallsquare
Encoding: 9642 9642 578
Width: 922
Flags: W
HStem: 400.365 472.271<224.175 696.825>
VStem: 224.175 472.65<400.365 872.635>
LayerCount: 2
Fore
SplineSet
697 400 m 5
 224 400 l 5
 224 873 l 5
 697 873 l 5
 697 400 l 5
EndSplineSet
EndChar

StartChar: whitesmallsquare
Encoding: 9643 9643 579
Width: 922
Flags: W
HStem: 400.365 113.926<341.925 579.075> 758.709 113.926<341.925 579.075>
VStem: 224.175 117.75<514.291 758.709> 579.075 117.75<514.291 758.709>
LayerCount: 2
Fore
SplineSet
697 400 m 1
 224 400 l 1
 224 873 l 1
 697 873 l 1
 697 400 l 1
579 514 m 1
 579 759 l 1
 342 759 l 1
 342 514 l 1
 579 514 l 1
EndSplineSet
EndChar

StartChar: blackrectangle
Encoding: 9644 9644 580
Width: 922
Flags: W
HStem: 395 231<0 922>
LayerCount: 2
Fore
SplineSet
0 626 m 1
 922 626 l 5
 922 395 l 5
 0 395 l 1
 0 626 l 1
EndSplineSet
Validated: 3073
EndChar

StartChar: triagup
Encoding: 9650 9650 581
Width: 922
Flags: W
LayerCount: 2
Fore
SplineSet
0 114 m 5
 460 914 l 5
 922 114 l 5
 0 114 l 5
EndSplineSet
EndChar

StartChar: triagrt
Encoding: 9658 9658 582
Width: 922
Flags: W
LayerCount: 2
Fore
SplineSet
63 -63 m 1
 61 860 l 1
 861 398 l 1
 63 -63 l 1
EndSplineSet
EndChar

StartChar: triagdn
Encoding: 9660 9660 583
Width: 922
Flags: W
LayerCount: 2
Fore
SplineSet
922 914 m 5
 462 114 l 5
 0 914 l 5
 922 914 l 5
EndSplineSet
EndChar

StartChar: triaglf
Encoding: 9668 9668 584
Width: 922
Flags: W
LayerCount: 2
Fore
SplineSet
62 398 m 5
 860 861 l 5
 860 -63 l 5
 62 398 l 5
EndSplineSet
EndChar

StartChar: lozenge
Encoding: 9674 9674 585
Width: 922
Flags: W
DStem2: 261 710 89 709 0.489251 -0.872143<0 400.76> 89 709 261 710 0.486669 0.873586<84.5807 485.336> 501 1287 458 1059 0.499203 -0.866485<176.093 577.838> 458 361 501 135 0.501808 0.864979<0 401.737>
LayerCount: 2
Fore
SplineSet
501 1287 m 1
 834 709 l 1
 501 135 l 1
 411 135 l 1
 89 709 l 1
 411 1287 l 1
 501 1287 l 1
458 1059 m 1
 261 710 l 1
 458 361 l 1
 657 710 l 1
 458 1059 l 1
EndSplineSet
EndChar

StartChar: whitecircle
Encoding: 9675 9675 586
Width: 922
Flags: W
HStem: 221 150<334.35 586.595> 784 150<333.91 587.132>
VStem: 104 150<452.439 703.668> 668 150<451.815 701.975>
LayerCount: 2
Fore
SplineSet
461 934 m 0
 663 934 818 770 818 578 c 0
 818 377 658 221 461 221 c 0
 258 221 104 381 104 578 c 0
 104 763 251 934 461 934 c 0
461 784 m 0
 341 784 254 688 254 578 c 0
 254 453 355 371 461 371 c 256
 577 371 668 463 668 578 c 0
 668 683 584 784 461 784 c 0
EndSplineSet
EndChar

StartChar: blackcircle
Encoding: 9679 9679 587
Width: 922
Flags: W
HStem: 221 713<292.824 631.094>
VStem: 104 714<407.906 745.646>
LayerCount: 2
Fore
SplineSet
461 934 m 0
 663 934 818 770 818 578 c 0
 818 377 658 221 461 221 c 0
 258 221 104 381 104 578 c 0
 104 763 251 934 461 934 c 0
EndSplineSet
EndChar

StartChar: bulletinverse
Encoding: 9688 9688 588
Width: 922
Flags: W
HStem: 93.0996 233.28<349.727 573.114> 653.62 233.28<348.385 573.674>
VStem: 63 234<377.921 601.629> 624 233<379.634 603.318>
LayerCount: 2
Fore
SplineSet
63 93.0996 m 1
 63 886.9 l 1
 857 886.9 l 1
 857 93.0996 l 1
 63 93.0996 l 1
460 653.62 m 256
 372.166 653.62 297 584.433 297 490 c 0
 297 394.433 375.638 326.38 460 326.38 c 0
 550.48 326.38 624 398.748 624 490 c 0
 624 581.479 551.93 653.62 460 653.62 c 256
EndSplineSet
EndChar

StartChar: whitecircleinverse
Encoding: 9689 9689 589
Width: 922
Flags: W
HStem: 110 111<289.809 635.959> 371 413<335.607 588.433> 934 111<293.797 632.866>
VStem: 0 105<406.695 749.753> 255 413<448.029 702.431> 818 104<402.264 747.094>
LayerCount: 2
Fore
SplineSet
0 110 m 1
 0 1045 l 1
 922 1045 l 1
 922 110 l 1
 0 110 l 1
461 934 m 0
 270 934 105 780 105 577 c 0
 105 379 261 221 461 221 c 0
 652 221 818 369 818 577 c 0
 818 774 662 934 461 934 c 0
462 784 m 0
 577 784 668 691 668 577 c 0
 668 459 574 371 462 371 c 0
 349 371 255 459 255 577 c 0
 255 695 351 784 462 784 c 0
EndSplineSet
EndChar

StartChar: whitebullet
Encoding: 9702 9702 590
Width: 922
Flags: W
HStem: 406 113<368.896 552.757> 754 113<368.685 552.223>
VStem: 230 113<545.062 727.979> 579 112<546.84 727.446>
LayerCount: 2
Fore
SplineSet
691 637 m 0
 691 499 580 406 460 406 c 256
 333 406 230 507 230 637 c 0
 230 765 332 867 460 867 c 0
 591 867 691 764 691 637 c 0
579 637 m 0
 579 705 524 754 460 754 c 256
 399 754 343 707 343 637 c 0
 343 566 399 519 460 519 c 256
 526 519 579 571 579 637 c 0
EndSplineSet
EndChar

StartChar: smileface
Encoding: 9786 9786 591
Width: 922
Flags: W
HStem: 124 126<298.564 622.839> 338 54<371.617 548.201> 608 114<255.697 366.296 555.643 665.674> 919 126<293.127 624.394>
VStem: -0 127<417.754 749.129> 254 114<609.589 720.417> 554 113<609.487 720.519> 795 126<419.528 752.828>
LayerCount: 2
Fore
SplineSet
921 584 m 0
 921 327 719 124 460 124 c 0
 202 124 -0 329 -0 584 c 0
 -0 850 212 1045 460 1045 c 0
 719 1045 921 841 921 584 c 0
795 584 m 0
 795 771 649 919 460 919 c 0
 272 919 127 770 127 584 c 0
 127 390 282 250 460 250 c 0
 642 250 795 392 795 584 c 0
368 666 m 256
 368 634 343 608 310 608 c 256
 278 608 254 636 254 666 c 256
 254 694 277 722 310 722 c 256
 344 722 368 695 368 666 c 256
667 666 m 256
 667 634 644 608 612 608 c 256
 578 608 554 634 554 666 c 256
 554 696 577 722 612 722 c 256
 644 722 667 696 667 666 c 256
280 458 m 1
 319 480 l 1
 351 422 398 392 460 392 c 256
 523 392 570 422 602 480 c 1
 641 458 l 1
 600 378 539 338 460 338 c 0
 363 338 310 401 280 458 c 1
EndSplineSet
EndChar

StartChar: invsmileface
Encoding: 9787 9787 592
Width: 922
Flags: W
HStem: 124 171<330.15 591.942> 738 307<261.901 501.505 421.958 661.515>
VStem: -0 226<494.273 736.313> 343 236<622.894 736.048> 695 226<493.852 734.781>
LayerCount: 2
Fore
SplineSet
921 584 m 0
 921 327 719 124 460 124 c 0
 202 124 -0 329 -0 584 c 0
 -0 850 212 1045 460 1045 c 0
 719 1045 921 841 921 584 c 0
343 680 m 256
 343 710 318 738 284 738 c 256
 250 738 226 709 226 680 c 256
 226 650 251 621 284 621 c 256
 317 621 343 648 343 680 c 256
695 680 m 256
 695 711 672 738 638 738 c 256
 603 738 579 711 579 680 c 256
 579 648 604 621 638 621 c 256
 671 621 695 648 695 680 c 256
248 436 m 1
 283 369 346 295 460 295 c 0
 575 295 637 368 673 436 c 1
 627 462 l 1
 589 393 534 358 460 358 c 256
 387 358 332 393 294 462 c 1
 248 436 l 1
EndSplineSet
Validated: 3073
EndChar

StartChar: compass
Encoding: 9788 9788 593
Width: 922
Flags: W
HStem: 448 46<0 162 760 922> 722 47<486 563.283>
VStem: 162 48<494 578.675> 436 50<10 173 769 932> 710 50<363.517 448 492 580.419>
DStem2: 125 839 95 802 0.707613 -0.7066<4.91579 197.993 796.168 991.33> 95 139 127 106 0.708621 0.705589<0 194.565 792.769 988.636>
LayerCount: 2
Fore
SplineSet
436 932 m 1
 486 932 l 1
 486 769 l 1
 555 769 606 738 654 701 c 1
 795 838 l 1
 828 804 l 1
 690 665 l 1
 734 607 760 549 760 492 c 1
 922 492 l 1
 922 448 l 1
 760 448 l 1
 753 388 730 330 691 280 c 1
 828 137 l 1
 793 105 l 1
 654 242 l 1
 598 200 556 181 486 173 c 1
 486 10 l 1
 436 10 l 1
 436 173 l 1
 373 182 318 205 269 240 c 1
 127 106 l 1
 95 139 l 1
 232 278 l 1
 192 329 169 385 162 448 c 1
 -0 448 l 1
 -0 494 l 1
 162 494 l 1
 162 558 191 614 231 663 c 1
 95 802 l 1
 125 839 l 1
 268 702 l 1
 325 741 382 763 436 769 c 1
 436 932 l 1
460 722 m 256
 316 722 210 607 210 471 c 0
 210 332 318 221 460 221 c 256
 604 221 710 335 710 471 c 0
 710 611 599 722 460 722 c 256
EndSplineSet
Validated: 3073
EndChar

StartChar: female
Encoding: 9792 9792 594
Width: 922
Flags: W
HStem: 343 69<175 426 499 747> 577 81<346.207 426 499 579.178> 1069 84<343.449 581.435>
VStem: 183 79<741.948 982.372> 426 73<80 343 412 577> 661 80<741.559 986.112>
LayerCount: 2
Fore
SplineSet
426 577 m 1
 287 597 183 715 183 862 c 0
 183 1037 317 1153 462 1153 c 0
 608 1153 741 1035 741 862 c 0
 741 704 628 594 499 577 c 1
 499 412 l 1
 747 412 l 1
 747 343 l 1
 499 343 l 1
 499 80 l 1
 426 80 l 1
 426 343 l 1
 175 343 l 1
 175 412 l 1
 426 412 l 1
 426 577 l 1
461 1069 m 0
 351 1069 262 979 262 864 c 256
 262 747 352 658 461 658 c 256
 568 658 661 744 661 864 c 256
 661 983 569 1069 461 1069 c 0
EndSplineSet
Validated: 3073
EndChar

StartChar: male
Encoding: 9794 9794 595
Width: 922
Flags: W
HStem: 250 75<211.388 439.888> 750 75<207.521 441.935>
VStem: 42 76<417.863 660.889> 531 75<414.96 660.222>
DStem2: 474 782 525 740 0.693164 0.72078<5.0786 360.117>
LayerCount: 2
Fore
SplineSet
474 782 m 1
 725 1043 l 1
 673 1069 516 1124 516 1129 c 1
 537 1153 l 9
 864 1153 l 0
 880 1138 l 0
 880 793 l 273
 857 772 l 1
 852 772 795 945 771 996 c 1
 525 740 l 1
 579 686 606 622 606 548 c 0
 606 378 478 250 323 250 c 256
 162 250 42 381 42 535 c 0
 42 694 164 825 325 825 c 0
 371 825 420 811 474 782 c 1
325 750 m 0
 209 750 118 657 118 538 c 256
 118 415 216 325 325 325 c 256
 431 325 531 408 531 538 c 0
 531 663 434 750 325 750 c 0
EndSplineSet
Validated: 3073
EndChar

StartChar: spade
Encoding: 9824 9824 596
Width: 922
Flags: W
HStem: 152 28<168 272.283 656.397 754>
VStem: 456 14<417.894 503>
LayerCount: 2
Fore
SplineSet
461 1079 m 1
 532 784 826 737 826 527 c 0
 826 428 751 359 662 359 c 0
 584 359 520 407 470 503 c 1
 470 244 613 180 754 180 c 1
 759 152 l 1
 162 152 l 1
 168 180 l 1
 399 180 456 334 456 503 c 1
 409 401 338 359 260 359 c 0
 170 359 95 432 95 524 c 0
 95 746 393 770 461 1079 c 1
EndSplineSet
Validated: 3073
EndChar

StartChar: club
Encoding: 9827 9827 597
Width: 922
Flags: W
HStem: 151 25<150 211.374 718.551 773> 355 416<78.7852 299.617 619.973 842.203>
VStem: 252 415<744.613 993.475> 453 15<445.978 533>
LayerCount: 2
Fore
SplineSet
779 151 m 1xd0
 145 151 l 1
 150 176 l 1
 170 180 453 204 453 498 c 0
 453 506 453 517 453 533 c 1xd0
 397 418 305 355 207 355 c 0
 101 355 -0 434 -0 564 c 0
 -0 700 103 771 179 771 c 0
 210 771 251 758 302 732 c 1
 260 802 252 827 252 869 c 0
 252 980 336 1071 459 1071 c 0
 579 1071 667 981 667 871 c 0xe0
 667 826 650 780 615 732 c 1
 686 765 696 771 737 771 c 0
 835 771 922 687 922 567 c 0
 922 444 827 355 717 355 c 0
 561 355 483 508 468 533 c 1
 468 244 629 205 773 176 c 1
 779 151 l 1xd0
EndSplineSet
Validated: 3073
EndChar

StartChar: heart
Encoding: 9829 9829 598
Width: 922
Flags: W
LayerCount: 2
Fore
SplineSet
463 122 m 1
 381 425 79 615 79 816 c 0
 79 925 159 999 260 999 c 0
 341 999 418 954 463 824 c 1
 499 954 583 1000 661 1000 c 0
 767 1000 842 917 842 825 c 0
 842 592 542 425 463 122 c 1
EndSplineSet
Validated: 3073
EndChar

StartChar: diamond
Encoding: 9830 9830 599
Width: 922
Flags: W
LayerCount: 2
Fore
SplineSet
460 1068 m 1
 535 891 675 714 805 600 c 1
 696 516 544 314 460 130 c 1
 392 284 228 516 118 600 c 1
 249 714 363 864 460 1068 c 1
EndSplineSet
Validated: 3073
EndChar

StartChar: musicalnote
Encoding: 9834 9834 600
Width: 922
Flags: W
HStem: 135.78 236.52<235.114 404.073> 1026.22 20G<419 480>
VStem: 183 297<213.517 321.525> 419 61<357.72 767.58 964.41 1046.22> 626 67<401.088 670.848>
LayerCount: 2
Fore
SplineSet
419 357.72 m 1xd8
 419 1046.22 l 1
 480 1046.22 l 1
 480 964.41 l 1
 605 809.7 l 2
 650.497 745.549 693 655.152 693 552.12 c 0
 693 468.69 667 395.79 616 332.61 c 1
 578 332.61 l 1
 610 403.08 626 470.31 626 534.3 c 256
 626 673.875 542.885 757.393 480 767.58 c 1
 480 357.72 l 2xd8
 480 225.628 394.263 135.78 276 135.78 c 0
 217.177 135.78 183 163.242 183 215.97 c 0xe8
 183 296.347 252.731 372.3 346 372.3 c 0
 367.913 372.3 391.886 368.702 419 357.72 c 1xd8
EndSplineSet
Validated: 3073
EndChar

StartChar: musicalnotedbl
Encoding: 9835 9835 601
Width: 922
Flags: W
HStem: 71 235<87.9738 255.579> 147 235<593.354 761.757> 1025 20G<760.793 839>
VStem: 272 61<292 611 714 807> 779 60<368 732 835 928>
DStem2: 272 900 333 807 0.968822 0.247759<36.0566 498.13> 333 714 333 611 0.965113 0.261835<0 435.153>
LayerCount: 2
Fore
SplineSet
839 368 m 2xb8
 839 223 740 147 636 147 c 0
 558 147 543 195 543 227 c 0
 543 307 612 382 706 382 c 0x78
 733 382 757 376 779 368 c 1
 779 732 l 1
 333 611 l 1
 333 292 l 2
 333 147 234 71 129 71 c 0
 51 71 36 119 36 151 c 0
 36 230 105 306 200 306 c 0
 227 306 253 301 272 292 c 1
 272 900 l 1
 839 1045 l 1
 839 368 l 2xb8
333 714 m 1
 779 835 l 1
 779 928 l 1
 333 807 l 1
 333 714 l 1
EndSplineSet
Validated: 3073
EndChar

StartChar: arrowboth
Encoding: 8596 8596 602
Width: 922
VWidth: 1708
Flags: W
LayerCount: 2
Fore
SplineSet
371 960 m 29
 50 600 l 29
 371 240 l 29
0 -99 m 5
 0 1224 l 5
 922 1224 l 5
 922 -99 l 5
 0 -99 l 5
551 960 m 29
 872 600 l 29
 551 240 l 29
872 600 m 29
 50 600 l 29
EndSplineSet
EndChar

StartChar: arrowbothv
Encoding: 8597 8597 603
Width: 922
VWidth: 1708
Flags: W
LayerCount: 2
Fore
SplineSet
821 690 m 29
 461 1061 l 29
 101 690 l 29
0 87 m 5
 0 1113 l 5
 922 1113 l 5
 922 87 l 5
 0 87 l 5
821 510 m 29
 461 139 l 29
 101 510 l 29
461 139 m 29
 461 1061 l 29
EndSplineSet
EndChar

StartChar: updownarrowbar
Encoding: 8616 8616 604
Width: 922
VWidth: 1708
Flags: W
LayerCount: 2
Fore
SplineSet
50 58 m 25
 872 58 l 25
821 690 m 25
 461 1061 l 25
 101 690 l 25
0 -443 m 1
 0 1113 l 1
 922 1113 l 1
 922 -443 l 1
 0 -443 l 1
821 510 m 25
 461 139 l 25
 101 510 l 25
461 139 m 25
 461 1061 l 25
EndSplineSet
EndChar

StartChar: nsuperior
Encoding: 8319 8319 605
Width: 922
VWidth: 1947
Flags: MW
LayerCount: 2
Fore
SplineSet
309 1425 m 5
 1063 1425 l 5
 876 544 l 5
 122 544 l 5
 309 1425 l 5
658 390 m 29
 810 1103 l 22
 816.301 1132.55 819.689 1159.22 819.689 1183.07 c 4
 819.689 1282.01 763.28 1332 640 1332 c 14
 624 1332 l 22
 490 1332 364 1140 340 1026 c 14
 325 955 l 29
450 1545 m 29
 204 390 l 29
EndSplineSet
EndChar

StartChar: radical
Encoding: 8730 8730 606
Width: 922
VWidth: 1708
Flags: MW
LayerCount: 2
Fore
SplineSet
-67 -25 m 5
 285 1633 l 5
 1157 1633 l 5
 805 -25 l 5
 -67 -25 l 5
1093 1755 m 25
 407 37 l 25
 353 995 l 25
 -13 995 l 25
EndSplineSet
EndChar

StartChar: intersection
Encoding: 8745 8745 608
Width: 922
VWidth: 1708
Flags: MW
LayerCount: 2
Fore
SplineSet
-115 0 m 5
 234 1638 l 5
 1159 1638 l 5
 807 0 l 5
 -115 0 l 5
31.1006 -183 m 29
 296 1063 l 22
 324.468 1196.9 488 1333 623 1333 c 14
 641 1333 l 22
 761.265 1333 858.516 1225.07 858.516 1106.77 c 4
 858.516 1092.27 857.108 1077.62 854 1063 c 14
 589.101 -183 l 29
EndSplineSet
EndChar

StartChar: infinity
Encoding: 8734 8734 609
Width: 922
Flags: MW
LayerCount: 2
Fore
SplineSet
687 843 m 7
 817 843 847 720 847 618 c 7
 847 522 772 392 647 392 c 7
 521 392 482 512 482 618 c 7
 482 717 571 843 687 843 c 7
317 843 m 7
 198 843 117 719 117 618 c 7
 117 526 152 392 277 392 c 7
 403 392 482 512 482 618 c 7
 482 717 439 843 317 843 c 7
EndSplineSet
EndChar

StartChar: almostequal
Encoding: 8776 8776 610
Width: 922
VWidth: 1947
Flags: MW
LayerCount: 2
Fore
SplineSet
99 340 m 21
 153 448 242 517 315 517 c 14
 330 517 l 22
 359 517 385 500 406 473 c 6
 479 381 l 6
 498 356 523 341 550 341 c 14
 565 341 l 22
 646 341 733 426 782 517 c 13
197 800 m 21
 251 908 340 977 413 977 c 14
 428 977 l 22
 457 977 482 960 503 933 c 6
 577 841 l 6
 596 816 621 801 648 801 c 14
 663 801 l 22
 744 801 830 886 880 977 c 13
EndSplineSet
EndChar

StartChar: equivalence
Encoding: 8801 8801 611
Width: 922
Flags: MW
LayerCount: 2
Fore
SplineSet
146.306 980 m 29
 968.306 980 l 29
65.5342 600 m 29
 887.534 600 l 29
-15.2373 220 m 29
 806.763 220 l 29
EndSplineSet
EndChar

StartChar: lessequal
Encoding: 8804 8804 612
Width: 922
VWidth: 1708
Flags: MW
LayerCount: 2
Fore
SplineSet
-61 619 m 29
 891 67 l 29
321 1612 m 5
 1063 1612 l 5
 688 -150 l 5
 -54 -150 l 5
 321 1612 l 5
1137 1290 m 29
 256 877 l 29
 957 465 l 29
EndSplineSet
EndChar

StartChar: greaterequal
Encoding: 8805 8805 613
Width: 922
VWidth: 1708
Flags: MW
LayerCount: 2
Fore
SplineSet
1023 619 m 25
 -144 75 l 25
321 1612 m 1
 1063 1612 l 1
 688 -150 l 1
 -54 -150 l 1
 321 1612 l 1
75 1308 m 25
 814 877 l 25
 -105 447 l 25
EndSplineSet
EndChar

StartChar: revlogicalnot
Encoding: 8976 8976 614
Width: 922
VWidth: 1947
Flags: MW
LayerCount: 2
Fore
SplineSet
105 1024 m 5
 977 1024 l 5
 812.29 246 l 5
 -59.71 246 l 5
 105 1024 l 5
1038 600 m 25
 198 600 l 25
 91.042 99 l 25
EndSplineSet
EndChar

StartChar: integraltp
Encoding: 8992 8992 615
Width: 922
Flags: MW
LayerCount: 2
Fore
SplineSet
461 -615 m 25
 461 1414 l 18
 461 1489.5 511.5 1548 600 1548 c 2
 610 1548 l 2
 693 1548 740 1489.5 740 1414 c 9
 740 1308 l 25
EndSplineSet
EndChar

StartChar: integralbt
Encoding: 8993 8993 616
Width: 922
Flags: MW
LayerCount: 2
Fore
SplineSet
461 1775 m 29
 461 -324 l 18
 461 -399.5 410.5 -458 322 -458 c 2
 312 -458 l 2
 229 -458 182 -399.5 182 -324 c 9
 182 -218 l 25
EndSplineSet
EndChar

StartChar: exclam
Encoding: -1 33 617
Width: 922
Flags: MW
LayerCount: 2
Fore
SplineSet
493 95 m 0
 478 24 409 -23 343 -23 c 0
 288.307 -23 241.395 13.575 241.395 70.936 c 0
 241.395 78.5989 242.232 86.6328 244 95 c 0
 257 156 321 213 393 213 c 0
 450.134 213 495.679 176.687 495.679 119.681 c 0
 495.679 111.833 494.815 103.592 493 95 c 0
646 1418 m 0
 693.105 1418 746.811 1390.86 746.811 1315.22 c 0
 746.811 1302.54 745.302 1288.5 742 1273 c 2
 523 384 l 1
 341 384 l 1
 500 1274 l 2
 523 1383 600 1418 646 1418 c 0
EndSplineSet
EndChar
